STARTFONT 2.3
FONT -FontForge-Rajdhani-Book-R-Normal--10-100-72-72-P-61-ISO10646-1
SIZE 10 72 72  2
FONTBOUNDINGBOX 25 14 -4 -4
COMMENT "Generated by fontforge, http://fontforge.sourceforge.net"
COMMENT "Copyright (c) 2014 Indian Type Foundry (info@indiantypefoundry.com)"
STARTPROPERTIES 41
FOUNDRY "FontForge"
FAMILY_NAME "Rajdhani"
WEIGHT_NAME "Book"
SLANT "R"
SETWIDTH_NAME "Normal"
ADD_STYLE_NAME ""
PIXEL_SIZE 10
POINT_SIZE 100
RESOLUTION_X 72
RESOLUTION_Y 72
SPACING "P"
AVERAGE_WIDTH 61
CHARSET_REGISTRY "ISO10646"
CHARSET_ENCODING "1"
FONTNAME_REGISTRY ""
CHARSET_COLLECTIONS "ISO8859-2 ISO8859-9 ISO8859-4 ISO10646-1"
BITS_PER_PIXEL 2
FONT_NAME "Rajdhani-Regular"
FACE_NAME "Rajdhani Regular"
COPYRIGHT "Copyright (c) 2014 Indian Type Foundry (info@indiantypefoundry.com)"
FONT_VERSION "1.201;PS 1.0;hotconv 1.0.78;makeotf.lib2.5.61930; ttfautohint (v1.1) -l 7 -r 28 -G 50 -x 13 -D latn -f deva -w G"
FONT_ASCENT 8
FONT_DESCENT 2
UNDERLINE_POSITION -1
UNDERLINE_THICKNESS 1
X_HEIGHT 4
CAP_HEIGHT 5
DEFAULT_CHAR 3
RAW_ASCENT 800
RAW_DESCENT 200
NORM_SPACE 3
RELATIVE_WEIGHT 40
RELATIVE_SETWIDTH 50
SUPERSCRIPT_X 0
SUPERSCRIPT_Y 3
SUPERSCRIPT_SIZE 6
SUBSCRIPT_X 0
SUBSCRIPT_Y 0
SUBSCRIPT_SIZE 6
AVG_LOWERCASE_WIDTH 44
AVG_UPPERCASE_WIDTH 52
ENDPROPERTIES
CHARS 1043
STARTCHAR NULL.dup1
ENCODING 0
SWIDTH 0 0
DWIDTH 0 0
BBX 1 1 0 0
BITMAP
00
ENDCHAR
STARTCHAR CR
ENCODING 13
SWIDTH 0 0
DWIDTH 0 0
BBX 1 1 0 0
BITMAP
00
ENDCHAR
STARTCHAR space
ENCODING 32
SWIDTH 267 0
DWIDTH 3 0
BBX 1 1 0 0
BITMAP
00
ENDCHAR
STARTCHAR exclam
ENCODING 33
SWIDTH 237 0
DWIDTH 2 0
BBX 1 6 1 0
BITMAP
40
40
40
40
40
40
ENDCHAR
STARTCHAR quotedbl
ENCODING 34
SWIDTH 330 0
DWIDTH 3 0
BBX 3 2 0 4
BITMAP
44
44
ENDCHAR
STARTCHAR numbersign
ENCODING 35
SWIDTH 677 0
DWIDTH 7 0
BBX 6 6 0 0
BITMAP
0410
19A0
0440
0440
6590
1100
ENDCHAR
STARTCHAR dollar
ENCODING 36
SWIDTH 504 0
DWIDTH 5 0
BBX 5 8 0 -1
BITMAP
0400
2600
5000
1600
0140
5140
2600
0400
ENDCHAR
STARTCHAR percent
ENCODING 37
SWIDTH 717 0
DWIDTH 7 0
BBX 7 6 0 0
BITMAP
5840
4440
1500
0154
0444
0454
ENDCHAR
STARTCHAR ampersand
ENCODING 38
SWIDTH 597 0
DWIDTH 6 0
BBX 5 6 0 0
BITMAP
1A00
1040
2000
5640
5100
2680
ENDCHAR
STARTCHAR quotesingle
ENCODING 39
SWIDTH 186 0
DWIDTH 2 0
BBX 1 2 0 4
BITMAP
40
40
ENDCHAR
STARTCHAR parenleft
ENCODING 40
SWIDTH 283 0
DWIDTH 3 0
BBX 2 8 0 -2
BITMAP
20
40
40
40
40
40
40
10
ENDCHAR
STARTCHAR parenright
ENCODING 41
SWIDTH 283 0
DWIDTH 3 0
BBX 2 8 0 -2
BITMAP
50
10
10
10
10
10
10
10
ENDCHAR
STARTCHAR asterisk
ENCODING 42
SWIDTH 406 0
DWIDTH 4 0
BBX 2 3 1 3
BITMAP
50
50
50
ENDCHAR
STARTCHAR plus
ENCODING 43
SWIDTH 523 0
DWIDTH 5 0
BBX 4 4 1 1
BITMAP
10
65
10
10
ENDCHAR
STARTCHAR comma
ENCODING 44
SWIDTH 191 0
DWIDTH 2 0
BBX 2 2 0 -1
BITMAP
50
40
ENDCHAR
STARTCHAR hyphen
ENCODING 45
SWIDTH 312 0
DWIDTH 3 0
BBX 3 1 0 3
BITMAP
54
ENDCHAR
STARTCHAR period
ENCODING 46
SWIDTH 191 0
DWIDTH 2 0
BBX 2 1 0 0
BITMAP
50
ENDCHAR
STARTCHAR slash
ENCODING 47
SWIDTH 396 0
DWIDTH 4 0
BBX 4 6 0 0
BITMAP
05
08
04
10
20
50
ENDCHAR
STARTCHAR zero
ENCODING 48
SWIDTH 514 0
DWIDTH 5 0
BBX 5 6 0 0
BITMAP
2640
5040
5040
5040
5040
2640
ENDCHAR
STARTCHAR one
ENCODING 49
SWIDTH 317 0
DWIDTH 3 0
BBX 3 6 0 0
BITMAP
64
14
14
14
14
14
ENDCHAR
STARTCHAR two
ENCODING 50
SWIDTH 478 0
DWIDTH 5 0
BBX 4 6 0 0
BITMAP
66
41
02
14
50
65
ENDCHAR
STARTCHAR three
ENCODING 51
SWIDTH 496 0
DWIDTH 5 0
BBX 5 6 0 0
BITMAP
2600
4140
0600
0140
4140
2600
ENDCHAR
STARTCHAR four
ENCODING 52
SWIDTH 520 0
DWIDTH 5 0
BBX 5 6 0 0
BITMAP
0200
0900
1500
1100
5640
0100
ENDCHAR
STARTCHAR five
ENCODING 53
SWIDTH 482 0
DWIDTH 5 0
BBX 5 6 0 0
BITMAP
6500
5000
5500
0140
4140
2600
ENDCHAR
STARTCHAR six
ENCODING 54
SWIDTH 497 0
DWIDTH 5 0
BBX 5 6 0 0
BITMAP
2500
4000
5500
4140
4140
2600
ENDCHAR
STARTCHAR seven
ENCODING 55
SWIDTH 380 0
DWIDTH 4 0
BBX 4 6 0 0
BITMAP
56
04
08
14
20
10
ENDCHAR
STARTCHAR eight
ENCODING 56
SWIDTH 519 0
DWIDTH 5 0
BBX 5 6 0 0
BITMAP
2640
5040
2600
5040
5040
2640
ENDCHAR
STARTCHAR nine
ENCODING 57
SWIDTH 497 0
DWIDTH 5 0
BBX 5 6 0 0
BITMAP
2600
4140
4140
2640
0140
1600
ENDCHAR
STARTCHAR colon
ENCODING 58
SWIDTH 191 0
DWIDTH 2 0
BBX 2 5 0 0
BITMAP
50
00
00
00
50
ENDCHAR
STARTCHAR semicolon
ENCODING 59
SWIDTH 191 0
DWIDTH 2 0
BBX 2 6 0 -1
BITMAP
50
00
00
40
50
40
ENDCHAR
STARTCHAR less
ENCODING 60
SWIDTH 513 0
DWIDTH 5 0
BBX 5 4 0 1
BITMAP
0540
6400
1500
0040
ENDCHAR
STARTCHAR equal
ENCODING 61
SWIDTH 531 0
DWIDTH 5 0
BBX 4 3 1 2
BITMAP
55
00
55
ENDCHAR
STARTCHAR greater
ENCODING 62
SWIDTH 531 0
DWIDTH 5 0
BBX 4 4 1 1
BITMAP
50
15
54
40
ENDCHAR
STARTCHAR question
ENCODING 63
SWIDTH 473 0
DWIDTH 5 0
BBX 4 6 0 0
BITMAP
26
52
05
04
04
08
ENDCHAR
STARTCHAR at
ENCODING 64
SWIDTH 753 0
DWIDTH 8 0
BBX 7 7 0 -1
BITMAP
0550
1544
1454
5454
1454
1550
0540
ENDCHAR
STARTCHAR A
ENCODING 65
SWIDTH 533 0
DWIDTH 5 0
BBX 5 6 0 0
BITMAP
0900
1500
2200
2140
6680
8080
ENDCHAR
STARTCHAR B
ENCODING 66
SWIDTH 546 0
DWIDTH 5 0
BBX 4 6 1 0
BITMAP
95
42
99
42
41
95
ENDCHAR
STARTCHAR C
ENCODING 67
SWIDTH 542 0
DWIDTH 5 0
BBX 5 6 0 0
BITMAP
2540
5040
5000
5000
5040
2540
ENDCHAR
STARTCHAR D
ENCODING 68
SWIDTH 557 0
DWIDTH 6 0
BBX 4 6 1 0
BITMAP
95
42
42
42
42
95
ENDCHAR
STARTCHAR E
ENCODING 69
SWIDTH 481 0
DWIDTH 5 0
BBX 3 6 1 0
BITMAP
94
40
94
40
40
94
ENDCHAR
STARTCHAR F
ENCODING 70
SWIDTH 459 0
DWIDTH 5 0
BBX 3 6 1 0
BITMAP
94
40
94
40
40
40
ENDCHAR
STARTCHAR G
ENCODING 71
SWIDTH 539 0
DWIDTH 5 0
BBX 5 6 0 0
BITMAP
2640
5040
5140
5080
5080
2640
ENDCHAR
STARTCHAR H
ENCODING 72
SWIDTH 570 0
DWIDTH 6 0
BBX 4 6 1 0
BITMAP
41
42
96
42
42
41
ENDCHAR
STARTCHAR I
ENCODING 73
SWIDTH 230 0
DWIDTH 2 0
BBX 1 6 1 0
BITMAP
40
40
40
40
40
40
ENDCHAR
STARTCHAR J
ENCODING 74
SWIDTH 499 0
DWIDTH 5 0
BBX 5 6 0 0
BITMAP
0140
0140
0140
0140
8140
6600
ENDCHAR
STARTCHAR K
ENCODING 75
SWIDTH 530 0
DWIDTH 5 0
BBX 4 6 1 0
BITMAP
45
48
60
94
44
42
ENDCHAR
STARTCHAR L
ENCODING 76
SWIDTH 451 0
DWIDTH 5 0
BBX 3 6 1 0
BITMAP
40
40
40
40
40
94
ENDCHAR
STARTCHAR M
ENCODING 77
SWIDTH 696 0
DWIDTH 7 0
BBX 5 6 1 0
BITMAP
8080
9180
5240
5540
4840
4040
ENDCHAR
STARTCHAR N
ENCODING 78
SWIDTH 579 0
DWIDTH 6 0
BBX 4 6 1 0
BITMAP
81
92
62
46
46
42
ENDCHAR
STARTCHAR O
ENCODING 79
SWIDTH 553 0
DWIDTH 6 0
BBX 5 6 0 0
BITMAP
2540
5080
5080
5080
5080
2540
ENDCHAR
STARTCHAR P
ENCODING 80
SWIDTH 524 0
DWIDTH 5 0
BBX 4 6 1 0
BITMAP
99
42
42
95
40
40
ENDCHAR
STARTCHAR Q
ENCODING 81
SWIDTH 556 0
DWIDTH 6 0
BBX 5 7 0 -1
BITMAP
2540
5080
5080
5080
5080
2640
0100
ENDCHAR
STARTCHAR R
ENCODING 82
SWIDTH 534 0
DWIDTH 5 0
BBX 4 6 1 0
BITMAP
99
42
42
98
44
41
ENDCHAR
STARTCHAR S
ENCODING 83
SWIDTH 562 0
DWIDTH 6 0
BBX 5 6 0 0
BITMAP
2540
5040
2400
0140
1080
2540
ENDCHAR
STARTCHAR T
ENCODING 84
SWIDTH 420 0
DWIDTH 4 0
BBX 4 6 0 0
BITMAP
69
04
04
04
04
04
ENDCHAR
STARTCHAR U
ENCODING 85
SWIDTH 552 0
DWIDTH 6 0
BBX 5 6 0 0
BITMAP
5040
5080
5080
5080
5080
2640
ENDCHAR
STARTCHAR V
ENCODING 86
SWIDTH 500 0
DWIDTH 5 0
BBX 5 6 0 0
BITMAP
8080
5140
1100
2200
1500
0800
ENDCHAR
STARTCHAR W
ENCODING 87
SWIDTH 794 0
DWIDTH 8 0
BBX 8 6 0 0
BITMAP
8142
5145
1144
2458
1414
1424
ENDCHAR
STARTCHAR X
ENCODING 88
SWIDTH 504 0
DWIDTH 5 0
BBX 5 6 0 0
BITMAP
5140
2200
0800
1900
2200
4040
ENDCHAR
STARTCHAR Y
ENCODING 89
SWIDTH 493 0
DWIDTH 5 0
BBX 5 6 0 0
BITMAP
4040
1200
1500
0800
0800
0400
ENDCHAR
STARTCHAR Z
ENCODING 90
SWIDTH 482 0
DWIDTH 5 0
BBX 5 6 0 0
BITMAP
5640
0200
0400
1400
2000
6540
ENDCHAR
STARTCHAR bracketleft
ENCODING 91
SWIDTH 287 0
DWIDTH 3 0
BBX 2 8 0 -2
BITMAP
50
40
40
40
40
40
40
50
ENDCHAR
STARTCHAR backslash
ENCODING 92
SWIDTH 396 0
DWIDTH 4 0
BBX 4 6 0 0
BITMAP
50
20
10
04
08
05
ENDCHAR
STARTCHAR bracketright
ENCODING 93
SWIDTH 287 0
DWIDTH 3 0
BBX 1 8 1 -2
BITMAP
80
40
40
40
40
40
40
40
ENDCHAR
STARTCHAR asciicircum
ENCODING 94
SWIDTH 465 0
DWIDTH 5 0
BBX 3 3 1 3
BITMAP
60
44
04
ENDCHAR
STARTCHAR underscore
ENCODING 95
SWIDTH 372 0
DWIDTH 4 0
BBX 4 1 0 -1
BITMAP
55
ENDCHAR
STARTCHAR grave
ENCODING 96
SWIDTH 269 0
DWIDTH 3 0
BBX 1 2 1 5
BITMAP
40
40
ENDCHAR
STARTCHAR a
ENCODING 97
SWIDTH 502 0
DWIDTH 5 0
BBX 5 5 0 0
BITMAP
2640
5140
4140
5140
2640
ENDCHAR
STARTCHAR b
ENCODING 98
SWIDTH 504 0
DWIDTH 5 0
BBX 5 7 0 0
BITMAP
5000
5000
6600
5040
5040
5040
6600
ENDCHAR
STARTCHAR c
ENCODING 99
SWIDTH 394 0
DWIDTH 4 0
BBX 4 5 0 0
BITMAP
25
50
40
50
25
ENDCHAR
STARTCHAR d
ENCODING 100
SWIDTH 504 0
DWIDTH 5 0
BBX 5 7 0 0
BITMAP
0140
0140
2640
5140
4140
5140
2640
ENDCHAR
STARTCHAR e
ENCODING 101
SWIDTH 492 0
DWIDTH 5 0
BBX 5 5 0 0
BITMAP
2600
5140
5540
5000
2500
ENDCHAR
STARTCHAR f
ENCODING 102
SWIDTH 303 0
DWIDTH 3 0
BBX 3 7 0 0
BITMAP
14
20
64
20
20
20
10
ENDCHAR
STARTCHAR g
ENCODING 103
SWIDTH 506 0
DWIDTH 5 0
BBX 5 6 0 -1
BITMAP
2640
5140
5140
5140
1640
1600
ENDCHAR
STARTCHAR h
ENCODING 104
SWIDTH 507 0
DWIDTH 5 0
BBX 5 7 0 0
BITMAP
5000
5000
6600
5040
5040
5040
5040
ENDCHAR
STARTCHAR i
ENCODING 105
SWIDTH 210 0
DWIDTH 2 0
BBX 2 7 0 0
BITMAP
50
00
50
50
50
50
50
ENDCHAR
STARTCHAR j
ENCODING 106
SWIDTH 210 0
DWIDTH 2 0
BBX 3 8 -1 -1
BITMAP
14
00
14
14
14
14
14
60
ENDCHAR
STARTCHAR k
ENCODING 107
SWIDTH 431 0
DWIDTH 4 0
BBX 4 7 0 0
BITMAP
50
50
52
54
58
55
52
ENDCHAR
STARTCHAR l
ENCODING 108
SWIDTH 210 0
DWIDTH 2 0
BBX 2 7 0 0
BITMAP
50
50
50
50
50
50
50
ENDCHAR
STARTCHAR m
ENCODING 109
SWIDTH 769 0
DWIDTH 8 0
BBX 7 5 0 0
BITMAP
6658
5108
5108
5108
5104
ENDCHAR
STARTCHAR n
ENCODING 110
SWIDTH 507 0
DWIDTH 5 0
BBX 5 5 0 0
BITMAP
6600
5040
5040
5040
5040
ENDCHAR
STARTCHAR o
ENCODING 111
SWIDTH 496 0
DWIDTH 5 0
BBX 5 5 0 0
BITMAP
2600
5140
4140
5140
2600
ENDCHAR
STARTCHAR p
ENCODING 112
SWIDTH 504 0
DWIDTH 5 0
BBX 5 6 0 -1
BITMAP
6600
5040
5040
5040
6600
5000
ENDCHAR
STARTCHAR q
ENCODING 113
SWIDTH 502 0
DWIDTH 5 0
BBX 5 6 0 -1
BITMAP
2640
5140
4140
5140
2640
0140
ENDCHAR
STARTCHAR r
ENCODING 114
SWIDTH 313 0
DWIDTH 3 0
BBX 3 5 0 0
BITMAP
64
50
50
50
50
ENDCHAR
STARTCHAR s
ENCODING 115
SWIDTH 431 0
DWIDTH 4 0
BBX 4 5 0 0
BITMAP
65
50
15
02
55
ENDCHAR
STARTCHAR t
ENCODING 116
SWIDTH 347 0
DWIDTH 3 0
BBX 3 6 0 0
BITMAP
10
64
20
20
20
14
ENDCHAR
STARTCHAR u
ENCODING 117
SWIDTH 507 0
DWIDTH 5 0
BBX 5 5 0 0
BITMAP
5140
5140
5140
5140
2640
ENDCHAR
STARTCHAR v
ENCODING 118
SWIDTH 416 0
DWIDTH 4 0
BBX 4 5 0 0
BITMAP
81
41
15
14
14
ENDCHAR
STARTCHAR w
ENCODING 119
SWIDTH 683 0
DWIDTH 7 0
BBX 7 5 0 0
BITMAP
8204
4614
1450
1450
1450
ENDCHAR
STARTCHAR x
ENCODING 120
SWIDTH 413 0
DWIDTH 4 0
BBX 4 5 0 0
BITMAP
41
24
18
24
42
ENDCHAR
STARTCHAR y
ENCODING 121
SWIDTH 459 0
DWIDTH 5 0
BBX 4 6 0 -1
BITMAP
41
52
21
18
08
60
ENDCHAR
STARTCHAR z
ENCODING 122
SWIDTH 405 0
DWIDTH 4 0
BBX 4 5 0 0
BITMAP
5A
08
14
20
A5
ENDCHAR
STARTCHAR braceleft
ENCODING 123
SWIDTH 298 0
DWIDTH 3 0
BBX 2 8 0 -2
BITMAP
10
10
10
50
10
10
10
10
ENDCHAR
STARTCHAR bar
ENCODING 124
SWIDTH 207 0
DWIDTH 2 0
BBX 2 6 0 0
BITMAP
50
50
50
50
50
50
ENDCHAR
STARTCHAR braceright
ENCODING 125
SWIDTH 298 0
DWIDTH 3 0
BBX 3 8 0 -2
BITMAP
50
10
10
14
10
10
10
50
ENDCHAR
STARTCHAR asciitilde
ENCODING 126
SWIDTH 523 0
DWIDTH 5 0
BBX 3 1 1 3
BITMAP
54
ENDCHAR
STARTCHAR uni00A0
ENCODING 160
SWIDTH 267 0
DWIDTH 3 0
BBX 1 1 0 0
BITMAP
00
ENDCHAR
STARTCHAR exclamdown
ENCODING 161
SWIDTH 237 0
DWIDTH 2 0
BBX 1 6 1 0
BITMAP
40
40
40
40
40
40
ENDCHAR
STARTCHAR cent
ENCODING 162
SWIDTH 414 0
DWIDTH 4 0
BBX 4 7 0 -1
BITMAP
04
25
50
40
50
25
04
ENDCHAR
STARTCHAR sterling
ENCODING 163
SWIDTH 528 0
DWIDTH 5 0
BBX 5 6 0 0
BITMAP
1640
2040
2000
6400
1000
6540
ENDCHAR
STARTCHAR yen
ENCODING 165
SWIDTH 499 0
DWIDTH 5 0
BBX 5 6 0 0
BITMAP
4040
1100
6A40
0800
5940
0400
ENDCHAR
STARTCHAR brokenbar
ENCODING 166
SWIDTH 201 0
DWIDTH 2 0
BBX 2 6 0 0
BITMAP
50
50
00
00
50
50
ENDCHAR
STARTCHAR section
ENCODING 167
SWIDTH 454 0
DWIDTH 5 0
BBX 4 6 0 0
BITMAP
65
50
55
16
02
16
ENDCHAR
STARTCHAR dieresis
ENCODING 168
SWIDTH 345 0
DWIDTH 3 0
BBX 3 1 0 6
BITMAP
44
ENDCHAR
STARTCHAR copyright
ENCODING 169
SWIDTH 723 0
DWIDTH 7 0
BBX 7 6 0 0
BITMAP
2554
4544
4404
4444
4544
2554
ENDCHAR
STARTCHAR guillemotleft
ENCODING 171
SWIDTH 431 0
DWIDTH 4 0
BBX 4 3 0 1
BITMAP
15
54
15
ENDCHAR
STARTCHAR registered
ENCODING 174
SWIDTH 439 0
DWIDTH 4 0
BBX 4 4 0 3
BITMAP
15
55
55
15
ENDCHAR
STARTCHAR macron
ENCODING 175
SWIDTH 358 0
DWIDTH 4 0
BBX 2 1 1 5
BITMAP
50
ENDCHAR
STARTCHAR degree
ENCODING 176
SWIDTH 298 0
DWIDTH 3 0
BBX 2 2 0 5
BITMAP
50
10
ENDCHAR
STARTCHAR plusminus
ENCODING 177
SWIDTH 523 0
DWIDTH 5 0
BBX 4 4 1 1
BITMAP
10
65
10
55
ENDCHAR
STARTCHAR acute
ENCODING 180
SWIDTH 269 0
DWIDTH 3 0
BBX 1 1 1 6
BITMAP
80
ENDCHAR
STARTCHAR paragraph
ENCODING 182
SWIDTH 513 0
DWIDTH 5 0
BBX 5 6 0 0
BITMAP
7A40
7140
7140
1140
1140
1140
ENDCHAR
STARTCHAR periodcentered
ENCODING 183
SWIDTH 207 0
DWIDTH 2 0
BBX 2 1 0 3
BITMAP
50
ENDCHAR
STARTCHAR cedilla
ENCODING 184
SWIDTH 257 0
DWIDTH 3 0
BBX 1 2 1 -2
BITMAP
40
40
ENDCHAR
STARTCHAR guillemotright
ENCODING 187
SWIDTH 431 0
DWIDTH 4 0
BBX 3 3 1 1
BITMAP
50
54
50
ENDCHAR
STARTCHAR questiondown
ENCODING 191
SWIDTH 473 0
DWIDTH 5 0
BBX 4 6 0 0
BITMAP
08
04
04
10
51
26
ENDCHAR
STARTCHAR Agrave
ENCODING 192
SWIDTH 532 0
DWIDTH 5 0
BBX 5 8 0 0
BITMAP
1400
0000
0900
1500
2200
2140
6680
8080
ENDCHAR
STARTCHAR Aacute
ENCODING 193
SWIDTH 532 0
DWIDTH 5 0
BBX 5 8 0 0
BITMAP
0100
0000
0900
1500
2200
2140
6680
8080
ENDCHAR
STARTCHAR Acircumflex
ENCODING 194
SWIDTH 532 0
DWIDTH 5 0
BBX 5 8 0 0
BITMAP
0500
0000
0900
1500
2200
2140
6680
8080
ENDCHAR
STARTCHAR Atilde
ENCODING 195
SWIDTH 532 0
DWIDTH 5 0
BBX 5 9 0 0
BITMAP
1100
0500
0000
0900
1500
2200
2140
6680
8080
ENDCHAR
STARTCHAR Adieresis
ENCODING 196
SWIDTH 532 0
DWIDTH 5 0
BBX 5 8 0 0
BITMAP
1100
0000
0900
1500
2200
2140
6680
8080
ENDCHAR
STARTCHAR Aring
ENCODING 197
SWIDTH 532 0
DWIDTH 5 0
BBX 5 9 0 0
BITMAP
0400
0500
0400
0900
1500
2200
2140
6680
8080
ENDCHAR
STARTCHAR AE
ENCODING 198
SWIDTH 773 0
DWIDTH 8 0
BBX 7 6 0 0
BITMAP
0294
0540
0994
2140
6640
8194
ENDCHAR
STARTCHAR Ccedilla
ENCODING 199
SWIDTH 542 0
DWIDTH 5 0
BBX 5 8 0 -2
BITMAP
2540
5040
5000
5000
5040
2540
0500
0500
ENDCHAR
STARTCHAR Egrave
ENCODING 200
SWIDTH 481 0
DWIDTH 5 0
BBX 3 8 1 0
BITMAP
50
00
94
40
94
40
40
94
ENDCHAR
STARTCHAR Eacute
ENCODING 201
SWIDTH 481 0
DWIDTH 5 0
BBX 3 8 1 0
BITMAP
14
00
94
40
94
40
40
94
ENDCHAR
STARTCHAR Ecircumflex
ENCODING 202
SWIDTH 481 0
DWIDTH 5 0
BBX 3 8 1 0
BITMAP
10
00
94
40
94
40
40
94
ENDCHAR
STARTCHAR Edieresis
ENCODING 203
SWIDTH 481 0
DWIDTH 5 0
BBX 3 8 1 0
BITMAP
44
00
94
40
94
40
40
94
ENDCHAR
STARTCHAR Igrave
ENCODING 204
SWIDTH 230 0
DWIDTH 2 0
BBX 2 8 0 0
BITMAP
40
00
10
10
10
10
10
10
ENDCHAR
STARTCHAR Iacute
ENCODING 205
SWIDTH 231 0
DWIDTH 2 0
BBX 1 8 1 0
BITMAP
40
00
40
40
40
40
40
40
ENDCHAR
STARTCHAR Icircumflex
ENCODING 206
SWIDTH 229 0
DWIDTH 2 0
BBX 2 8 0 0
BITMAP
50
00
10
10
10
10
10
10
ENDCHAR
STARTCHAR Idieresis
ENCODING 207
SWIDTH 230 0
DWIDTH 2 0
BBX 3 8 0 0
BITMAP
54
00
10
10
10
10
10
10
ENDCHAR
STARTCHAR Eth
ENCODING 208
SWIDTH 514 0
DWIDTH 5 0
BBX 5 6 0 0
BITMAP
2540
1080
6480
1080
1080
2540
ENDCHAR
STARTCHAR Ntilde
ENCODING 209
SWIDTH 579 0
DWIDTH 6 0
BBX 4 9 1 0
BITMAP
04
14
00
81
92
62
46
46
42
ENDCHAR
STARTCHAR Ograve
ENCODING 210
SWIDTH 553 0
DWIDTH 6 0
BBX 5 8 0 0
BITMAP
0400
0000
2540
5080
5080
5080
5080
2540
ENDCHAR
STARTCHAR Oacute
ENCODING 211
SWIDTH 553 0
DWIDTH 6 0
BBX 5 8 0 0
BITMAP
0100
0000
2540
5080
5080
5080
5080
2540
ENDCHAR
STARTCHAR Ocircumflex
ENCODING 212
SWIDTH 553 0
DWIDTH 6 0
BBX 5 8 0 0
BITMAP
0500
0000
2540
5080
5080
5080
5080
2540
ENDCHAR
STARTCHAR Otilde
ENCODING 213
SWIDTH 553 0
DWIDTH 6 0
BBX 5 9 0 0
BITMAP
1100
0500
0000
2540
5080
5080
5080
5080
2540
ENDCHAR
STARTCHAR Odieresis
ENCODING 214
SWIDTH 553 0
DWIDTH 6 0
BBX 5 8 0 0
BITMAP
1500
0000
2540
5080
5080
5080
5080
2540
ENDCHAR
STARTCHAR multiply
ENCODING 215
SWIDTH 493 0
DWIDTH 5 0
BBX 3 3 1 2
BITMAP
44
64
54
ENDCHAR
STARTCHAR Oslash
ENCODING 216
SWIDTH 559 0
DWIDTH 6 0
BBX 5 6 0 0
BITMAP
2580
5180
5180
5480
6080
6540
ENDCHAR
STARTCHAR Ugrave
ENCODING 217
SWIDTH 552 0
DWIDTH 6 0
BBX 5 8 0 0
BITMAP
0400
0000
5040
5080
5080
5080
5080
2640
ENDCHAR
STARTCHAR Uacute
ENCODING 218
SWIDTH 552 0
DWIDTH 6 0
BBX 5 8 0 0
BITMAP
0100
0000
5040
5080
5080
5080
5080
2640
ENDCHAR
STARTCHAR Ucircumflex
ENCODING 219
SWIDTH 552 0
DWIDTH 6 0
BBX 5 8 0 0
BITMAP
0500
0000
5040
5080
5080
5080
5080
2640
ENDCHAR
STARTCHAR Udieresis
ENCODING 220
SWIDTH 552 0
DWIDTH 6 0
BBX 5 8 0 0
BITMAP
1500
0000
5040
5080
5080
5080
5080
2640
ENDCHAR
STARTCHAR Yacute
ENCODING 221
SWIDTH 493 0
DWIDTH 5 0
BBX 5 8 0 0
BITMAP
0500
0000
4040
1200
1500
0800
0800
0400
ENDCHAR
STARTCHAR Thorn
ENCODING 222
SWIDTH 501 0
DWIDTH 5 0
BBX 4 6 1 0
BITMAP
40
98
85
85
94
40
ENDCHAR
STARTCHAR germandbls
ENCODING 223
SWIDTH 540 0
DWIDTH 5 0
BBX 5 6 0 0
BITMAP
2640
5040
5640
5040
5080
5540
ENDCHAR
STARTCHAR agrave
ENCODING 224
SWIDTH 502 0
DWIDTH 5 0
BBX 5 7 0 0
BITMAP
0400
0000
2640
5140
4140
5140
2640
ENDCHAR
STARTCHAR aacute
ENCODING 225
SWIDTH 502 0
DWIDTH 5 0
BBX 5 7 0 0
BITMAP
0500
0000
2640
5140
4140
5140
2640
ENDCHAR
STARTCHAR acircumflex
ENCODING 226
SWIDTH 502 0
DWIDTH 5 0
BBX 5 7 0 0
BITMAP
0900
0000
2640
5140
4140
5140
2640
ENDCHAR
STARTCHAR atilde
ENCODING 227
SWIDTH 504 0
DWIDTH 5 0
BBX 5 7 0 0
BITMAP
1500
0500
2640
5140
4140
5140
2640
ENDCHAR
STARTCHAR adieresis
ENCODING 228
SWIDTH 502 0
DWIDTH 5 0
BBX 5 7 0 0
BITMAP
1100
0000
2640
5140
4140
5140
2640
ENDCHAR
STARTCHAR aring
ENCODING 229
SWIDTH 502 0
DWIDTH 5 0
BBX 5 8 0 0
BITMAP
0400
1100
0400
2640
5140
4140
5140
2640
ENDCHAR
STARTCHAR ae
ENCODING 230
SWIDTH 795 0
DWIDTH 8 0
BBX 8 5 0 0
BITMAP
1658
0145
0195
4140
2594
ENDCHAR
STARTCHAR ccedilla
ENCODING 231
SWIDTH 394 0
DWIDTH 4 0
BBX 4 7 0 -2
BITMAP
25
50
40
50
25
08
04
ENDCHAR
STARTCHAR egrave
ENCODING 232
SWIDTH 492 0
DWIDTH 5 0
BBX 5 7 0 0
BITMAP
1400
0000
2600
5140
5540
5000
2500
ENDCHAR
STARTCHAR eacute
ENCODING 233
SWIDTH 492 0
DWIDTH 5 0
BBX 5 7 0 0
BITMAP
0500
0000
2600
5140
5540
5000
2500
ENDCHAR
STARTCHAR ecircumflex
ENCODING 234
SWIDTH 492 0
DWIDTH 5 0
BBX 5 7 0 0
BITMAP
0800
0000
2600
5140
5540
5000
2500
ENDCHAR
STARTCHAR edieresis
ENCODING 235
SWIDTH 492 0
DWIDTH 5 0
BBX 5 7 0 0
BITMAP
1100
0000
2600
5140
5540
5000
2500
ENDCHAR
STARTCHAR igrave
ENCODING 236
SWIDTH 210 0
DWIDTH 2 0
BBX 2 7 0 0
BITMAP
80
00
50
50
50
50
50
ENDCHAR
STARTCHAR iacute
ENCODING 237
SWIDTH 208 0
DWIDTH 2 0
BBX 2 7 0 0
BITMAP
20
00
50
50
50
50
50
ENDCHAR
STARTCHAR icircumflex
ENCODING 238
SWIDTH 210 0
DWIDTH 2 0
BBX 2 7 0 0
BITMAP
50
00
50
50
50
50
50
ENDCHAR
STARTCHAR idieresis
ENCODING 239
SWIDTH 210 0
DWIDTH 2 0
BBX 2 7 0 0
BITMAP
50
00
50
50
50
50
50
ENDCHAR
STARTCHAR eth
ENCODING 240
SWIDTH 488 0
DWIDTH 5 0
BBX 5 7 0 0
BITMAP
1100
0800
1600
2640
5140
5140
2600
ENDCHAR
STARTCHAR ntilde
ENCODING 241
SWIDTH 507 0
DWIDTH 5 0
BBX 5 7 0 0
BITMAP
1500
1500
6600
5040
5040
5040
5040
ENDCHAR
STARTCHAR ograve
ENCODING 242
SWIDTH 496 0
DWIDTH 5 0
BBX 5 7 0 0
BITMAP
1400
0000
2600
5140
4140
5140
2600
ENDCHAR
STARTCHAR oacute
ENCODING 243
SWIDTH 496 0
DWIDTH 5 0
BBX 5 7 0 0
BITMAP
0500
0000
2600
5140
4140
5140
2600
ENDCHAR
STARTCHAR ocircumflex
ENCODING 244
SWIDTH 496 0
DWIDTH 5 0
BBX 5 7 0 0
BITMAP
0800
0000
2600
5140
4140
5140
2600
ENDCHAR
STARTCHAR otilde
ENCODING 245
SWIDTH 496 0
DWIDTH 5 0
BBX 5 7 0 0
BITMAP
1500
1500
2600
5140
4140
5140
2600
ENDCHAR
STARTCHAR odieresis
ENCODING 246
SWIDTH 496 0
DWIDTH 5 0
BBX 5 7 0 0
BITMAP
1100
0000
2600
5140
4140
5140
2600
ENDCHAR
STARTCHAR divide
ENCODING 247
SWIDTH 510 0
DWIDTH 5 0
BBX 3 4 1 1
BITMAP
10
54
00
10
ENDCHAR
STARTCHAR oslash
ENCODING 248
SWIDTH 521 0
DWIDTH 5 0
BBX 5 5 0 0
BITMAP
2640
5140
5440
6040
6600
ENDCHAR
STARTCHAR ugrave
ENCODING 249
SWIDTH 507 0
DWIDTH 5 0
BBX 5 7 0 0
BITMAP
1400
0000
5140
5140
5140
5140
2640
ENDCHAR
STARTCHAR uacute
ENCODING 250
SWIDTH 507 0
DWIDTH 5 0
BBX 5 7 0 0
BITMAP
0500
0000
5140
5140
5140
5140
2640
ENDCHAR
STARTCHAR ucircumflex
ENCODING 251
SWIDTH 507 0
DWIDTH 5 0
BBX 5 7 0 0
BITMAP
0800
0000
5140
5140
5140
5140
2640
ENDCHAR
STARTCHAR udieresis
ENCODING 252
SWIDTH 507 0
DWIDTH 5 0
BBX 5 7 0 0
BITMAP
1100
0000
5140
5140
5140
5140
2640
ENDCHAR
STARTCHAR yacute
ENCODING 253
SWIDTH 459 0
DWIDTH 5 0
BBX 4 8 0 -1
BITMAP
05
00
41
52
21
18
08
60
ENDCHAR
STARTCHAR thorn
ENCODING 254
SWIDTH 508 0
DWIDTH 5 0
BBX 5 8 0 -1
BITMAP
5000
5000
6600
5040
5040
5040
6600
5000
ENDCHAR
STARTCHAR ydieresis
ENCODING 255
SWIDTH 459 0
DWIDTH 5 0
BBX 4 8 0 -1
BITMAP
11
00
41
52
21
18
08
60
ENDCHAR
STARTCHAR Amacron
ENCODING 256
SWIDTH 532 0
DWIDTH 5 0
BBX 5 8 0 0
BITMAP
1500
0000
0900
1500
2200
2140
6680
8080
ENDCHAR
STARTCHAR amacron
ENCODING 257
SWIDTH 502 0
DWIDTH 5 0
BBX 5 6 0 0
BITMAP
0500
2640
5140
4140
5140
2640
ENDCHAR
STARTCHAR Abreve
ENCODING 258
SWIDTH 532 0
DWIDTH 5 0
BBX 5 9 0 0
BITMAP
1100
0500
0000
0900
1500
2200
2140
6680
8080
ENDCHAR
STARTCHAR abreve
ENCODING 259
SWIDTH 502 0
DWIDTH 5 0
BBX 5 7 0 0
BITMAP
1100
0500
2640
5140
4140
5140
2640
ENDCHAR
STARTCHAR Aogonek
ENCODING 260
SWIDTH 532 0
DWIDTH 5 0
BBX 5 7 0 -1
BITMAP
0900
1500
2200
2140
6680
8080
0040
ENDCHAR
STARTCHAR aogonek
ENCODING 261
SWIDTH 502 0
DWIDTH 5 0
BBX 5 6 0 -1
BITMAP
2640
5140
4140
5140
2640
0100
ENDCHAR
STARTCHAR Cacute
ENCODING 262
SWIDTH 542 0
DWIDTH 5 0
BBX 5 8 0 0
BITMAP
0100
0000
2540
5040
5000
5000
5040
2540
ENDCHAR
STARTCHAR cacute
ENCODING 263
SWIDTH 394 0
DWIDTH 4 0
BBX 4 7 0 0
BITMAP
04
00
25
50
40
50
25
ENDCHAR
STARTCHAR Cdotaccent
ENCODING 266
SWIDTH 542 0
DWIDTH 5 0
BBX 5 8 0 0
BITMAP
0400
0000
2540
5040
5000
5000
5040
2540
ENDCHAR
STARTCHAR cdotaccent
ENCODING 267
SWIDTH 394 0
DWIDTH 4 0
BBX 4 7 0 0
BITMAP
04
00
25
50
40
50
25
ENDCHAR
STARTCHAR Ccaron
ENCODING 268
SWIDTH 542 0
DWIDTH 5 0
BBX 5 8 0 0
BITMAP
0500
0000
2540
5040
5000
5000
5040
2540
ENDCHAR
STARTCHAR ccaron
ENCODING 269
SWIDTH 394 0
DWIDTH 4 0
BBX 4 7 0 0
BITMAP
14
04
25
50
40
50
25
ENDCHAR
STARTCHAR Dcaron
ENCODING 270
SWIDTH 557 0
DWIDTH 6 0
BBX 4 8 1 0
BITMAP
14
00
95
42
42
42
42
95
ENDCHAR
STARTCHAR dcaron
ENCODING 271
SWIDTH 534 0
DWIDTH 5 0
BBX 6 7 0 0
BITMAP
0150
0150
1640
5140
4140
5140
2640
ENDCHAR
STARTCHAR Dcroat
ENCODING 272
SWIDTH 514 0
DWIDTH 5 0
BBX 5 6 0 0
BITMAP
2540
1080
6480
1080
1080
2540
ENDCHAR
STARTCHAR dcroat
ENCODING 273
SWIDTH 539 0
DWIDTH 5 0
BBX 5 7 0 0
BITMAP
0140
0680
1540
5140
4140
5140
2640
ENDCHAR
STARTCHAR Emacron
ENCODING 274
SWIDTH 481 0
DWIDTH 5 0
BBX 3 8 1 0
BITMAP
54
00
94
40
94
40
40
94
ENDCHAR
STARTCHAR emacron
ENCODING 275
SWIDTH 492 0
DWIDTH 5 0
BBX 5 6 0 0
BITMAP
1500
2600
5140
5540
5000
2500
ENDCHAR
STARTCHAR Ebreve
ENCODING 276
SWIDTH 481 0
DWIDTH 5 0
BBX 3 9 1 0
BITMAP
44
50
00
94
40
94
40
40
94
ENDCHAR
STARTCHAR ebreve
ENCODING 277
SWIDTH 492 0
DWIDTH 5 0
BBX 5 7 0 0
BITMAP
1100
0400
2600
5140
5540
5000
2500
ENDCHAR
STARTCHAR Edotaccent
ENCODING 278
SWIDTH 496 0
DWIDTH 5 0
BBX 3 8 1 0
BITMAP
10
00
94
40
94
40
40
94
ENDCHAR
STARTCHAR edotaccent
ENCODING 279
SWIDTH 492 0
DWIDTH 5 0
BBX 5 7 0 0
BITMAP
0800
0000
2600
5140
5540
5000
2500
ENDCHAR
STARTCHAR Eogonek
ENCODING 280
SWIDTH 481 0
DWIDTH 5 0
BBX 3 7 1 -1
BITMAP
94
40
94
40
40
94
04
ENDCHAR
STARTCHAR eogonek
ENCODING 281
SWIDTH 492 0
DWIDTH 5 0
BBX 5 6 0 -1
BITMAP
2600
5140
5540
5000
2500
0100
ENDCHAR
STARTCHAR Ecaron
ENCODING 282
SWIDTH 481 0
DWIDTH 5 0
BBX 3 8 1 0
BITMAP
10
00
94
40
94
40
40
94
ENDCHAR
STARTCHAR ecaron
ENCODING 283
SWIDTH 492 0
DWIDTH 5 0
BBX 5 7 0 0
BITMAP
1500
0400
2600
5140
5540
5000
2500
ENDCHAR
STARTCHAR Gcircumflex
ENCODING 284
SWIDTH 539 0
DWIDTH 5 0
BBX 5 8 0 0
BITMAP
0500
0000
2640
5040
5140
5080
5080
2640
ENDCHAR
STARTCHAR gcircumflex
ENCODING 285
SWIDTH 506 0
DWIDTH 5 0
BBX 5 8 0 -1
BITMAP
0900
0000
2640
5140
5140
5140
1640
1600
ENDCHAR
STARTCHAR Gbreve
ENCODING 286
SWIDTH 539 0
DWIDTH 5 0
BBX 5 9 0 0
BITMAP
1100
0500
0000
2640
5040
5140
5080
5080
2640
ENDCHAR
STARTCHAR gbreve
ENCODING 287
SWIDTH 506 0
DWIDTH 5 0
BBX 5 8 0 -1
BITMAP
0500
0000
2640
5140
5140
5140
1640
1600
ENDCHAR
STARTCHAR Gdotaccent
ENCODING 288
SWIDTH 539 0
DWIDTH 5 0
BBX 5 8 0 0
BITMAP
0400
0000
2640
5040
5140
5080
5080
2640
ENDCHAR
STARTCHAR gdotaccent
ENCODING 289
SWIDTH 506 0
DWIDTH 5 0
BBX 5 8 0 -1
BITMAP
0400
0000
2640
5140
5140
5140
1640
1600
ENDCHAR
STARTCHAR uni0122
ENCODING 290
SWIDTH 539 0
DWIDTH 5 0
BBX 5 8 0 -2
BITMAP
2640
5040
5140
5080
5080
2640
0400
0400
ENDCHAR
STARTCHAR uni0123
ENCODING 291
SWIDTH 506 0
DWIDTH 5 0
BBX 5 9 0 -1
BITMAP
0400
0800
0000
2640
5140
5140
5140
1640
1600
ENDCHAR
STARTCHAR hcircumflex
ENCODING 293
SWIDTH 507 0
DWIDTH 5 0
BBX 5 8 0 0
BITMAP
0400
5500
5000
6600
5040
5040
5040
5040
ENDCHAR
STARTCHAR Hbar
ENCODING 294
SWIDTH 523 0
DWIDTH 5 0
BBX 6 6 0 0
BITMAP
1080
6590
2580
1080
1080
1080
ENDCHAR
STARTCHAR hbar
ENCODING 295
SWIDTH 544 0
DWIDTH 5 0
BBX 5 7 0 0
BITMAP
1000
6400
2540
2080
2080
2080
1040
ENDCHAR
STARTCHAR Itilde
ENCODING 296
SWIDTH 230 0
DWIDTH 2 0
BBX 2 9 0 0
BITMAP
50
40
00
10
10
10
10
10
10
ENDCHAR
STARTCHAR itilde
ENCODING 297
SWIDTH 210 0
DWIDTH 2 0
BBX 2 7 0 0
BITMAP
50
40
50
50
50
50
50
ENDCHAR
STARTCHAR Imacron
ENCODING 298
SWIDTH 230 0
DWIDTH 2 0
BBX 2 8 0 0
BITMAP
50
00
10
10
10
10
10
10
ENDCHAR
STARTCHAR imacron
ENCODING 299
SWIDTH 208 0
DWIDTH 2 0
BBX 2 6 0 0
BITMAP
50
50
50
50
50
50
ENDCHAR
STARTCHAR Ibreve
ENCODING 300
SWIDTH 231 0
DWIDTH 2 0
BBX 2 9 0 0
BITMAP
40
50
00
10
10
10
10
10
10
ENDCHAR
STARTCHAR ibreve
ENCODING 301
SWIDTH 211 0
DWIDTH 2 0
BBX 2 7 0 0
BITMAP
50
50
50
50
50
50
50
ENDCHAR
STARTCHAR Iogonek
ENCODING 302
SWIDTH 230 0
DWIDTH 2 0
BBX 2 7 0 -1
BITMAP
10
10
10
10
10
10
40
ENDCHAR
STARTCHAR iogonek
ENCODING 303
SWIDTH 210 0
DWIDTH 2 0
BBX 2 8 0 -1
BITMAP
50
00
50
50
50
50
50
40
ENDCHAR
STARTCHAR Idotaccent
ENCODING 304
SWIDTH 230 0
DWIDTH 2 0
BBX 1 8 1 0
BITMAP
40
00
40
40
40
40
40
40
ENDCHAR
STARTCHAR dotlessi
ENCODING 305
SWIDTH 212 0
DWIDTH 2 0
BBX 2 5 0 0
BITMAP
50
50
50
50
50
ENDCHAR
STARTCHAR IJ
ENCODING 306
SWIDTH 721 0
DWIDTH 7 0
BBX 6 6 1 0
BITMAP
4010
4010
4010
4010
5010
4990
ENDCHAR
STARTCHAR ij
ENCODING 307
SWIDTH 419 0
DWIDTH 4 0
BBX 4 8 0 -1
BITMAP
51
00
51
51
51
51
51
18
ENDCHAR
STARTCHAR Jcircumflex
ENCODING 308
SWIDTH 494 0
DWIDTH 5 0
BBX 5 8 0 0
BITMAP
0140
0000
0140
0140
0140
0140
8140
6600
ENDCHAR
STARTCHAR jcircumflex
ENCODING 309
SWIDTH 209 0
DWIDTH 2 0
BBX 3 8 -1 -1
BITMAP
14
00
14
14
14
14
14
60
ENDCHAR
STARTCHAR uni0136
ENCODING 310
SWIDTH 530 0
DWIDTH 5 0
BBX 4 8 1 -2
BITMAP
45
48
60
94
44
42
00
10
ENDCHAR
STARTCHAR uni0137
ENCODING 311
SWIDTH 431 0
DWIDTH 4 0
BBX 4 9 0 -2
BITMAP
50
50
52
54
58
55
52
08
04
ENDCHAR
STARTCHAR Lacute
ENCODING 313
SWIDTH 451 0
DWIDTH 5 0
BBX 3 8 1 0
BITMAP
40
00
40
40
40
40
40
94
ENDCHAR
STARTCHAR lacute
ENCODING 314
SWIDTH 207 0
DWIDTH 2 0
BBX 2 9 0 0
BITMAP
10
10
50
50
50
50
50
50
50
ENDCHAR
STARTCHAR uni013B
ENCODING 315
SWIDTH 451 0
DWIDTH 5 0
BBX 3 8 1 -2
BITMAP
40
40
40
40
40
94
20
10
ENDCHAR
STARTCHAR uni013C
ENCODING 316
SWIDTH 211 0
DWIDTH 2 0
BBX 2 9 0 -2
BITMAP
50
50
50
50
50
50
50
50
40
ENDCHAR
STARTCHAR Lcaron
ENCODING 317
SWIDTH 451 0
DWIDTH 5 0
BBX 3 6 1 0
BITMAP
48
44
40
40
40
94
ENDCHAR
STARTCHAR lcaron
ENCODING 318
SWIDTH 274 0
DWIDTH 3 0
BBX 3 7 0 0
BITMAP
58
54
50
50
50
50
50
ENDCHAR
STARTCHAR Ldot
ENCODING 319
SWIDTH 500 0
DWIDTH 5 0
BBX 3 6 1 0
BITMAP
40
40
54
40
40
94
ENDCHAR
STARTCHAR ldot
ENCODING 320
SWIDTH 314 0
DWIDTH 3 0
BBX 3 7 0 0
BITMAP
50
50
50
58
50
50
50
ENDCHAR
STARTCHAR Lslash
ENCODING 321
SWIDTH 504 0
DWIDTH 5 0
BBX 4 6 0 0
BITMAP
10
24
50
10
10
25
ENDCHAR
STARTCHAR lslash
ENCODING 322
SWIDTH 296 0
DWIDTH 3 0
BBX 3 7 0 0
BITMAP
20
20
24
60
20
20
20
ENDCHAR
STARTCHAR Nacute
ENCODING 323
SWIDTH 579 0
DWIDTH 6 0
BBX 4 8 1 0
BITMAP
04
00
81
92
62
46
46
42
ENDCHAR
STARTCHAR nacute
ENCODING 324
SWIDTH 507 0
DWIDTH 5 0
BBX 5 7 0 0
BITMAP
0500
0000
6600
5040
5040
5040
5040
ENDCHAR
STARTCHAR uni0145
ENCODING 325
SWIDTH 579 0
DWIDTH 6 0
BBX 4 8 1 -2
BITMAP
81
92
62
46
46
42
10
10
ENDCHAR
STARTCHAR uni0146
ENCODING 326
SWIDTH 505 0
DWIDTH 5 0
BBX 5 7 0 -2
BITMAP
6600
5040
5040
5040
5040
0800
0400
ENDCHAR
STARTCHAR Ncaron
ENCODING 327
SWIDTH 579 0
DWIDTH 6 0
BBX 4 8 1 0
BITMAP
14
00
81
92
62
46
46
42
ENDCHAR
STARTCHAR ncaron
ENCODING 328
SWIDTH 507 0
DWIDTH 5 0
BBX 5 7 0 0
BITMAP
0500
0400
6600
5040
5040
5040
5040
ENDCHAR
STARTCHAR Eng
ENCODING 330
SWIDTH 519 0
DWIDTH 5 0
BBX 4 7 1 -1
BITMAP
81
92
62
46
46
42
05
ENDCHAR
STARTCHAR eng
ENCODING 331
SWIDTH 507 0
DWIDTH 5 0
BBX 5 6 0 -1
BITMAP
6600
5040
5040
5040
5040
0600
ENDCHAR
STARTCHAR Omacron
ENCODING 332
SWIDTH 553 0
DWIDTH 6 0
BBX 5 8 0 0
BITMAP
0500
0000
2540
5080
5080
5080
5080
2540
ENDCHAR
STARTCHAR omacron
ENCODING 333
SWIDTH 496 0
DWIDTH 5 0
BBX 5 6 0 0
BITMAP
1500
2600
5140
4140
5140
2600
ENDCHAR
STARTCHAR Obreve
ENCODING 334
SWIDTH 553 0
DWIDTH 6 0
BBX 5 9 0 0
BITMAP
0100
0500
0000
2540
5080
5080
5080
5080
2540
ENDCHAR
STARTCHAR obreve
ENCODING 335
SWIDTH 496 0
DWIDTH 5 0
BBX 5 7 0 0
BITMAP
1100
0400
2600
5140
4140
5140
2600
ENDCHAR
STARTCHAR Ohungarumlaut
ENCODING 336
SWIDTH 553 0
DWIDTH 6 0
BBX 5 8 0 0
BITMAP
0500
0000
2540
5080
5080
5080
5080
2540
ENDCHAR
STARTCHAR ohungarumlaut
ENCODING 337
SWIDTH 496 0
DWIDTH 5 0
BBX 5 7 0 0
BITMAP
0500
0000
2600
5140
4140
5140
2600
ENDCHAR
STARTCHAR OE
ENCODING 338
SWIDTH 775 0
DWIDTH 8 0
BBX 7 6 0 0
BITMAP
2694
5140
5194
5140
5140
2694
ENDCHAR
STARTCHAR oe
ENCODING 339
SWIDTH 812 0
DWIDTH 8 0
BBX 8 5 0 0
BITMAP
2699
5141
4195
5140
2695
ENDCHAR
STARTCHAR Racute
ENCODING 340
SWIDTH 534 0
DWIDTH 5 0
BBX 4 8 1 0
BITMAP
14
00
99
42
42
98
44
41
ENDCHAR
STARTCHAR racute
ENCODING 341
SWIDTH 313 0
DWIDTH 3 0
BBX 3 7 0 0
BITMAP
14
00
64
50
50
50
50
ENDCHAR
STARTCHAR uni0156
ENCODING 342
SWIDTH 534 0
DWIDTH 5 0
BBX 4 8 1 -2
BITMAP
99
42
42
98
44
41
10
10
ENDCHAR
STARTCHAR uni0157
ENCODING 343
SWIDTH 313 0
DWIDTH 3 0
BBX 3 7 0 -2
BITMAP
64
50
50
50
50
50
40
ENDCHAR
STARTCHAR Rcaron
ENCODING 344
SWIDTH 534 0
DWIDTH 5 0
BBX 4 8 1 0
BITMAP
14
00
99
42
42
98
44
41
ENDCHAR
STARTCHAR rcaron
ENCODING 345
SWIDTH 313 0
DWIDTH 3 0
BBX 3 7 0 0
BITMAP
14
10
64
50
50
50
50
ENDCHAR
STARTCHAR Sacute
ENCODING 346
SWIDTH 562 0
DWIDTH 6 0
BBX 5 8 0 0
BITMAP
0100
0000
2540
5040
2400
0140
1080
2540
ENDCHAR
STARTCHAR sacute
ENCODING 347
SWIDTH 427 0
DWIDTH 4 0
BBX 4 7 0 0
BITMAP
08
00
65
50
15
02
55
ENDCHAR
STARTCHAR Scircumflex
ENCODING 348
SWIDTH 562 0
DWIDTH 6 0
BBX 5 8 0 0
BITMAP
0500
0000
2540
5040
2400
0140
1080
2540
ENDCHAR
STARTCHAR scircumflex
ENCODING 349
SWIDTH 427 0
DWIDTH 4 0
BBX 4 7 0 0
BITMAP
14
00
65
50
15
02
55
ENDCHAR
STARTCHAR uni015E
ENCODING 350
SWIDTH 562 0
DWIDTH 6 0
BBX 5 8 0 -2
BITMAP
2540
5040
2400
0140
1080
2540
0500
0500
ENDCHAR
STARTCHAR uni015F
ENCODING 351
SWIDTH 427 0
DWIDTH 4 0
BBX 4 7 0 -2
BITMAP
65
50
15
02
55
04
04
ENDCHAR
STARTCHAR Scaron
ENCODING 352
SWIDTH 562 0
DWIDTH 6 0
BBX 5 8 0 0
BITMAP
0500
0000
2540
5040
2400
0140
1080
2540
ENDCHAR
STARTCHAR scaron
ENCODING 353
SWIDTH 427 0
DWIDTH 4 0
BBX 4 7 0 0
BITMAP
14
00
65
50
15
02
55
ENDCHAR
STARTCHAR uni0162
ENCODING 354
SWIDTH 420 0
DWIDTH 4 0
BBX 4 8 0 -2
BITMAP
69
04
04
04
04
04
04
04
ENDCHAR
STARTCHAR uni0163
ENCODING 355
SWIDTH 347 0
DWIDTH 3 0
BBX 3 8 0 -2
BITMAP
10
64
20
20
20
14
04
14
ENDCHAR
STARTCHAR Tcaron
ENCODING 356
SWIDTH 420 0
DWIDTH 4 0
BBX 4 8 0 0
BITMAP
14
00
69
04
04
04
04
04
ENDCHAR
STARTCHAR tcaron
ENCODING 357
SWIDTH 396 0
DWIDTH 4 0
BBX 4 6 0 0
BITMAP
12
65
20
20
20
14
ENDCHAR
STARTCHAR Tbar
ENCODING 358
SWIDTH 501 0
DWIDTH 5 0
BBX 4 6 0 0
BITMAP
69
04
19
04
04
04
ENDCHAR
STARTCHAR tbar
ENCODING 359
SWIDTH 350 0
DWIDTH 4 0
BBX 3 6 0 0
BITMAP
20
64
20
64
20
24
ENDCHAR
STARTCHAR Utilde
ENCODING 360
SWIDTH 552 0
DWIDTH 6 0
BBX 5 9 0 0
BITMAP
1100
0500
0000
5040
5080
5080
5080
5080
2640
ENDCHAR
STARTCHAR utilde
ENCODING 361
SWIDTH 507 0
DWIDTH 5 0
BBX 5 7 0 0
BITMAP
1500
1500
5140
5140
5140
5140
2640
ENDCHAR
STARTCHAR Umacron
ENCODING 362
SWIDTH 552 0
DWIDTH 6 0
BBX 5 8 0 0
BITMAP
0500
0000
5040
5080
5080
5080
5080
2640
ENDCHAR
STARTCHAR umacron
ENCODING 363
SWIDTH 507 0
DWIDTH 5 0
BBX 5 6 0 0
BITMAP
1500
5140
5140
5140
5140
2640
ENDCHAR
STARTCHAR Ubreve
ENCODING 364
SWIDTH 552 0
DWIDTH 6 0
BBX 5 9 0 0
BITMAP
0100
0500
0000
5040
5080
5080
5080
5080
2640
ENDCHAR
STARTCHAR ubreve
ENCODING 365
SWIDTH 507 0
DWIDTH 5 0
BBX 5 7 0 0
BITMAP
1100
0400
5140
5140
5140
5140
2640
ENDCHAR
STARTCHAR Uring
ENCODING 366
SWIDTH 552 0
DWIDTH 6 0
BBX 5 9 0 0
BITMAP
0500
0500
0400
5040
5080
5080
5080
5080
2640
ENDCHAR
STARTCHAR uring
ENCODING 367
SWIDTH 507 0
DWIDTH 5 0
BBX 5 8 0 0
BITMAP
0400
1000
0400
5140
5140
5140
5140
2640
ENDCHAR
STARTCHAR Uhungarumlaut
ENCODING 368
SWIDTH 552 0
DWIDTH 6 0
BBX 5 8 0 0
BITMAP
0500
0000
5040
5080
5080
5080
5080
2640
ENDCHAR
STARTCHAR uhungarumlaut
ENCODING 369
SWIDTH 507 0
DWIDTH 5 0
BBX 5 7 0 0
BITMAP
0500
0000
5140
5140
5140
5140
2640
ENDCHAR
STARTCHAR Uogonek
ENCODING 370
SWIDTH 552 0
DWIDTH 6 0
BBX 5 7 0 -1
BITMAP
5040
5080
5080
5080
5080
2640
0400
ENDCHAR
STARTCHAR uogonek
ENCODING 371
SWIDTH 503 0
DWIDTH 5 0
BBX 5 6 0 -1
BITMAP
5140
5140
5140
5140
2640
0100
ENDCHAR
STARTCHAR Wcircumflex
ENCODING 372
SWIDTH 795 0
DWIDTH 8 0
BBX 8 8 0 0
BITMAP
0140
0000
8142
5145
1144
2458
1414
1424
ENDCHAR
STARTCHAR wcircumflex
ENCODING 373
SWIDTH 682 0
DWIDTH 7 0
BBX 7 7 0 0
BITMAP
0200
0000
8204
4614
1450
1450
1450
ENDCHAR
STARTCHAR Ycircumflex
ENCODING 374
SWIDTH 493 0
DWIDTH 5 0
BBX 5 8 0 0
BITMAP
1400
0000
4040
1200
1500
0800
0800
0400
ENDCHAR
STARTCHAR ycircumflex
ENCODING 375
SWIDTH 459 0
DWIDTH 5 0
BBX 4 8 0 -1
BITMAP
18
00
41
52
21
18
08
60
ENDCHAR
STARTCHAR Ydieresis
ENCODING 376
SWIDTH 493 0
DWIDTH 5 0
BBX 5 8 0 0
BITMAP
1100
0000
4040
1200
1500
0800
0800
0400
ENDCHAR
STARTCHAR Zacute
ENCODING 377
SWIDTH 482 0
DWIDTH 5 0
BBX 5 8 0 0
BITMAP
0500
0000
5640
0200
0400
1400
2000
6540
ENDCHAR
STARTCHAR zacute
ENCODING 378
SWIDTH 405 0
DWIDTH 4 0
BBX 4 7 0 0
BITMAP
04
00
5A
08
14
20
A5
ENDCHAR
STARTCHAR Zdotaccent
ENCODING 379
SWIDTH 482 0
DWIDTH 5 0
BBX 5 8 0 0
BITMAP
0400
0000
5640
0200
0400
1400
2000
6540
ENDCHAR
STARTCHAR zdotaccent
ENCODING 380
SWIDTH 405 0
DWIDTH 4 0
BBX 4 7 0 0
BITMAP
04
00
5A
08
14
20
A5
ENDCHAR
STARTCHAR Zcaron
ENCODING 381
SWIDTH 482 0
DWIDTH 5 0
BBX 5 8 0 0
BITMAP
0500
0000
5640
0200
0400
1400
2000
6540
ENDCHAR
STARTCHAR zcaron
ENCODING 382
SWIDTH 405 0
DWIDTH 4 0
BBX 4 7 0 0
BITMAP
14
04
5A
08
14
20
A5
ENDCHAR
STARTCHAR florin
ENCODING 402
SWIDTH 494 0
DWIDTH 5 0
BBX 5 8 0 -1
BITMAP
0240
0500
1900
0400
0400
1400
1000
5000
ENDCHAR
STARTCHAR AEacute
ENCODING 508
SWIDTH 773 0
DWIDTH 8 0
BBX 7 8 0 0
BITMAP
0040
0000
0294
0540
0994
2140
6640
8194
ENDCHAR
STARTCHAR aeacute
ENCODING 509
SWIDTH 795 0
DWIDTH 8 0
BBX 8 7 0 0
BITMAP
0080
0000
1658
0145
0195
4140
2594
ENDCHAR
STARTCHAR Oslashacute
ENCODING 510
SWIDTH 558 0
DWIDTH 6 0
BBX 5 8 0 0
BITMAP
0100
0000
2580
5180
5180
5480
6080
6540
ENDCHAR
STARTCHAR oslashacute
ENCODING 511
SWIDTH 521 0
DWIDTH 5 0
BBX 5 7 0 0
BITMAP
0100
0000
2640
5140
5440
6040
6600
ENDCHAR
STARTCHAR uni0218
ENCODING 536
SWIDTH 562 0
DWIDTH 6 0
BBX 5 8 0 -2
BITMAP
2540
5040
2400
0140
1080
2540
0400
0400
ENDCHAR
STARTCHAR uni0219
ENCODING 537
SWIDTH 427 0
DWIDTH 4 0
BBX 4 7 0 -2
BITMAP
65
50
15
02
55
04
04
ENDCHAR
STARTCHAR circumflex
ENCODING 710
SWIDTH 326 0
DWIDTH 3 0
BBX 2 2 1 5
BITMAP
80
10
ENDCHAR
STARTCHAR caron
ENCODING 711
SWIDTH 326 0
DWIDTH 3 0
BBX 2 2 1 5
BITMAP
50
40
ENDCHAR
STARTCHAR uni02C9
ENCODING 713
SWIDTH 358 0
DWIDTH 4 0
BBX 2 1 1 5
BITMAP
50
ENDCHAR
STARTCHAR breve
ENCODING 728
SWIDTH 332 0
DWIDTH 3 0
BBX 3 2 0 5
BITMAP
44
14
ENDCHAR
STARTCHAR dotaccent
ENCODING 729
SWIDTH 183 0
DWIDTH 2 0
BBX 1 1 0 6
BITMAP
40
ENDCHAR
STARTCHAR ring
ENCODING 730
SWIDTH 297 0
DWIDTH 3 0
BBX 2 2 0 5
BITMAP
50
50
ENDCHAR
STARTCHAR ogonek
ENCODING 731
SWIDTH 243 0
DWIDTH 2 0
BBX 1 2 1 -1
BITMAP
40
40
ENDCHAR
STARTCHAR tilde
ENCODING 732
SWIDTH 369 0
DWIDTH 4 0
BBX 3 2 0 5
BITMAP
54
14
ENDCHAR
STARTCHAR hungarumlaut
ENCODING 733
SWIDTH 377 0
DWIDTH 4 0
BBX 2 1 1 6
BITMAP
50
ENDCHAR
STARTCHAR Mu
ENCODING 924
SWIDTH 527 0
DWIDTH 5 0
BBX 5 7 0 -1
BITMAP
0040
5040
5040
5040
5040
6940
5000
ENDCHAR
STARTCHAR Pi
ENCODING 928
SWIDTH 605 0
DWIDTH 6 0
BBX 6 7 0 0
BITMAP
6A90
2080
2080
2080
2080
2080
1080
ENDCHAR
STARTCHAR Sigma
ENCODING 931
SWIDTH 481 0
DWIDTH 5 0
BBX 4 7 0 0
BITMAP
6A
20
14
08
14
20
6A
ENDCHAR
STARTCHAR uni0901
ENCODING 2305
SWIDTH 0 0
DWIDTH 0 0
BBX 3 2 -3 8
BITMAP
10
54
ENDCHAR
STARTCHAR uni0902
ENCODING 2306
SWIDTH 0 0
DWIDTH 0 0
BBX 1 1 -2 8
BITMAP
40
ENDCHAR
STARTCHAR uni0903
ENCODING 2307
SWIDTH 247 0
DWIDTH 2 0
BBX 1 4 1 1
BITMAP
40
00
00
40
ENDCHAR
STARTCHAR uni0905
ENCODING 2309
SWIDTH 598 0
DWIDTH 6 0
BBX 6 7 0 0
BITMAP
1860
0440
0440
0A80
0440
0440
5440
ENDCHAR
STARTCHAR uni0906
ENCODING 2310
SWIDTH 828 0
DWIDTH 8 0
BBX 9 7 0 0
BITMAP
185A40
044100
044100
0A8100
044100
044100
544100
ENDCHAR
STARTCHAR uni0907
ENCODING 2311
SWIDTH 478 0
DWIDTH 5 0
BBX 5 7 0 0
BITMAP
5640
0100
2600
5000
2600
4100
6600
ENDCHAR
STARTCHAR uni0908
ENCODING 2312
SWIDTH 478 0
DWIDTH 5 0
BBX 5 10 0 0
BITMAP
0640
0400
0400
5640
0100
2600
5000
2600
4100
6600
ENDCHAR
STARTCHAR uni0909
ENCODING 2313
SWIDTH 471 0
DWIDTH 5 0
BBX 5 7 0 0
BITMAP
5640
0200
0100
0A00
0100
4100
6500
ENDCHAR
STARTCHAR uni090A
ENCODING 2314
SWIDTH 661 0
DWIDTH 7 0
BBX 7 7 0 0
BITMAP
5654
0200
0100
0AA0
4214
4114
6560
ENDCHAR
STARTCHAR uni090B
ENCODING 2315
SWIDTH 753 0
DWIDTH 8 0
BBX 8 7 0 0
BITMAP
5655
0100
2614
5254
0254
0A20
2124
ENDCHAR
STARTCHAR uni090C
ENCODING 2316
SWIDTH 676 0
DWIDTH 7 0
BBX 7 10 0 -3
BITMAP
5564
0010
15A0
5220
5110
5010
2460
0080
0040
0054
ENDCHAR
STARTCHAR uni090D
ENCODING 2317
SWIDTH 521 0
DWIDTH 5 0
BBX 6 10 0 0
BITMAP
1140
1600
0000
A590
1040
1040
1200
1000
1000
1A00
ENDCHAR
STARTCHAR uni090E
ENCODING 2318
SWIDTH 522 0
DWIDTH 5 0
BBX 6 10 0 0
BITMAP
0400
0500
0140
A590
1040
1040
1200
1000
1000
1A00
ENDCHAR
STARTCHAR uni090F
ENCODING 2319
SWIDTH 526 0
DWIDTH 5 0
BBX 6 7 0 0
BITMAP
A590
1040
1040
1200
1000
1000
1A00
ENDCHAR
STARTCHAR uni0910
ENCODING 2320
SWIDTH 526 0
DWIDTH 5 0
BBX 6 10 0 0
BITMAP
0500
0200
0140
A590
1040
1040
1200
1000
1000
1A00
ENDCHAR
STARTCHAR uni0911
ENCODING 2321
SWIDTH 829 0
DWIDTH 8 0
BBX 9 9 0 0
BITMAP
004100
002900
186A40
044100
044100
0A8100
044100
044100
544100
ENDCHAR
STARTCHAR uni0912
ENCODING 2322
SWIDTH 828 0
DWIDTH 8 0
BBX 9 10 0 0
BITMAP
001000
002400
000500
186A40
044100
044100
0A8100
044100
044100
544100
ENDCHAR
STARTCHAR uni0913
ENCODING 2323
SWIDTH 829 0
DWIDTH 8 0
BBX 9 10 0 0
BITMAP
002000
000400
000400
186A40
044100
044100
0A8100
044100
044100
544100
ENDCHAR
STARTCHAR uni0914
ENCODING 2324
SWIDTH 829 0
DWIDTH 8 0
BBX 9 10 0 0
BITMAP
002100
000500
000500
186A40
044100
044100
0A8100
044100
044100
544100
ENDCHAR
STARTCHAR uni0915
ENCODING 2325
SWIDTH 725 0
DWIDTH 7 0
BBX 8 7 0 0
BITMAP
5655
1660
5204
4104
5204
1660
0100
ENDCHAR
STARTCHAR uni0916
ENCODING 2326
SWIDTH 696 0
DWIDTH 7 0
BBX 7 7 0 0
BITMAP
5964
0410
0550
6110
5220
2160
0410
ENDCHAR
STARTCHAR uni0917
ENCODING 2327
SWIDTH 494 0
DWIDTH 5 0
BBX 5 7 0 0
BITMAP
6640
1100
1100
2100
5100
0100
0100
ENDCHAR
STARTCHAR uni0918
ENCODING 2328
SWIDTH 559 0
DWIDTH 6 0
BBX 6 7 0 0
BITMAP
AA90
5080
2480
5080
5080
1580
0040
ENDCHAR
STARTCHAR uni0919
ENCODING 2329
SWIDTH 505 0
DWIDTH 5 0
BBX 5 7 0 0
BITMAP
5640
0100
2A00
5040
2600
0100
2600
ENDCHAR
STARTCHAR uni091A
ENCODING 2330
SWIDTH 563 0
DWIDTH 6 0
BBX 6 7 0 0
BITMAP
5590
0040
6840
2040
2080
1580
0040
ENDCHAR
STARTCHAR uni091B
ENCODING 2331
SWIDTH 581 0
DWIDTH 6 0
BBX 6 7 0 0
BITMAP
A590
5040
5180
2440
5040
5040
2540
ENDCHAR
STARTCHAR uni091C
ENCODING 2332
SWIDTH 547 0
DWIDTH 5 0
BBX 6 7 0 0
BITMAP
5590
0040
2A80
0840
0840
6440
0040
ENDCHAR
STARTCHAR uni091D
ENCODING 2333
SWIDTH 664 0
DWIDTH 7 0
BBX 7 7 0 0
BITMAP
5664
2910
5010
2AA0
0210
4110
6510
ENDCHAR
STARTCHAR uni091E
ENCODING 2334
SWIDTH 592 0
DWIDTH 6 0
BBX 6 7 0 0
BITMAP
5590
5440
0440
0A80
0440
5440
0040
ENDCHAR
STARTCHAR uni091F
ENCODING 2335
SWIDTH 485 0
DWIDTH 5 0
BBX 5 7 0 0
BITMAP
5640
0100
1A00
5000
4000
5040
2600
ENDCHAR
STARTCHAR uni0920
ENCODING 2336
SWIDTH 512 0
DWIDTH 5 0
BBX 5 7 0 0
BITMAP
5640
0100
1A00
5140
4040
5140
2600
ENDCHAR
STARTCHAR uni0921
ENCODING 2337
SWIDTH 475 0
DWIDTH 5 0
BBX 5 7 0 0
BITMAP
5640
0100
2A00
5000
2500
0100
2600
ENDCHAR
STARTCHAR uni0922
ENCODING 2338
SWIDTH 485 0
DWIDTH 5 0
BBX 5 7 0 0
BITMAP
5640
0100
1600
5000
4600
5440
2600
ENDCHAR
STARTCHAR uni0923
ENCODING 2339
SWIDTH 681 0
DWIDTH 7 0
BBX 7 7 0 0
BITMAP
A664
5110
5110
1210
1910
0010
0010
ENDCHAR
STARTCHAR uni0924
ENCODING 2340
SWIDTH 496 0
DWIDTH 5 0
BBX 5 7 0 0
BITMAP
5640
0100
2A00
5100
4100
4100
2100
ENDCHAR
STARTCHAR uni0925
ENCODING 2341
SWIDTH 593 0
DWIDTH 6 0
BBX 6 7 0 0
BITMAP
2850
1540
0540
6840
4080
1580
0040
ENDCHAR
STARTCHAR uni0926
ENCODING 2342
SWIDTH 489 0
DWIDTH 5 0
BBX 5 7 0 0
BITMAP
5640
0100
2A00
5000
5100
2A00
0100
ENDCHAR
STARTCHAR uni0927
ENCODING 2343
SWIDTH 560 0
DWIDTH 6 0
BBX 6 7 0 0
BITMAP
A190
5040
5040
2440
5080
2980
0040
ENDCHAR
STARTCHAR uni0928
ENCODING 2344
SWIDTH 473 0
DWIDTH 5 0
BBX 5 7 0 0
BITMAP
5640
0100
0100
6600
4100
0100
0100
ENDCHAR
STARTCHAR uni0928093C
ENCODING 2345
SWIDTH 473 0
DWIDTH 5 0
BBX 5 7 0 0
BITMAP
5640
0100
0100
5600
4100
0100
1100
ENDCHAR
STARTCHAR uni092A
ENCODING 2346
SWIDTH 503 0
DWIDTH 5 0
BBX 5 7 0 0
BITMAP
A680
5100
5100
1100
1A00
0100
0100
ENDCHAR
STARTCHAR uni092B
ENCODING 2347
SWIDTH 739 0
DWIDTH 7 0
BBX 8 7 0 0
BITMAP
A655
5164
5104
1204
1604
0124
0100
ENDCHAR
STARTCHAR uni092C
ENCODING 2348
SWIDTH 491 0
DWIDTH 5 0
BBX 5 7 0 0
BITMAP
5640
2500
6100
4500
5200
1600
0100
ENDCHAR
STARTCHAR uni092D
ENCODING 2349
SWIDTH 491 0
DWIDTH 5 0
BBX 5 7 0 0
BITMAP
8640
5100
5100
6600
5100
0100
0100
ENDCHAR
STARTCHAR uni092E
ENCODING 2350
SWIDTH 490 0
DWIDTH 5 0
BBX 5 7 0 0
BITMAP
A640
5100
5100
6600
5100
0100
0100
ENDCHAR
STARTCHAR uni092F
ENCODING 2351
SWIDTH 564 0
DWIDTH 6 0
BBX 6 7 0 0
BITMAP
6990
0440
6440
4040
5080
1580
0040
ENDCHAR
STARTCHAR uni0930
ENCODING 2352
SWIDTH 337 0
DWIDTH 3 0
BBX 4 7 0 0
BITMAP
59
04
04
60
50
20
04
ENDCHAR
STARTCHAR uni0930093C
ENCODING 2353
SWIDTH 347 0
DWIDTH 3 0
BBX 4 8 0 -1
BITMAP
59
04
08
64
10
10
04
40
ENDCHAR
STARTCHAR uni0932
ENCODING 2354
SWIDTH 676 0
DWIDTH 7 0
BBX 7 7 0 0
BITMAP
5564
0010
15A0
5220
5110
5010
2410
ENDCHAR
STARTCHAR uni0933
ENCODING 2355
SWIDTH 672 0
DWIDTH 7 0
BBX 7 7 0 0
BITMAP
5594
0040
1990
5210
4110
4210
2A50
ENDCHAR
STARTCHAR uni0933093C
ENCODING 2356
SWIDTH 672 0
DWIDTH 7 0
BBX 7 8 0 -1
BITMAP
5594
0040
1990
5210
4110
4210
2A50
0400
ENDCHAR
STARTCHAR uni0935
ENCODING 2357
SWIDTH 484 0
DWIDTH 5 0
BBX 5 7 0 0
BITMAP
5640
1500
5100
4100
5200
1600
0100
ENDCHAR
STARTCHAR uni0936
ENCODING 2358
SWIDTH 614 0
DWIDTH 6 0
BBX 6 7 0 0
BITMAP
2860
5150
0550
6850
1050
1050
0450
ENDCHAR
STARTCHAR uni0937
ENCODING 2359
SWIDTH 505 0
DWIDTH 5 0
BBX 5 7 0 0
BITMAP
A680
6500
5500
1200
1A00
0100
0100
ENDCHAR
STARTCHAR uni0938
ENCODING 2360
SWIDTH 575 0
DWIDTH 6 0
BBX 6 7 0 0
BITMAP
6990
0480
1480
6A80
5080
2080
1440
ENDCHAR
STARTCHAR uni0939
ENCODING 2361
SWIDTH 481 0
DWIDTH 5 0
BBX 5 8 0 -1
BITMAP
5640
1600
1000
1000
2500
5100
5000
1500
ENDCHAR
STARTCHAR uni093C
ENCODING 2364
SWIDTH 0 0
DWIDTH 0 0
BBX 1 1 -2 -1
BITMAP
40
ENDCHAR
STARTCHAR uni093D
ENCODING 2365
SWIDTH 529 0
DWIDTH 5 0
BBX 4 7 1 0
BITMAP
54
80
50
18
01
41
58
ENDCHAR
STARTCHAR uni093E
ENCODING 2366
SWIDTH 231 0
DWIDTH 2 0
BBX 3 7 0 0
BITMAP
A4
10
10
10
10
10
10
ENDCHAR
STARTCHAR uni093F
ENCODING 2367
SWIDTH 231 0
DWIDTH 2 0
BBX 7 10 0 0
BITMAP
2A60
1014
1000
A400
1000
1000
1000
1000
1000
1000
ENDCHAR
STARTCHAR uni0940
ENCODING 2368
SWIDTH 231 0
DWIDTH 2 0
BBX 5 10 -2 0
BITMAP
2800
4100
0100
0A40
0100
0100
0100
0100
0100
0100
ENDCHAR
STARTCHAR uni0941
ENCODING 2369
SWIDTH 0 0
DWIDTH 0 0
BBX 5 3 -4 -3
BITMAP
0100
5140
1A00
ENDCHAR
STARTCHAR uni0942
ENCODING 2370
SWIDTH 0 0
DWIDTH 0 0
BBX 4 3 -3 -3
BITMAP
54
41
51
ENDCHAR
STARTCHAR uni0943
ENCODING 2371
SWIDTH 0 0
DWIDTH 0 0
BBX 3 3 -3 -3
BITMAP
50
40
68
ENDCHAR
STARTCHAR uni0945
ENCODING 2373
SWIDTH 0 0
DWIDTH 0 0
BBX 4 2 -3 7
BITMAP
41
58
ENDCHAR
STARTCHAR uni0946
ENCODING 2374
SWIDTH 0 0
DWIDTH 0 0
BBX 3 3 -4 7
BITMAP
40
20
08
ENDCHAR
STARTCHAR uni0947
ENCODING 2375
SWIDTH 0 0
DWIDTH 0 0
BBX 2 3 -3 7
BITMAP
80
50
10
ENDCHAR
STARTCHAR uni0948
ENCODING 2376
SWIDTH 0 0
DWIDTH 0 0
BBX 2 3 -3 7
BITMAP
90
60
20
ENDCHAR
STARTCHAR uni0949
ENCODING 2377
SWIDTH 231 0
DWIDTH 2 0
BBX 4 9 -1 0
BITMAP
41
15
29
04
04
04
04
04
04
ENDCHAR
STARTCHAR uni094A
ENCODING 2378
SWIDTH 231 0
DWIDTH 2 0
BBX 4 10 -1 0
BITMAP
40
90
14
29
04
04
04
04
04
04
ENDCHAR
STARTCHAR uni094B
ENCODING 2379
SWIDTH 231 0
DWIDTH 2 0
BBX 4 10 -1 0
BITMAP
40
10
10
29
04
04
04
04
04
04
ENDCHAR
STARTCHAR uni094C
ENCODING 2380
SWIDTH 231 0
DWIDTH 2 0
BBX 4 10 -1 0
BITMAP
44
14
14
29
04
04
04
04
04
04
ENDCHAR
STARTCHAR uni094D
ENCODING 2381
SWIDTH 0 0
DWIDTH 0 0
BBX 2 2 -2 -2
BITMAP
50
20
ENDCHAR
STARTCHAR uni0950
ENCODING 2384
SWIDTH 847 0
DWIDTH 8 0
BBX 8 9 0 0
BITMAP
0010
0001
1914
0100
0118
1901
0251
4211
2929
ENDCHAR
STARTCHAR uni0951
ENCODING 2385
SWIDTH 0 0
DWIDTH 0 0
BBX 1 2 -2 8
BITMAP
40
40
ENDCHAR
STARTCHAR uni0952
ENCODING 2386
SWIDTH 0 0
DWIDTH 0 0
BBX 3 1 -4 -1
BITMAP
54
ENDCHAR
STARTCHAR uni0953
ENCODING 2387
SWIDTH 0 0
DWIDTH 0 0
BBX 2 2 -3 8
BITMAP
50
20
ENDCHAR
STARTCHAR uni0954
ENCODING 2388
SWIDTH 0 0
DWIDTH 0 0
BBX 2 2 -2 8
BITMAP
10
50
ENDCHAR
STARTCHAR uni0915093C
ENCODING 2392
SWIDTH 725 0
DWIDTH 7 0
BBX 8 8 0 -1
BITMAP
5655
1660
5204
4104
5204
1660
0100
1000
ENDCHAR
STARTCHAR uni0916093C
ENCODING 2393
SWIDTH 696 0
DWIDTH 7 0
BBX 7 8 0 -1
BITMAP
5964
0410
0550
6110
5220
2160
0410
4000
ENDCHAR
STARTCHAR uni0917093C
ENCODING 2394
SWIDTH 494 0
DWIDTH 5 0
BBX 5 8 0 -1
BITMAP
6640
1100
1100
2100
5100
0100
0100
1000
ENDCHAR
STARTCHAR uni091C093C
ENCODING 2395
SWIDTH 547 0
DWIDTH 5 0
BBX 6 8 0 -1
BITMAP
5590
0040
2A80
0840
0840
6440
0040
1000
ENDCHAR
STARTCHAR uni0921093C
ENCODING 2396
SWIDTH 475 0
DWIDTH 5 0
BBX 5 9 0 -2
BITMAP
5640
0100
2A00
5000
2500
0100
2600
0000
0400
ENDCHAR
STARTCHAR uni0922093C
ENCODING 2397
SWIDTH 485 0
DWIDTH 5 0
BBX 5 9 0 -2
BITMAP
5640
0100
1600
5000
4600
5440
2600
0000
0400
ENDCHAR
STARTCHAR uni092B093C
ENCODING 2398
SWIDTH 739 0
DWIDTH 7 0
BBX 8 8 0 -1
BITMAP
A655
5164
5104
1204
1604
0124
0100
1000
ENDCHAR
STARTCHAR uni092F093C
ENCODING 2399
SWIDTH 564 0
DWIDTH 6 0
BBX 6 8 0 -1
BITMAP
6990
0440
6440
4040
5080
1580
0040
1000
ENDCHAR
STARTCHAR uni0960
ENCODING 2400
SWIDTH 753 0
DWIDTH 8 0
BBX 8 9 0 -2
BITMAP
5655
0100
1614
5254
4254
0A10
2124
0020
0014
ENDCHAR
STARTCHAR uni0961
ENCODING 2401
SWIDTH 676 0
DWIDTH 7 0
BBX 7 10 0 -3
BITMAP
5564
0010
19A0
5220
5110
5050
2480
0090
0040
0090
ENDCHAR
STARTCHAR uni0964
ENCODING 2404
SWIDTH 286 0
DWIDTH 3 0
BBX 1 7 1 0
BITMAP
40
40
40
40
40
40
40
ENDCHAR
STARTCHAR uni0965
ENCODING 2405
SWIDTH 518 0
DWIDTH 5 0
BBX 4 7 1 0
BITMAP
45
45
45
45
45
45
45
ENDCHAR
STARTCHAR uni0966
ENCODING 2406
SWIDTH 519 0
DWIDTH 5 0
BBX 5 7 0 0
BITMAP
2A00
5040
5040
5040
5040
5040
2600
ENDCHAR
STARTCHAR uni0967
ENCODING 2407
SWIDTH 288 0
DWIDTH 3 0
BBX 2 7 0 0
BITMAP
60
10
10
10
10
10
10
ENDCHAR
STARTCHAR uni0968
ENCODING 2408
SWIDTH 453 0
DWIDTH 5 0
BBX 4 7 0 0
BITMAP
66
41
01
05
14
50
65
ENDCHAR
STARTCHAR uni0969
ENCODING 2409
SWIDTH 489 0
DWIDTH 5 0
BBX 5 7 0 0
BITMAP
2600
4100
0100
0600
0100
4140
2600
ENDCHAR
STARTCHAR uni096A
ENCODING 2410
SWIDTH 453 0
DWIDTH 5 0
BBX 5 7 0 0
BITMAP
0600
0900
1100
1100
4100
9640
0100
ENDCHAR
STARTCHAR uni096B
ENCODING 2411
SWIDTH 480 0
DWIDTH 5 0
BBX 5 7 0 0
BITMAP
6A00
5000
6500
0140
0140
5140
2600
ENDCHAR
STARTCHAR uni096C
ENCODING 2412
SWIDTH 495 0
DWIDTH 5 0
BBX 5 7 0 0
BITMAP
2A00
5000
6600
5040
5040
5040
2600
ENDCHAR
STARTCHAR uni096D
ENCODING 2413
SWIDTH 380 0
DWIDTH 4 0
BBX 4 7 0 0
BITMAP
6A
05
08
08
14
20
10
ENDCHAR
STARTCHAR uni096E
ENCODING 2414
SWIDTH 523 0
DWIDTH 5 0
BBX 5 7 0 0
BITMAP
2A40
5040
5040
2600
5040
5040
2640
ENDCHAR
STARTCHAR uni096F
ENCODING 2415
SWIDTH 493 0
DWIDTH 5 0
BBX 5 7 0 0
BITMAP
6A00
4140
4140
2640
0140
0140
1600
ENDCHAR
STARTCHAR uni0970
ENCODING 2416
SWIDTH 391 0
DWIDTH 4 0
BBX 4 4 0 1
BITMAP
14
41
41
14
ENDCHAR
STARTCHAR uni0972
ENCODING 2418
SWIDTH 598 0
DWIDTH 6 0
BBX 7 9 0 0
BITMAP
0104
0150
1860
0440
0440
0A80
0440
0440
5440
ENDCHAR
STARTCHAR Wgrave
ENCODING 7808
SWIDTH 795 0
DWIDTH 8 0
BBX 8 8 0 0
BITMAP
0100
0000
8142
5145
1144
2458
1414
1424
ENDCHAR
STARTCHAR wgrave
ENCODING 7809
SWIDTH 682 0
DWIDTH 7 0
BBX 7 7 0 0
BITMAP
0400
0000
8204
4614
1450
1450
1450
ENDCHAR
STARTCHAR Wacute
ENCODING 7810
SWIDTH 795 0
DWIDTH 8 0
BBX 8 8 0 0
BITMAP
0040
0000
8142
5145
1144
2458
1414
1424
ENDCHAR
STARTCHAR wacute
ENCODING 7811
SWIDTH 682 0
DWIDTH 7 0
BBX 7 7 0 0
BITMAP
0140
0000
8204
4614
1450
1450
1450
ENDCHAR
STARTCHAR Wdieresis
ENCODING 7812
SWIDTH 795 0
DWIDTH 8 0
BBX 8 8 0 0
BITMAP
0140
0000
8142
5145
1144
2458
1414
1424
ENDCHAR
STARTCHAR wdieresis
ENCODING 7813
SWIDTH 682 0
DWIDTH 7 0
BBX 7 7 0 0
BITMAP
0440
0000
8204
4614
1450
1450
1450
ENDCHAR
STARTCHAR uni1E9E
ENCODING 7838
SWIDTH 542 0
DWIDTH 5 0
BBX 5 6 0 0
BITMAP
2580
5100
5240
5080
5080
5540
ENDCHAR
STARTCHAR Ygrave
ENCODING 7922
SWIDTH 493 0
DWIDTH 5 0
BBX 5 8 0 0
BITMAP
1400
0000
4040
1200
1500
0800
0800
0400
ENDCHAR
STARTCHAR ygrave
ENCODING 7923
SWIDTH 459 0
DWIDTH 5 0
BBX 4 8 0 -1
BITMAP
14
00
41
52
21
18
08
60
ENDCHAR
STARTCHAR uni200B
ENCODING 8203
SWIDTH 0 0
DWIDTH 0 0
BBX 1 1 0 0
BITMAP
00
ENDCHAR
STARTCHAR uni200C
ENCODING 8204
SWIDTH 0 0
DWIDTH 0 0
BBX 2 10 -1 -2
BITMAP
50
50
50
50
50
50
50
50
50
50
ENDCHAR
STARTCHAR uni200D
ENCODING 8205
SWIDTH 0 0
DWIDTH 0 0
BBX 2 10 -1 -2
BITMAP
A0
A0
50
50
50
50
50
50
50
50
ENDCHAR
STARTCHAR endash
ENCODING 8211
SWIDTH 408 0
DWIDTH 4 0
BBX 4 1 0 3
BITMAP
55
ENDCHAR
STARTCHAR emdash
ENCODING 8212
SWIDTH 537 0
DWIDTH 5 0
BBX 5 1 0 3
BITMAP
5540
ENDCHAR
STARTCHAR quoteleft
ENCODING 8216
SWIDTH 179 0
DWIDTH 2 0
BBX 1 2 0 4
BITMAP
40
40
ENDCHAR
STARTCHAR quoteright
ENCODING 8217
SWIDTH 179 0
DWIDTH 2 0
BBX 1 2 0 4
BITMAP
40
40
ENDCHAR
STARTCHAR quotesinglbase
ENCODING 8218
SWIDTH 187 0
DWIDTH 2 0
BBX 2 2 0 -1
BITMAP
50
40
ENDCHAR
STARTCHAR quotedblleft
ENCODING 8220
SWIDTH 329 0
DWIDTH 3 0
BBX 3 2 0 4
BITMAP
44
48
ENDCHAR
STARTCHAR quotedblright
ENCODING 8221
SWIDTH 329 0
DWIDTH 3 0
BBX 3 2 0 4
BITMAP
48
44
ENDCHAR
STARTCHAR quotedblbase
ENCODING 8222
SWIDTH 337 0
DWIDTH 3 0
BBX 3 2 0 -1
BITMAP
58
44
ENDCHAR
STARTCHAR dagger
ENCODING 8224
SWIDTH 427 0
DWIDTH 4 0
BBX 4 6 0 0
BITMAP
04
59
04
04
04
04
ENDCHAR
STARTCHAR daggerdbl
ENCODING 8225
SWIDTH 427 0
DWIDTH 4 0
BBX 4 6 0 0
BITMAP
04
59
04
04
59
04
ENDCHAR
STARTCHAR bullet
ENCODING 8226
SWIDTH 273 0
DWIDTH 3 0
BBX 1 2 1 2
BITMAP
40
80
ENDCHAR
STARTCHAR ellipsis
ENCODING 8230
SWIDTH 591 0
DWIDTH 6 0
BBX 6 1 0 0
BITMAP
5550
ENDCHAR
STARTCHAR perthousand
ENCODING 8240
SWIDTH 1027 0
DWIDTH 10 0
BBX 10 6 0 0
BITMAP
584000
444000
150000
015550
044510
045550
ENDCHAR
STARTCHAR guilsinglleft
ENCODING 8249
SWIDTH 290 0
DWIDTH 3 0
BBX 2 3 0 1
BITMAP
10
50
10
ENDCHAR
STARTCHAR guilsinglright
ENCODING 8250
SWIDTH 290 0
DWIDTH 3 0
BBX 1 3 1 1
BITMAP
40
40
40
ENDCHAR
STARTCHAR fraction
ENCODING 8260
SWIDTH 117 0
DWIDTH 1 0
BBX 5 6 -2 0
BITMAP
0040
0100
0500
0400
1000
4000
ENDCHAR
STARTCHAR Euro
ENCODING 8364
SWIDTH 523 0
DWIDTH 5 0
BBX 5 6 0 0
BITMAP
1640
2040
6400
6400
2040
1640
ENDCHAR
STARTCHAR uni20B9
ENCODING 8377
SWIDTH 414 0
DWIDTH 4 0
BBX 4 7 0 0
BITMAP
69
59
04
64
10
10
08
ENDCHAR
STARTCHAR trademark
ENCODING 8482
SWIDTH 591 0
DWIDTH 6 0
BBX 5 3 1 4
BITMAP
9940
4940
4440
ENDCHAR
STARTCHAR uni2126
ENCODING 8486
SWIDTH 629 0
DWIDTH 6 0
BBX 6 7 0 0
BITMAP
2A80
1050
1050
1050
1050
1050
6590
ENDCHAR
STARTCHAR partialdiff
ENCODING 8706
SWIDTH 481 0
DWIDTH 5 0
BBX 5 8 0 0
BITMAP
1400
0600
0100
2640
5140
4140
4140
2A00
ENDCHAR
STARTCHAR uni2206
ENCODING 8710
SWIDTH 594 0
DWIDTH 6 0
BBX 6 7 0 0
BITMAP
0500
0A00
1500
1040
2080
5040
AA90
ENDCHAR
STARTCHAR minus
ENCODING 8722
SWIDTH 523 0
DWIDTH 5 0
BBX 4 1 1 3
BITMAP
A9
ENDCHAR
STARTCHAR approxequal
ENCODING 8776
SWIDTH 523 0
DWIDTH 5 0
BBX 3 3 1 2
BITMAP
54
00
54
ENDCHAR
STARTCHAR notequal
ENCODING 8800
SWIDTH 523 0
DWIDTH 5 0
BBX 4 5 1 1
BITMAP
04
69
10
65
50
ENDCHAR
STARTCHAR lessequal
ENCODING 8804
SWIDTH 523 0
DWIDTH 5 0
BBX 4 4 1 1
BITMAP
54
54
05
55
ENDCHAR
STARTCHAR greaterequal
ENCODING 8805
SWIDTH 523 0
DWIDTH 5 0
BBX 4 4 1 1
BITMAP
54
55
40
55
ENDCHAR
STARTCHAR uni25CC
ENCODING 9676
SWIDTH 701 0
DWIDTH 7 0
BBX 7 7 0 0
BITMAP
0280
1420
2000
0014
5014
2010
0940
ENDCHAR
STARTCHAR commaaccent
ENCODING 63171
SWIDTH 0 0
DWIDTH 0 0
BBX 1 2 2 -3
BITMAP
40
40
ENDCHAR
STARTCHAR .notdef
ENCODING -1
SWIDTH 600 0
DWIDTH 6 0
BBX 4 7 1 0
BITMAP
AA
82
82
82
82
82
AA
ENDCHAR
STARTCHAR .null
ENCODING -1
SWIDTH 0 0
DWIDTH 0 0
BBX 1 1 0 0
BITMAP
00
ENDCHAR
STARTCHAR nonmarkingreturn
ENCODING -1
SWIDTH 333 0
DWIDTH 3 0
BBX 1 1 0 0
BITMAP
00
ENDCHAR
STARTCHAR uni0915094D
ENCODING -1
SWIDTH 519 0
DWIDTH 5 0
BBX 7 7 0 0
BITMAP
5654
1660
5200
4100
5200
1600
0100
ENDCHAR
STARTCHAR uni0916094D
ENCODING -1
SWIDTH 468 0
DWIDTH 5 0
BBX 6 7 0 0
BITMAP
5950
0400
0540
6100
5210
2150
0400
ENDCHAR
STARTCHAR uni0917094D
ENCODING -1
SWIDTH 264 0
DWIDTH 3 0
BBX 3 5 0 2
BITMAP
64
10
10
20
50
ENDCHAR
STARTCHAR uni0918094D
ENCODING -1
SWIDTH 321 0
DWIDTH 3 0
BBX 5 6 0 1
BITMAP
AA40
5000
2400
5000
5000
1500
ENDCHAR
STARTCHAR uni0919094D
ENCODING -1
SWIDTH 505 0
DWIDTH 5 0
BBX 5 10 0 -3
BITMAP
5640
0100
2A00
5040
2600
0100
2600
0400
0400
0100
ENDCHAR
STARTCHAR uni091A094D
ENCODING -1
SWIDTH 330 0
DWIDTH 3 0
BBX 5 6 0 1
BITMAP
5540
0000
6800
2000
2000
1500
ENDCHAR
STARTCHAR uni091B094D
ENCODING -1
SWIDTH 581 0
DWIDTH 6 0
BBX 6 7 0 0
BITMAP
A550
5000
5140
2440
5040
5040
2580
ENDCHAR
STARTCHAR uni091C094D
ENCODING -1
SWIDTH 309 0
DWIDTH 3 0
BBX 4 6 0 1
BITMAP
55
00
2A
08
08
64
ENDCHAR
STARTCHAR uni091D094D
ENCODING -1
SWIDTH 432 0
DWIDTH 4 0
BBX 5 8 0 -1
BITMAP
5640
0100
2900
5000
2A40
4200
6900
4000
ENDCHAR
STARTCHAR uni091E094D
ENCODING -1
SWIDTH 359 0
DWIDTH 4 0
BBX 5 6 0 1
BITMAP
5540
5400
0400
0A40
0400
5400
ENDCHAR
STARTCHAR uni091F094D
ENCODING -1
SWIDTH 485 0
DWIDTH 5 0
BBX 5 10 0 -3
BITMAP
5640
0100
1A00
5000
4000
5040
2600
0000
0500
0100
ENDCHAR
STARTCHAR uni0920094D
ENCODING -1
SWIDTH 512 0
DWIDTH 5 0
BBX 5 10 0 -3
BITMAP
5640
0100
1A00
5140
4040
5140
2600
0000
0400
0100
ENDCHAR
STARTCHAR uni0921094D
ENCODING -1
SWIDTH 475 0
DWIDTH 5 0
BBX 5 10 0 -3
BITMAP
5640
0100
2A00
5000
2500
0100
2600
0400
0500
0100
ENDCHAR
STARTCHAR uni0922094D
ENCODING -1
SWIDTH 485 0
DWIDTH 5 0
BBX 5 10 0 -3
BITMAP
5640
0100
1600
5000
4600
5440
2600
0000
0500
0100
ENDCHAR
STARTCHAR uni0923094D
ENCODING -1
SWIDTH 454 0
DWIDTH 5 0
BBX 5 5 0 2
BITMAP
A640
5100
5100
1200
1900
ENDCHAR
STARTCHAR uni0924094D
ENCODING -1
SWIDTH 263 0
DWIDTH 3 0
BBX 4 7 0 0
BITMAP
55
00
29
50
40
40
20
ENDCHAR
STARTCHAR uni0925094D
ENCODING -1
SWIDTH 359 0
DWIDTH 4 0
BBX 5 6 0 1
BITMAP
2800
1500
0500
6800
4000
1540
ENDCHAR
STARTCHAR uni0926094D
ENCODING -1
SWIDTH 489 0
DWIDTH 5 0
BBX 5 9 0 -2
BITMAP
5640
0100
2A00
5000
5100
2A00
0100
0400
0100
ENDCHAR
STARTCHAR uni0927094D
ENCODING -1
SWIDTH 321 0
DWIDTH 3 0
BBX 5 6 0 1
BITMAP
A540
5000
2400
5000
5000
1500
ENDCHAR
STARTCHAR uni0928094D
ENCODING -1
SWIDTH 233 0
DWIDTH 2 0
BBX 3 5 0 2
BITMAP
54
00
00
54
40
ENDCHAR
STARTCHAR uni092A094D
ENCODING -1
SWIDTH 269 0
DWIDTH 3 0
BBX 4 5 0 2
BITMAP
A5
50
50
10
19
ENDCHAR
STARTCHAR uni092B094D
ENCODING -1
SWIDTH 530 0
DWIDTH 5 0
BBX 7 7 0 0
BITMAP
A654
5164
5104
1200
1600
0100
0100
ENDCHAR
STARTCHAR uni092C094D
ENCODING -1
SWIDTH 265 0
DWIDTH 3 0
BBX 4 6 0 1
BITMAP
55
24
60
44
52
15
ENDCHAR
STARTCHAR uni092D094D
ENCODING -1
SWIDTH 261 0
DWIDTH 3 0
BBX 4 5 0 2
BITMAP
85
50
50
65
50
ENDCHAR
STARTCHAR uni092E094D
ENCODING -1
SWIDTH 261 0
DWIDTH 3 0
BBX 4 5 0 2
BITMAP
A5
50
50
65
50
ENDCHAR
STARTCHAR uni092F094D
ENCODING -1
SWIDTH 323 0
DWIDTH 3 0
BBX 4 6 0 1
BITMAP
69
04
64
40
50
15
ENDCHAR
STARTCHAR uni0930094D
ENCODING -1
SWIDTH 337 0
DWIDTH 3 0
BBX 4 9 0 -2
BITMAP
59
04
04
60
50
20
04
10
04
ENDCHAR
STARTCHAR uni0932094D
ENCODING -1
SWIDTH 431 0
DWIDTH 4 0
BBX 6 7 0 0
BITMAP
5550
0000
1550
5200
5100
5000
2400
ENDCHAR
STARTCHAR uni0933094D
ENCODING -1
SWIDTH 677 0
DWIDTH 7 0
BBX 7 7 0 0
BITMAP
5554
0000
1950
5210
4110
4210
2A50
ENDCHAR
STARTCHAR uni0935094D
ENCODING -1
SWIDTH 255 0
DWIDTH 3 0
BBX 4 6 0 1
BITMAP
55
14
50
40
51
15
ENDCHAR
STARTCHAR uni0936094D
ENCODING -1
SWIDTH 378 0
DWIDTH 4 0
BBX 4 7 0 0
BITMAP
28
51
05
68
10
10
04
ENDCHAR
STARTCHAR uni0937094D
ENCODING -1
SWIDTH 282 0
DWIDTH 3 0
BBX 4 5 0 2
BITMAP
A5
64
54
12
19
ENDCHAR
STARTCHAR uni0938094D
ENCODING -1
SWIDTH 338 0
DWIDTH 3 0
BBX 5 7 0 0
BITMAP
6940
0400
1400
6A40
5000
2000
1400
ENDCHAR
STARTCHAR uni0939094D
ENCODING -1
SWIDTH 457 0
DWIDTH 5 0
BBX 6 8 0 -1
BITMAP
5640
1600
1000
1000
2550
5000
5000
1500
ENDCHAR
STARTCHAR uni0915093C094D
ENCODING -1
SWIDTH 519 0
DWIDTH 5 0
BBX 7 8 0 -1
BITMAP
5654
1660
5200
4100
5200
1600
0100
1000
ENDCHAR
STARTCHAR uni0916093C094D
ENCODING -1
SWIDTH 463 0
DWIDTH 5 0
BBX 6 8 0 -1
BITMAP
5950
0400
0540
6100
5210
2150
0400
4000
ENDCHAR
STARTCHAR uni0917093C094D
ENCODING -1
SWIDTH 264 0
DWIDTH 3 0
BBX 3 7 0 0
BITMAP
64
10
10
20
50
00
10
ENDCHAR
STARTCHAR uni091C093C094D
ENCODING -1
SWIDTH 314 0
DWIDTH 3 0
BBX 4 8 0 -1
BITMAP
55
00
2A
08
08
64
00
10
ENDCHAR
STARTCHAR uni0928093C094D
ENCODING -1
SWIDTH 241 0
DWIDTH 2 0
BBX 4 7 0 0
BITMAP
55
00
00
55
40
00
10
ENDCHAR
STARTCHAR uni092B093C094D
ENCODING -1
SWIDTH 530 0
DWIDTH 5 0
BBX 7 8 0 -1
BITMAP
A654
5164
5104
1200
1600
0100
0100
1000
ENDCHAR
STARTCHAR uni092F093C094D
ENCODING -1
SWIDTH 325 0
DWIDTH 3 0
BBX 4 8 0 -1
BITMAP
69
04
64
40
50
15
00
10
ENDCHAR
STARTCHAR uni09080902
ENCODING -1
SWIDTH 478 0
DWIDTH 5 0
BBX 5 10 0 0
BITMAP
0640
0400
0400
5640
0100
2600
5000
2600
4100
6600
ENDCHAR
STARTCHAR uni09300941
ENCODING -1
SWIDTH 533 0
DWIDTH 5 0
BBX 6 7 0 0
BITMAP
5950
0400
0940
6440
5040
2100
0400
ENDCHAR
STARTCHAR uni09300942
ENCODING -1
SWIDTH 645 0
DWIDTH 6 0
BBX 7 7 0 0
BITMAP
5954
0590
0510
6110
5050
1040
0400
ENDCHAR
STARTCHAR uni09390941
ENCODING -1
SWIDTH 495 0
DWIDTH 5 0
BBX 5 10 0 -3
BITMAP
5640
0100
2600
1000
2500
5100
5000
1500
4140
1A00
ENDCHAR
STARTCHAR uni09390942
ENCODING -1
SWIDTH 492 0
DWIDTH 5 0
BBX 5 10 0 -3
BITMAP
5640
0100
2600
1000
2500
5100
2400
1100
1140
2440
ENDCHAR
STARTCHAR uni09260943
ENCODING -1
SWIDTH 390 0
DWIDTH 4 0
BBX 4 7 0 0
BITMAP
5A
04
28
50
24
50
25
ENDCHAR
STARTCHAR uni09390943
ENCODING -1
SWIDTH 519 0
DWIDTH 5 0
BBX 5 9 0 -2
BITMAP
5640
0100
2600
5000
2A40
5440
4540
5000
1500
ENDCHAR
STARTCHAR uni094D0930
ENCODING -1
SWIDTH 0 0
DWIDTH 0 0
BBX 3 2 -4 -2
BITMAP
20
88
ENDCHAR
STARTCHAR uni0930094D.1
ENCODING -1
SWIDTH 192 0
DWIDTH 2 0
BBX 4 3 -1 4
BITMAP
14
00
69
ENDCHAR
STARTCHAR uni0930094D.2
ENCODING -1
SWIDTH 0 0
DWIDTH 0 0
BBX 2 3 -2 7
BITMAP
60
40
40
ENDCHAR
STARTCHAR uni0930094D0902
ENCODING -1
SWIDTH 0 0
DWIDTH 0 0
BBX 2 3 -2 7
BITMAP
60
50
40
ENDCHAR
STARTCHAR uni093E0930094D
ENCODING -1
SWIDTH 231 0
DWIDTH 2 0
BBX 3 10 0 0
BITMAP
24
10
10
A4
10
10
10
10
10
10
ENDCHAR
STARTCHAR uni093E0930094D0902
ENCODING -1
SWIDTH 231 0
DWIDTH 2 0
BBX 3 10 0 0
BITMAP
24
14
10
A4
10
10
10
10
10
10
ENDCHAR
STARTCHAR uni0930094D.aMatraI
ENCODING -1
SWIDTH 0 0
DWIDTH 0 0
BBX 2 3 -1 7
BITMAP
10
40
40
ENDCHAR
STARTCHAR uni0902.aMatraI
ENCODING -1
SWIDTH 0 0
DWIDTH 0 0
BBX 1 1 0 8
BITMAP
40
ENDCHAR
STARTCHAR uni0930094D0902.aMatraI
ENCODING -1
SWIDTH 0 0
DWIDTH 0 0
BBX 2 3 -1 7
BITMAP
10
40
50
ENDCHAR
STARTCHAR uni09400930094D
ENCODING -1
SWIDTH 231 0
DWIDTH 2 0
BBX 5 10 -2 0
BITMAP
2A40
4100
0100
0A40
0100
0100
0100
0100
0100
0100
ENDCHAR
STARTCHAR uni09400902
ENCODING -1
SWIDTH 231 0
DWIDTH 2 0
BBX 5 10 -2 0
BITMAP
2800
4140
0100
0A40
0100
0100
0100
0100
0100
0100
ENDCHAR
STARTCHAR uni09400930094D0902
ENCODING -1
SWIDTH 231 0
DWIDTH 2 0
BBX 5 10 -2 0
BITMAP
2A40
4140
0100
0A40
0100
0100
0100
0100
0100
0100
ENDCHAR
STARTCHAR uni0940.aLong
ENCODING -1
SWIDTH 231 0
DWIDTH 2 0
BBX 7 10 -4 0
BITMAP
6A80
4010
0010
00A4
0010
0010
0010
0010
0010
0010
ENDCHAR
STARTCHAR uni09400930094D.aLong
ENCODING -1
SWIDTH 231 0
DWIDTH 2 0
BBX 7 10 -4 0
BITMAP
6AA4
4010
0010
00A4
0010
0010
0010
0010
0010
0010
ENDCHAR
STARTCHAR uni09400902.aLong
ENCODING -1
SWIDTH 231 0
DWIDTH 2 0
BBX 7 10 -4 0
BITMAP
6A80
4014
0010
00A4
0010
0010
0010
0010
0010
0010
ENDCHAR
STARTCHAR uni09400930094D0902.aLong
ENCODING -1
SWIDTH 231 0
DWIDTH 2 0
BBX 7 10 -4 0
BITMAP
5AA4
4014
0010
00A4
0010
0010
0010
0010
0010
0010
ENDCHAR
STARTCHAR uni09470930094D
ENCODING -1
SWIDTH 0 0
DWIDTH 0 0
BBX 3 3 -3 7
BITMAP
88
60
20
ENDCHAR
STARTCHAR uni09470902
ENCODING -1
SWIDTH 0 0
DWIDTH 0 0
BBX 3 3 -3 7
BITMAP
80
54
10
ENDCHAR
STARTCHAR uni09470901
ENCODING -1
SWIDTH 0 0
DWIDTH 0 0
BBX 5 3 -3 7
BITMAP
8100
5440
1940
ENDCHAR
STARTCHAR uni09470930094D0902
ENCODING -1
SWIDTH 0 0
DWIDTH 0 0
BBX 3 3 -3 7
BITMAP
98
64
20
ENDCHAR
STARTCHAR uni09480930094D
ENCODING -1
SWIDTH 0 0
DWIDTH 0 0
BBX 3 3 -3 7
BITMAP
68
60
20
ENDCHAR
STARTCHAR uni09480902
ENCODING -1
SWIDTH 0 0
DWIDTH 0 0
BBX 3 3 -3 7
BITMAP
90
64
20
ENDCHAR
STARTCHAR uni09480901
ENCODING -1
SWIDTH 0 0
DWIDTH 0 0
BBX 6 3 -3 7
BITMAP
9440
6550
2000
ENDCHAR
STARTCHAR uni09480930094D0902
ENCODING -1
SWIDTH 0 0
DWIDTH 0 0
BBX 3 3 -3 7
BITMAP
68
64
20
ENDCHAR
STARTCHAR uni094B0930094D
ENCODING -1
SWIDTH 231 0
DWIDTH 2 0
BBX 4 10 -1 0
BITMAP
49
24
14
29
04
04
04
04
04
04
ENDCHAR
STARTCHAR uni094B0902
ENCODING -1
SWIDTH 231 0
DWIDTH 2 0
BBX 4 10 -1 0
BITMAP
40
14
10
29
04
04
04
04
04
04
ENDCHAR
STARTCHAR uni094B0930094D0902
ENCODING -1
SWIDTH 231 0
DWIDTH 2 0
BBX 4 10 -1 0
BITMAP
49
25
14
29
04
04
04
04
04
04
ENDCHAR
STARTCHAR uni094C0930094D
ENCODING -1
SWIDTH 231 0
DWIDTH 2 0
BBX 4 10 -1 0
BITMAP
95
64
14
29
04
04
04
04
04
04
ENDCHAR
STARTCHAR uni094C0902
ENCODING -1
SWIDTH 231 0
DWIDTH 2 0
BBX 4 10 -1 0
BITMAP
44
15
14
29
04
04
04
04
04
04
ENDCHAR
STARTCHAR uni094C0930094D0902
ENCODING -1
SWIDTH 231 0
DWIDTH 2 0
BBX 4 10 -1 0
BITMAP
95
65
14
29
04
04
04
04
04
04
ENDCHAR
STARTCHAR uni0915094D0937
ENCODING -1
SWIDTH 656 0
DWIDTH 7 0
BBX 7 7 0 0
BITMAP
1524
1110
2AA0
4010
5110
2A10
0110
ENDCHAR
STARTCHAR uni0915094D0937094D
ENCODING -1
SWIDTH 429 0
DWIDTH 4 0
BBX 6 7 0 0
BITMAP
1500
1100
2A90
4000
5100
2A00
0100
ENDCHAR
STARTCHAR uni0915094D0937094D092E
ENCODING -1
SWIDTH 933 0
DWIDTH 9 0
BBX 10 7 0 0
BITMAP
152690
111040
2AA040
402640
511040
2A0040
010040
ENDCHAR
STARTCHAR uni0915094D0937094D092E094D
ENCODING -1
SWIDTH 717 0
DWIDTH 7 0
BBX 8 7 0 0
BITMAP
1525
1110
2AA0
4025
5110
2A00
0100
ENDCHAR
STARTCHAR uni0915094D0937094D092E094D092F
ENCODING -1
SWIDTH 1283 0
DWIDTH 13 0
BBX 13 7 0 0
BITMAP
15256640
11101100
2AA09100
40264100
51104200
2A005600
01000100
ENDCHAR
STARTCHAR uni0915094D0937094D092F
ENCODING -1
SWIDTH 989 0
DWIDTH 10 0
BBX 10 7 0 0
BITMAP
151990
110480
2AA480
501080
511080
2A1580
010040
ENDCHAR
STARTCHAR uni0915094D0937094D0935
ENCODING -1
SWIDTH 936 0
DWIDTH 9 0
BBX 10 7 0 0
BITMAP
151590
111440
2AA040
401040
511040
2A1540
010040
ENDCHAR
STARTCHAR uni091C094D091E
ENCODING -1
SWIDTH 629 0
DWIDTH 6 0
BBX 7 8 0 -1
BITMAP
55A4
0010
2A90
5010
2510
5110
6610
4000
ENDCHAR
STARTCHAR uni091C094D091E094D
ENCODING -1
SWIDTH 398 0
DWIDTH 4 0
BBX 5 8 0 -1
BITMAP
5540
0000
2A40
5000
2500
4100
6600
5000
ENDCHAR
STARTCHAR uni091C094D091E094D092F
ENCODING -1
SWIDTH 975 0
DWIDTH 10 0
BBX 10 8 0 -1
BITMAP
556990
000440
2A8440
506440
255080
511580
660040
400000
ENDCHAR
STARTCHAR uni0915094D0928
ENCODING -1
SWIDTH 1003 0
DWIDTH 10 0
BBX 10 7 0 0
BITMAP
5655A0
166040
520440
410980
520440
160040
010040
ENDCHAR
STARTCHAR uni0916094D0928
ENCODING -1
SWIDTH 958 0
DWIDTH 10 0
BBX 10 7 0 0
BITMAP
595590
040040
055040
622980
516040
200040
040040
ENDCHAR
STARTCHAR uni0917094D0928
ENCODING -1
SWIDTH 736 0
DWIDTH 7 0
BBX 8 7 0 0
BITMAP
6559
1004
1004
2164
5104
0004
0004
ENDCHAR
STARTCHAR uni0918094D0928
ENCODING -1
SWIDTH 814 0
DWIDTH 8 0
BBX 8 7 0 0
BITMAP
A55A
5005
2405
10A9
5045
1545
0005
ENDCHAR
STARTCHAR uni091A094D0928
ENCODING -1
SWIDTH 829 0
DWIDTH 8 0
BBX 9 7 0 0
BITMAP
555A40
000100
680100
105900
104100
154100
000100
ENDCHAR
STARTCHAR uni091B094D0928
ENCODING -1
SWIDTH 977 0
DWIDTH 10 0
BBX 10 7 0 0
BITMAP
A55590
514040
504040
245980
106040
504040
254040
ENDCHAR
STARTCHAR uni091C094D0928
ENCODING -1
SWIDTH 831 0
DWIDTH 8 0
BBX 9 7 0 0
BITMAP
555A40
000100
2AA900
048100
044100
040100
640100
ENDCHAR
STARTCHAR uni091D094D0928
ENCODING -1
SWIDTH 935 0
DWIDTH 9 0
BBX 10 8 0 -1
BITMAP
565590
290040
500040
2A6040
021040
410040
690040
400000
ENDCHAR
STARTCHAR uni091F094D0928
ENCODING -1
SWIDTH 494 0
DWIDTH 5 0
BBX 5 10 0 -3
BITMAP
5640
0100
1A00
5000
4040
5040
1600
2600
5200
0100
ENDCHAR
STARTCHAR uni0920094D0928
ENCODING -1
SWIDTH 516 0
DWIDTH 5 0
BBX 5 10 0 -3
BITMAP
5640
0100
1600
5140
4040
5140
1600
2600
5200
0100
ENDCHAR
STARTCHAR uni0921094D0928
ENCODING -1
SWIDTH 481 0
DWIDTH 5 0
BBX 5 10 0 -3
BITMAP
5640
0100
2A00
5000
1500
5100
2A00
2600
5100
0100
ENDCHAR
STARTCHAR uni0924094D0928
ENCODING -1
SWIDTH 756 0
DWIDTH 8 0
BBX 8 7 0 0
BITMAP
5559
0008
2908
5298
4108
4008
2004
ENDCHAR
STARTCHAR uni0925094D0928
ENCODING -1
SWIDTH 855 0
DWIDTH 9 0
BBX 9 7 0 0
BITMAP
285640
150100
050100
686A00
508100
1A4100
000100
ENDCHAR
STARTCHAR uni0926094D0928
ENCODING -1
SWIDTH 955 0
DWIDTH 10 0
BBX 10 10 0 -3
BITMAP
565590
010040
2A0040
501580
511040
2A0040
010040
000000
008000
004000
ENDCHAR
STARTCHAR uni0927094D0928
ENCODING -1
SWIDTH 814 0
DWIDTH 8 0
BBX 8 7 0 0
BITMAP
A45A
5005
2405
10A9
5045
1545
0005
ENDCHAR
STARTCHAR uni0928094D0928
ENCODING -1
SWIDTH 738 0
DWIDTH 7 0
BBX 8 7 0 0
BITMAP
5559
0004
0004
6664
4104
0004
0004
ENDCHAR
STARTCHAR uni092A094D0928
ENCODING -1
SWIDTH 782 0
DWIDTH 8 0
BBX 8 7 0 0
BITMAP
A559
5004
5004
11A8
1A04
0004
0004
ENDCHAR
STARTCHAR uni092B094D0928
ENCODING -1
SWIDTH 1013 0
DWIDTH 10 0
BBX 10 7 0 0
BITMAP
A655A0
516050
510450
120990
160450
010050
010050
ENDCHAR
STARTCHAR uni092C094D0928
ENCODING -1
SWIDTH 810 0
DWIDTH 8 0
BBX 8 7 0 0
BITMAP
555A
2405
6005
5499
5545
1505
0005
ENDCHAR
STARTCHAR uni092D094D0928
ENCODING -1
SWIDTH 757 0
DWIDTH 8 0
BBX 8 7 0 0
BITMAP
8559
5004
5004
6A98
5104
0004
0004
ENDCHAR
STARTCHAR uni092E094D0928
ENCODING -1
SWIDTH 757 0
DWIDTH 8 0
BBX 8 7 0 0
BITMAP
A559
5004
5004
6A98
5104
0004
0004
ENDCHAR
STARTCHAR uni092F094D0928
ENCODING -1
SWIDTH 829 0
DWIDTH 8 0
BBX 9 7 0 0
BITMAP
695A40
040100
640100
406900
108100
154100
000100
ENDCHAR
STARTCHAR uni0935094D0928
ENCODING -1
SWIDTH 798 0
DWIDTH 8 0
BBX 8 7 0 0
BITMAP
555A
1404
5004
4098
5144
1504
0004
ENDCHAR
STARTCHAR uni0936094D0928
ENCODING -1
SWIDTH 845 0
DWIDTH 8 0
BBX 9 7 0 0
BITMAP
285640
510100
050100
684100
104100
100100
040100
ENDCHAR
STARTCHAR uni0938094D0928
ENCODING -1
SWIDTH 831 0
DWIDTH 8 0
BBX 9 7 0 0
BITMAP
695A40
040100
140100
6A4100
504100
200100
140100
ENDCHAR
STARTCHAR uni0939094D0928
ENCODING -1
SWIDTH 500 0
DWIDTH 5 0
BBX 5 9 0 -2
BITMAP
5680
0100
2600
1000
2640
5540
5440
5000
1500
ENDCHAR
STARTCHAR uni0915094D0930
ENCODING -1
SWIDTH 725 0
DWIDTH 7 0
BBX 8 8 0 -1
BITMAP
5655
1660
5204
4104
5208
1A10
1500
1000
ENDCHAR
STARTCHAR uni0916094D0930
ENCODING -1
SWIDTH 698 0
DWIDTH 7 0
BBX 7 8 0 -1
BITMAP
5968
0410
0550
6110
5110
21A0
0450
0100
ENDCHAR
STARTCHAR uni0917094D0930
ENCODING -1
SWIDTH 494 0
DWIDTH 5 0
BBX 5 7 0 0
BITMAP
6640
1100
1100
2100
5200
0900
2100
ENDCHAR
STARTCHAR uni0918094D0930
ENCODING -1
SWIDTH 559 0
DWIDTH 6 0
BBX 6 8 0 -1
BITMAP
A590
5080
2480
5080
5080
1A80
0840
1000
ENDCHAR
STARTCHAR uni0919094D0930
ENCODING -1
SWIDTH 505 0
DWIDTH 5 0
BBX 5 9 0 -2
BITMAP
5640
0100
2A00
5040
2600
0100
2600
1900
2200
ENDCHAR
STARTCHAR uni091A094D0930
ENCODING -1
SWIDTH 563 0
DWIDTH 6 0
BBX 6 7 0 0
BITMAP
5590
0040
6840
2040
2080
1680
0840
ENDCHAR
STARTCHAR uni091B094D0930
ENCODING -1
SWIDTH 581 0
DWIDTH 6 0
BBX 6 9 0 -2
BITMAP
A590
5040
5180
2440
5040
5040
2540
0A00
1040
ENDCHAR
STARTCHAR uni091C094D0930
ENCODING -1
SWIDTH 547 0
DWIDTH 5 0
BBX 6 8 0 -1
BITMAP
5590
0040
2A80
0840
0880
6580
0540
0400
ENDCHAR
STARTCHAR uni091D094D0930
ENCODING -1
SWIDTH 684 0
DWIDTH 7 0
BBX 7 7 0 0
BITMAP
5664
2910
5010
2A60
4220
5170
6A50
ENDCHAR
STARTCHAR uni091E094D0930
ENCODING -1
SWIDTH 598 0
DWIDTH 6 0
BBX 6 7 0 0
BITMAP
55A0
5440
0440
0A80
0480
5580
0540
ENDCHAR
STARTCHAR uni091F094D0930
ENCODING -1
SWIDTH 485 0
DWIDTH 5 0
BBX 5 9 0 -2
BITMAP
5640
0100
1A00
5000
4000
5040
2600
1500
1100
ENDCHAR
STARTCHAR uni0920094D0930
ENCODING -1
SWIDTH 512 0
DWIDTH 5 0
BBX 5 9 0 -2
BITMAP
5640
0100
1A00
5140
4040
5140
2600
1500
1100
ENDCHAR
STARTCHAR uni0921094D0930
ENCODING -1
SWIDTH 475 0
DWIDTH 5 0
BBX 5 8 0 -1
BITMAP
5640
0100
2A00
5000
2600
5100
2600
1500
ENDCHAR
STARTCHAR uni0922094D0930
ENCODING -1
SWIDTH 485 0
DWIDTH 5 0
BBX 5 9 0 -2
BITMAP
5640
0100
1600
5000
4600
5440
2600
1500
1100
ENDCHAR
STARTCHAR uni0923094D0930
ENCODING -1
SWIDTH 681 0
DWIDTH 7 0
BBX 7 7 0 0
BITMAP
A664
5110
5110
1220
1960
0050
0210
ENDCHAR
STARTCHAR uni0924094D0930
ENCODING -1
SWIDTH 493 0
DWIDTH 5 0
BBX 5 7 0 0
BITMAP
5640
0100
2600
5200
0200
0A00
2100
ENDCHAR
STARTCHAR uni0925094D0930
ENCODING -1
SWIDTH 593 0
DWIDTH 6 0
BBX 6 8 0 -1
BITMAP
2850
1540
0540
6840
4080
1680
0540
0400
ENDCHAR
STARTCHAR uni0926094D0930
ENCODING -1
SWIDTH 489 0
DWIDTH 5 0
BBX 5 7 0 0
BITMAP
5640
0100
2A00
5000
5100
2A00
0900
ENDCHAR
STARTCHAR uni0927094D0930
ENCODING -1
SWIDTH 560 0
DWIDTH 6 0
BBX 6 8 0 -1
BITMAP
A190
5040
5040
2440
5080
2A80
0940
0400
ENDCHAR
STARTCHAR uni0928094D0930
ENCODING -1
SWIDTH 473 0
DWIDTH 5 0
BBX 5 7 0 0
BITMAP
5640
0100
0100
6600
4600
0500
2100
ENDCHAR
STARTCHAR uni092A094D0930
ENCODING -1
SWIDTH 503 0
DWIDTH 5 0
BBX 5 7 0 0
BITMAP
A680
5100
5100
1100
1A00
0500
2100
ENDCHAR
STARTCHAR uni092B094D0930
ENCODING -1
SWIDTH 741 0
DWIDTH 7 0
BBX 8 7 0 0
BITMAP
A655
5164
5108
1204
1A08
0524
2100
ENDCHAR
STARTCHAR uni092C094D0930
ENCODING -1
SWIDTH 491 0
DWIDTH 5 0
BBX 5 8 0 -1
BITMAP
5640
2500
6100
4500
5200
1A00
0500
1000
ENDCHAR
STARTCHAR uni092D094D0930
ENCODING -1
SWIDTH 491 0
DWIDTH 5 0
BBX 5 7 0 0
BITMAP
8640
5100
5100
6600
5200
0900
1100
ENDCHAR
STARTCHAR uni092E094D0930
ENCODING -1
SWIDTH 490 0
DWIDTH 5 0
BBX 5 7 0 0
BITMAP
A640
5100
5100
6A00
5600
0900
2100
ENDCHAR
STARTCHAR uni092F094D0930
ENCODING -1
SWIDTH 564 0
DWIDTH 6 0
BBX 6 8 0 -1
BITMAP
6990
0440
6440
4040
5080
1680
0840
1000
ENDCHAR
STARTCHAR uni0935094D0930
ENCODING -1
SWIDTH 484 0
DWIDTH 5 0
BBX 5 8 0 -1
BITMAP
5640
1500
5100
4100
5200
1A00
1500
1000
ENDCHAR
STARTCHAR uni0936094D0930
ENCODING -1
SWIDTH 558 0
DWIDTH 6 0
BBX 6 7 0 0
BITMAP
2890
5140
1440
2840
5680
0540
1440
ENDCHAR
STARTCHAR uni0938094D0930
ENCODING -1
SWIDTH 604 0
DWIDTH 6 0
BBX 6 7 0 0
BITMAP
69A0
0440
1440
6A80
5180
2140
1440
ENDCHAR
STARTCHAR uni0939094D0930
ENCODING -1
SWIDTH 505 0
DWIDTH 5 0
BBX 5 9 0 -2
BITMAP
5680
0100
2600
5000
2640
5140
4840
5000
1500
ENDCHAR
STARTCHAR uni0915093C094D0930
ENCODING -1
SWIDTH 725 0
DWIDTH 7 0
BBX 8 8 0 -1
BITMAP
5655
1660
5204
4104
5208
1A10
1500
0400
ENDCHAR
STARTCHAR uni0916093C094D0930
ENCODING -1
SWIDTH 698 0
DWIDTH 7 0
BBX 7 8 0 -1
BITMAP
5968
0410
0550
6110
5110
21A0
0550
0040
ENDCHAR
STARTCHAR uni0917093C094D0930
ENCODING -1
SWIDTH 494 0
DWIDTH 5 0
BBX 5 8 0 -1
BITMAP
6640
1100
1100
2100
5200
0900
2100
0400
ENDCHAR
STARTCHAR uni091C093C094D0930
ENCODING -1
SWIDTH 547 0
DWIDTH 5 0
BBX 6 8 0 -1
BITMAP
5590
0040
2A80
0840
0880
6540
0440
4000
ENDCHAR
STARTCHAR uni0921093C094D0930
ENCODING -1
SWIDTH 475 0
DWIDTH 5 0
BBX 5 8 0 -1
BITMAP
5640
0100
2A00
5000
2600
5100
2600
5500
ENDCHAR
STARTCHAR uni0922093C094D0930
ENCODING -1
SWIDTH 485 0
DWIDTH 5 0
BBX 5 9 0 -2
BITMAP
5640
0100
1600
5000
4600
5440
2600
5500
1100
ENDCHAR
STARTCHAR uni0928093C094D0930
ENCODING -1
SWIDTH 473 0
DWIDTH 5 0
BBX 5 8 0 -1
BITMAP
5640
0100
0100
6600
4600
0500
2100
1000
ENDCHAR
STARTCHAR uni092B093C094D0930
ENCODING -1
SWIDTH 741 0
DWIDTH 7 0
BBX 8 8 0 -1
BITMAP
A655
5164
5108
1204
1A08
0524
2100
0400
ENDCHAR
STARTCHAR uni092F093C094D0930
ENCODING -1
SWIDTH 564 0
DWIDTH 6 0
BBX 6 7 0 0
BITMAP
6990
0440
6440
4040
5080
1A80
0840
ENDCHAR
STARTCHAR uni0915094D0930094D
ENCODING -1
SWIDTH 518 0
DWIDTH 5 0
BBX 7 8 0 -1
BITMAP
5654
1660
5200
4100
5200
1A00
1500
1000
ENDCHAR
STARTCHAR uni0916094D0930094D
ENCODING -1
SWIDTH 469 0
DWIDTH 5 0
BBX 6 8 0 -1
BITMAP
5950
0400
0540
6100
5100
2190
0440
0100
ENDCHAR
STARTCHAR uni0917094D0930094D
ENCODING -1
SWIDTH 264 0
DWIDTH 3 0
BBX 4 7 0 0
BITMAP
64
10
10
20
51
08
20
ENDCHAR
STARTCHAR uni0918094D0930094D
ENCODING -1
SWIDTH 319 0
DWIDTH 3 0
BBX 4 8 0 -1
BITMAP
AA
50
24
50
50
1A
08
10
ENDCHAR
STARTCHAR uni091A094D0930094D
ENCODING -1
SWIDTH 331 0
DWIDTH 3 0
BBX 4 7 0 0
BITMAP
55
00
68
20
20
16
09
ENDCHAR
STARTCHAR uni091C094D0930094D
ENCODING -1
SWIDTH 312 0
DWIDTH 3 0
BBX 4 7 0 0
BITMAP
55
00
2A
08
08
66
04
ENDCHAR
STARTCHAR uni091D094D0930094D
ENCODING -1
SWIDTH 441 0
DWIDTH 4 0
BBX 6 8 0 -1
BITMAP
5650
0100
2900
5000
2A50
4210
6940
4140
ENDCHAR
STARTCHAR uni091E094D0930094D
ENCODING -1
SWIDTH 374 0
DWIDTH 4 0
BBX 5 7 0 0
BITMAP
5540
5400
0400
0A80
0440
5540
0500
ENDCHAR
STARTCHAR uni091F094D0930094D
ENCODING -1
SWIDTH 485 0
DWIDTH 5 0
BBX 5 10 0 -3
BITMAP
5640
0100
1A00
5000
4040
5140
2600
1500
0400
0100
ENDCHAR
STARTCHAR uni0920094D0930094D
ENCODING -1
SWIDTH 512 0
DWIDTH 5 0
BBX 5 10 0 -3
BITMAP
5640
0100
1A00
5140
4040
5140
2600
1500
1500
0100
ENDCHAR
STARTCHAR uni0921094D0930094D
ENCODING -1
SWIDTH 475 0
DWIDTH 5 0
BBX 5 11 0 -4
BITMAP
5640
0100
2A00
5000
2600
0100
2600
1500
1100
0400
0100
ENDCHAR
STARTCHAR uni0922094D0930094D
ENCODING -1
SWIDTH 485 0
DWIDTH 5 0
BBX 5 11 0 -4
BITMAP
5640
0100
1600
5000
4600
5440
2600
1500
1100
0500
0100
ENDCHAR
STARTCHAR uni0923094D0930094D
ENCODING -1
SWIDTH 457 0
DWIDTH 5 0
BBX 6 7 0 0
BITMAP
A640
5100
5100
1210
1950
0040
0200
ENDCHAR
STARTCHAR uni0924094D0930094D
ENCODING -1
SWIDTH 268 0
DWIDTH 3 0
BBX 4 7 0 0
BITMAP
55
00
25
51
01
08
20
ENDCHAR
STARTCHAR uni0925094D0930094D
ENCODING -1
SWIDTH 358 0
DWIDTH 4 0
BBX 5 8 0 -1
BITMAP
2800
1500
0500
6800
4000
1640
0500
0400
ENDCHAR
STARTCHAR uni0926094D0930094D
ENCODING -1
SWIDTH 489 0
DWIDTH 5 0
BBX 5 9 0 -2
BITMAP
5640
0100
2A00
5000
5100
2A00
0900
0100
0100
ENDCHAR
STARTCHAR uni0927094D0930094D
ENCODING -1
SWIDTH 322 0
DWIDTH 3 0
BBX 4 8 0 -1
BITMAP
A1
50
50
24
50
2A
09
04
ENDCHAR
STARTCHAR uni0928094D0930094D
ENCODING -1
SWIDTH 247 0
DWIDTH 2 0
BBX 4 7 0 0
BITMAP
55
00
00
65
41
04
20
ENDCHAR
STARTCHAR uni092A094D0930094D
ENCODING -1
SWIDTH 270 0
DWIDTH 3 0
BBX 4 7 0 0
BITMAP
A4
50
50
10
19
08
20
ENDCHAR
STARTCHAR uni092B094D0930094D
ENCODING -1
SWIDTH 523 0
DWIDTH 5 0
BBX 7 7 0 0
BITMAP
A654
5260
5200
5200
1A00
1600
1100
ENDCHAR
STARTCHAR uni092C094D0930094D
ENCODING -1
SWIDTH 267 0
DWIDTH 3 0
BBX 4 8 0 -1
BITMAP
55
24
60
44
52
19
08
10
ENDCHAR
STARTCHAR uni092D094D0930094D
ENCODING -1
SWIDTH 257 0
DWIDTH 3 0
BBX 4 7 0 0
BITMAP
85
50
50
69
55
04
20
ENDCHAR
STARTCHAR uni092E094D0930094D
ENCODING -1
SWIDTH 261 0
DWIDTH 3 0
BBX 4 7 0 0
BITMAP
A5
50
50
69
55
04
20
ENDCHAR
STARTCHAR uni092F094D0930094D
ENCODING -1
SWIDTH 323 0
DWIDTH 3 0
BBX 5 8 0 -1
BITMAP
6900
0400
6400
4000
5040
1A00
0800
1000
ENDCHAR
STARTCHAR uni0935094D0930094D
ENCODING -1
SWIDTH 255 0
DWIDTH 3 0
BBX 4 8 0 -1
BITMAP
54
24
50
40
50
19
14
10
ENDCHAR
STARTCHAR uni0938094D0930094D
ENCODING -1
SWIDTH 347 0
DWIDTH 3 0
BBX 5 7 0 0
BITMAP
6900
0400
1400
6A40
5100
2500
1400
ENDCHAR
STARTCHAR uni0915093C094D0930094D
ENCODING -1
SWIDTH 518 0
DWIDTH 5 0
BBX 7 8 0 -1
BITMAP
5654
1660
5200
4100
5200
1A00
1500
0400
ENDCHAR
STARTCHAR uni0916093C094D0930094D
ENCODING -1
SWIDTH 466 0
DWIDTH 5 0
BBX 6 8 0 -1
BITMAP
5950
0400
0540
6100
5100
2190
0440
0040
ENDCHAR
STARTCHAR uni0917093C094D0930094D
ENCODING -1
SWIDTH 264 0
DWIDTH 3 0
BBX 4 8 0 -1
BITMAP
64
10
10
20
51
08
20
04
ENDCHAR
STARTCHAR uni091C093C094D0930094D
ENCODING -1
SWIDTH 320 0
DWIDTH 3 0
BBX 4 8 0 -1
BITMAP
55
00
2A
08
08
66
04
40
ENDCHAR
STARTCHAR uni0928093C094D0930094D
ENCODING -1
SWIDTH 247 0
DWIDTH 2 0
BBX 4 8 0 -1
BITMAP
55
00
00
65
41
04
20
04
ENDCHAR
STARTCHAR uni092B093C094D0930094D
ENCODING -1
SWIDTH 523 0
DWIDTH 5 0
BBX 7 8 0 -1
BITMAP
A654
5260
5200
5200
1A00
1600
1100
0400
ENDCHAR
STARTCHAR uni092F093C094D0930094D
ENCODING -1
SWIDTH 323 0
DWIDTH 3 0
BBX 5 7 0 0
BITMAP
6900
0400
6400
4000
5040
1A00
0400
ENDCHAR
STARTCHAR uni0915094D0915
ENCODING -1
SWIDTH 1255 0
DWIDTH 13 0
BBX 13 7 0 0
BITMAP
5655A540
16656500
52045200
41044100
52044200
16059500
01004000
ENDCHAR
STARTCHAR uni0915094D0916
ENCODING -1
SWIDTH 1256 0
DWIDTH 13 0
BBX 13 7 0 0
BITMAP
56569640
15510100
52051500
41095100
52081200
16010200
01010100
ENDCHAR
STARTCHAR uni0915094D091A
ENCODING -1
SWIDTH 1086 0
DWIDTH 11 0
BBX 11 7 0 0
BITMAP
565564
155010
521A50
410810
520820
160660
010010
ENDCHAR
STARTCHAR uni0915094D091C
ENCODING -1
SWIDTH 1071 0
DWIDTH 11 0
BBX 11 7 0 0
BITMAP
565564
150010
5256A0
420110
520210
161510
010010
ENDCHAR
STARTCHAR uni0915094D091F
ENCODING -1
SWIDTH 984 0
DWIDTH 10 0
BBX 10 7 0 0
BITMAP
565590
166040
520A40
411400
521010
161450
010980
ENDCHAR
STARTCHAR uni0915094D0923
ENCODING -1
SWIDTH 1183 0
DWIDTH 12 0
BBX 12 7 0 0
BITMAP
566999
150444
526444
420484
520A44
160004
010004
ENDCHAR
STARTCHAR uni0915094D0924
ENCODING -1
SWIDTH 761 0
DWIDTH 8 0
BBX 8 7 0 0
BITMAP
5695
0140
6AA4
1144
2148
1554
0140
ENDCHAR
STARTCHAR uni0915094D0925
ENCODING -1
SWIDTH 1118 0
DWIDTH 11 0
BBX 11 7 0 0
BITMAP
564A58
150454
526A14
420414
520414
160564
010014
ENDCHAR
STARTCHAR uni0915094D0926
ENCODING -1
SWIDTH 1009 0
DWIDTH 10 0
BBX 10 7 0 0
BITMAP
5655A0
156050
520E80
410400
520410
260690
010010
ENDCHAR
STARTCHAR uni0915094D092A
ENCODING -1
SWIDTH 1007 0
DWIDTH 10 0
BBX 10 7 0 0
BITMAP
5669A0
150440
526440
420440
520680
160040
010040
ENDCHAR
STARTCHAR uni0915094D092B
ENCODING -1
SWIDTH 1242 0
DWIDTH 12 0
BBX 13 7 0 0
BITMAP
56699540
15045900
52644200
42048100
52058200
16004900
01004000
ENDCHAR
STARTCHAR uni0915094D092E
ENCODING -1
SWIDTH 994 0
DWIDTH 10 0
BBX 10 7 0 0
BITMAP
566990
151440
526440
421980
520440
160040
010040
ENDCHAR
STARTCHAR uni0915094D092F
ENCODING -1
SWIDTH 1076 0
DWIDTH 11 0
BBX 11 7 0 0
BITMAP
565664
150110
526910
421410
520420
160560
010010
ENDCHAR
STARTCHAR uni0915094D0932
ENCODING -1
SWIDTH 1178 0
DWIDTH 12 0
BBX 12 7 0 0
BITMAP
565559
166008
520E68
411488
521448
161408
010904
ENDCHAR
STARTCHAR uni0915094D0935
ENCODING -1
SWIDTH 1013 0
DWIDTH 10 0
BBX 10 7 0 0
BITMAP
5655A0
166550
520450
410450
520450
260590
010050
ENDCHAR
STARTCHAR uni0915094D0936
ENCODING -1
SWIDTH 1194 0
DWIDTH 12 0
BBX 12 7 0 0
BITMAP
565285
150444
526444
420944
520404
160204
010144
ENDCHAR
STARTCHAR uni0915094D0938
ENCODING -1
SWIDTH 1143 0
DWIDTH 11 0
BBX 12 7 0 0
BITMAP
565659
166104
520504
410AA8
520404
160104
010104
ENDCHAR
STARTCHAR uni0916094D0916
ENCODING -1
SWIDTH 1223 0
DWIDTH 12 0
BBX 12 7 0 0
BITMAP
59565A
040101
054225
611941
521845
215529
040201
ENDCHAR
STARTCHAR uni0916094D0924
ENCODING -1
SWIDTH 984 0
DWIDTH 10 0
BBX 10 7 0 0
BITMAP
595590
040080
054A80
611080
521080
216080
041840
ENDCHAR
STARTCHAR uni0916094D092E
ENCODING -1
SWIDTH 965 0
DWIDTH 10 0
BBX 10 7 0 0
BITMAP
596590
041040
055040
611980
521040
219040
040040
ENDCHAR
STARTCHAR uni0916094D092F
ENCODING -1
SWIDTH 1047 0
DWIDTH 10 0
BBX 11 7 0 0
BITMAP
595A64
040110
051810
611010
522020
219960
040010
ENDCHAR
STARTCHAR uni0916094D0935
ENCODING -1
SWIDTH 975 0
DWIDTH 10 0
BBX 10 7 0 0
BITMAP
595590
040540
055040
621040
521080
219980
040040
ENDCHAR
STARTCHAR uni0916094D0936
ENCODING -1
SWIDTH 1123 0
DWIDTH 11 0
BBX 11 7 0 0
BITMAP
594A48
040454
054054
612614
522414
219814
040504
ENDCHAR
STARTCHAR uni0917094D0917
ENCODING -1
SWIDTH 744 0
DWIDTH 7 0
BBX 8 7 0 0
BITMAP
6699
1144
1144
2144
5204
0004
0004
ENDCHAR
STARTCHAR uni0917094D0918
ENCODING -1
SWIDTH 823 0
DWIDTH 8 0
BBX 8 7 0 0
BITMAP
669A
1205
1195
2205
5105
0099
0001
ENDCHAR
STARTCHAR uni0917094D091C
ENCODING -1
SWIDTH 801 0
DWIDTH 8 0
BBX 8 7 0 0
BITMAP
655A
1004
11A8
2054
5054
0184
0004
ENDCHAR
STARTCHAR uni0917094D0923
ENCODING -1
SWIDTH 945 0
DWIDTH 9 0
BBX 10 7 0 0
BITMAP
666990
110440
110440
111440
50A040
000040
000040
ENDCHAR
STARTCHAR uni0917094D0926
ENCODING -1
SWIDTH 748 0
DWIDTH 7 0
BBX 8 7 0 0
BITMAP
6559
1004
11A4
2200
5204
01A8
0004
ENDCHAR
STARTCHAR uni0917094D0927
ENCODING -1
SWIDTH 823 0
DWIDTH 8 0
BBX 8 7 0 0
BITMAP
664A
1101
1101
2191
5205
0199
0001
ENDCHAR
STARTCHAR uni0917094D092C
ENCODING -1
SWIDTH 755 0
DWIDTH 8 0
BBX 8 7 0 0
BITMAP
6559
1194
1244
2154
5218
0198
0004
ENDCHAR
STARTCHAR uni0917094D092D
ENCODING -1
SWIDTH 755 0
DWIDTH 8 0
BBX 8 7 0 0
BITMAP
6619
1104
1104
2258
5104
0004
0004
ENDCHAR
STARTCHAR uni0917094D092E
ENCODING -1
SWIDTH 754 0
DWIDTH 8 0
BBX 8 7 0 0
BITMAP
6659
1104
1104
2258
5104
0004
0004
ENDCHAR
STARTCHAR uni0917094D092F
ENCODING -1
SWIDTH 828 0
DWIDTH 8 0
BBX 9 7 0 0
BITMAP
65AA40
105100
118100
210100
510500
005900
000100
ENDCHAR
STARTCHAR uni0917094D0932
ENCODING -1
SWIDTH 924 0
DWIDTH 9 0
BBX 9 7 0 0
BITMAP
655680
100040
119A40
212140
511040
010040
018040
ENDCHAR
STARTCHAR uni0917094D0935
ENCODING -1
SWIDTH 747 0
DWIDTH 7 0
BBX 8 7 0 0
BITMAP
6559
1184
1204
2204
5208
0194
0004
ENDCHAR
STARTCHAR uni0917094D0938
ENCODING -1
SWIDTH 839 0
DWIDTH 8 0
BBX 9 7 0 0
BITMAP
659640
104100
104100
22A900
510100
004100
008100
ENDCHAR
STARTCHAR uni0918094D092E
ENCODING -1
SWIDTH 818 0
DWIDTH 8 0
BBX 8 7 0 0
BITMAP
A59A
5045
2445
1099
5085
2605
0005
ENDCHAR
STARTCHAR uni0918094D092F
ENCODING -1
SWIDTH 867 0
DWIDTH 9 0
BBX 9 7 0 0
BITMAP
A5A640
501100
259100
514100
514200
155600
000100
ENDCHAR
STARTCHAR uni091A094D091A
ENCODING -1
SWIDTH 868 0
DWIDTH 9 0
BBX 9 7 0 0
BITMAP
555640
000200
65A200
208200
208200
155600
000100
ENDCHAR
STARTCHAR uni091A094D091B
ENCODING -1
SWIDTH 922 0
DWIDTH 9 0
BBX 9 7 0 0
BITMAP
559680
004140
688240
206040
104040
108040
059600
ENDCHAR
STARTCHAR uni091A094D092E
ENCODING -1
SWIDTH 830 0
DWIDTH 8 0
BBX 9 7 0 0
BITMAP
559A40
004100
684100
209900
208100
164100
000100
ENDCHAR
STARTCHAR uni091A094D092F
ENCODING -1
SWIDTH 904 0
DWIDTH 9 0
BBX 9 7 0 0
BITMAP
556680
001100
689100
204100
208100
165600
000100
ENDCHAR
STARTCHAR uni091B094D092F
ENCODING -1
SWIDTH 1068 0
DWIDTH 11 0
BBX 11 7 0 0
BITMAP
A55564
519510
104110
104910
504820
504660
254010
ENDCHAR
STARTCHAR uni091B094D0935
ENCODING -1
SWIDTH 581 0
DWIDTH 6 0
BBX 6 8 0 -1
BITMAP
A590
5180
2440
1040
1040
2580
2080
1640
ENDCHAR
STARTCHAR uni091C094D0915
ENCODING -1
SWIDTH 1054 0
DWIDTH 11 0
BBX 11 7 0 0
BITMAP
555A54
005650
2A4520
084410
084420
645950
000400
ENDCHAR
STARTCHAR uni091C094D091C
ENCODING -1
SWIDTH 903 0
DWIDTH 9 0
BBX 9 7 0 0
BITMAP
555680
000100
296A00
081500
081500
646100
000100
ENDCHAR
STARTCHAR uni091C094D091D
ENCODING -1
SWIDTH 990 0
DWIDTH 10 0
BBX 10 8 0 -1
BITMAP
555990
005440
2A8040
08AA80
080440
644440
009840
004000
ENDCHAR
STARTCHAR uni091C094D091F
ENCODING -1
SWIDTH 815 0
DWIDTH 8 0
BBX 8 7 0 0
BITMAP
555A
0004
2A68
0480
0440
0841
6459
ENDCHAR
STARTCHAR uni091C094D0921
ENCODING -1
SWIDTH 797 0
DWIDTH 8 0
BBX 8 7 0 0
BITMAP
5559
0004
2AA8
0840
0858
6445
0098
ENDCHAR
STARTCHAR uni091C094D0924
ENCODING -1
SWIDTH 830 0
DWIDTH 8 0
BBX 9 7 0 0
BITMAP
555A40
000100
6AA900
088100
084100
644100
009100
ENDCHAR
STARTCHAR uni091C094D0926
ENCODING -1
SWIDTH 817 0
DWIDTH 8 0
BBX 8 7 0 0
BITMAP
555A
0005
2AA9
0880
0841
6455
0001
ENDCHAR
STARTCHAR uni091C094D092C
ENCODING -1
SWIDTH 820 0
DWIDTH 8 0
BBX 8 7 0 0
BITMAP
555A
0055
2A85
0855
0849
6459
0005
ENDCHAR
STARTCHAR uni091C094D092E
ENCODING -1
SWIDTH 813 0
DWIDTH 8 0
BBX 8 7 0 0
BITMAP
559A
0045
2A45
0899
0845
6405
0005
ENDCHAR
STARTCHAR uni091C094D092F
ENCODING -1
SWIDTH 893 0
DWIDTH 9 0
BBX 9 7 0 0
BITMAP
556640
001100
2A9100
084100
088200
645600
000100
ENDCHAR
STARTCHAR uni091C094D0935
ENCODING -1
SWIDTH 813 0
DWIDTH 8 0
BBX 8 7 0 0
BITMAP
555A
0055
2A45
0845
0845
6459
0005
ENDCHAR
STARTCHAR uni091D094D092E
ENCODING -1
SWIDTH 936 0
DWIDTH 9 0
BBX 10 8 0 -1
BITMAP
566590
291040
501040
2A6640
021040
411040
690040
400000
ENDCHAR
STARTCHAR uni091D094D092F
ENCODING -1
SWIDTH 1000 0
DWIDTH 10 0
BBX 10 8 0 -1
BITMAP
5659A0
290440
502440
2A6040
021080
411580
690040
400000
ENDCHAR
STARTCHAR uni091E094D091B
ENCODING -1
SWIDTH 913 0
DWIDTH 9 0
BBX 9 7 0 0
BITMAP
559680
004100
008200
049040
0A4040
544040
009600
ENDCHAR
STARTCHAR uni091E094D091C
ENCODING -1
SWIDTH 932 0
DWIDTH 9 0
BBX 10 7 0 0
BITMAP
555690
000040
146A40
040840
090840
646440
000040
ENDCHAR
STARTCHAR uni091E094D0936
ENCODING -1
SWIDTH 975 0
DWIDTH 10 0
BBX 10 7 0 0
BITMAP
555890
644480
040880
09A480
044080
642080
001440
ENDCHAR
STARTCHAR uni091F094D091F
ENCODING -1
SWIDTH 494 0
DWIDTH 5 0
BBX 5 11 0 -4
BITMAP
5640
0100
2900
5000
5140
2A00
1600
5000
4000
5140
1500
ENDCHAR
STARTCHAR uni091F094D0920
ENCODING -1
SWIDTH 495 0
DWIDTH 5 0
BBX 5 11 0 -4
BITMAP
5640
0100
2900
5000
5140
2600
1600
5140
4040
5140
1500
ENDCHAR
STARTCHAR uni091F094D092F
ENCODING -1
SWIDTH 990 0
DWIDTH 10 0
BBX 10 7 0 0
BITMAP
565590
010040
165840
500540
401840
515080
261980
ENDCHAR
STARTCHAR uni091F094D0935
ENCODING -1
SWIDTH 501 0
DWIDTH 5 0
BBX 5 8 0 -1
BITMAP
5640
0100
2600
5000
5040
2640
5140
2500
ENDCHAR
STARTCHAR uni0920094D092F
ENCODING -1
SWIDTH 998 0
DWIDTH 10 0
BBX 10 7 0 0
BITMAP
5655A0
010040
165840
514540
405840
515040
261980
ENDCHAR
STARTCHAR uni0921094D0921
ENCODING -1
SWIDTH 493 0
DWIDTH 5 0
BBX 5 11 0 -4
BITMAP
5640
2600
5000
1500
4100
2A00
5000
1500
0100
5100
1500
ENDCHAR
STARTCHAR uni0921094D0922
ENCODING -1
SWIDTH 493 0
DWIDTH 5 0
BBX 5 10 0 -3
BITMAP
5640
0100
2600
5000
1500
4100
2600
5540
5440
2A00
ENDCHAR
STARTCHAR uni0921094D092F
ENCODING -1
SWIDTH 973 0
DWIDTH 10 0
BBX 10 7 0 0
BITMAP
565590
010040
265440
500840
262480
411580
260040
ENDCHAR
STARTCHAR uni0921094D0935
ENCODING -1
SWIDTH 493 0
DWIDTH 5 0
BBX 5 9 0 -2
BITMAP
5640
2600
5000
1500
4100
2640
1140
1100
1500
ENDCHAR
STARTCHAR uni0922094D092F
ENCODING -1
SWIDTH 981 0
DWIDTH 10 0
BBX 10 7 0 0
BITMAP
565590
010040
165440
560440
446440
545080
261580
ENDCHAR
STARTCHAR uni0923094D091F
ENCODING -1
SWIDTH 908 0
DWIDTH 9 0
BBX 9 7 0 0
BITMAP
A65640
510100
511A00
511000
111000
191040
002640
ENDCHAR
STARTCHAR uni0923094D0920
ENCODING -1
SWIDTH 936 0
DWIDTH 9 0
BBX 10 7 0 0
BITMAP
A65690
510100
511A00
511040
111040
191080
002640
ENDCHAR
STARTCHAR uni0923094D0921
ENCODING -1
SWIDTH 892 0
DWIDTH 9 0
BBX 9 7 0 0
BITMAP
A65640
510100
512A00
121000
190100
001140
002600
ENDCHAR
STARTCHAR uni0923094D0922
ENCODING -1
SWIDTH 908 0
DWIDTH 9 0
BBX 9 7 0 0
BITMAP
A65680
510100
511600
511000
111240
001440
001640
ENDCHAR
STARTCHAR uni0923094D0923
ENCODING -1
SWIDTH 1127 0
DWIDTH 11 0
BBX 12 7 0 0
BITMAP
A666A9
511104
511104
122104
191904
000004
000004
ENDCHAR
STARTCHAR uni0923094D092E
ENCODING -1
SWIDTH 932 0
DWIDTH 9 0
BBX 10 7 0 0
BITMAP
A66690
511040
511040
122640
291040
000040
000040
ENDCHAR
STARTCHAR uni0923094D092F
ENCODING -1
SWIDTH 998 0
DWIDTH 10 0
BBX 10 7 0 0
BITMAP
A659A0
510440
512440
121040
191080
001580
000040
ENDCHAR
STARTCHAR uni0923094D0935
ENCODING -1
SWIDTH 923 0
DWIDTH 9 0
BBX 9 7 0 0
BITMAP
A65680
511540
512040
122040
192140
001640
000040
ENDCHAR
STARTCHAR uni0924094D0915
ENCODING -1
SWIDTH 992 0
DWIDTH 10 0
BBX 10 7 0 0
BITMAP
555950
004940
2A0850
510450
420850
419540
200400
ENDCHAR
STARTCHAR uni0924094D0916
ENCODING -1
SWIDTH 1014 0
DWIDTH 10 0
BBX 10 7 0 0
BITMAP
5565A0
001050
292150
519450
404450
404290
202050
ENDCHAR
STARTCHAR uni0924094D0924
ENCODING -1
SWIDTH 542 0
DWIDTH 5 0
BBX 6 7 0 0
BITMAP
5590
0040
6A40
1040
1040
1040
1440
ENDCHAR
STARTCHAR uni0924094D0925
ENCODING -1
SWIDTH 869 0
DWIDTH 9 0
BBX 9 7 0 0
BITMAP
55A240
001100
2A9100
510100
410200
409600
200100
ENDCHAR
STARTCHAR uni0924094D092A
ENCODING -1
SWIDTH 757 0
DWIDTH 8 0
BBX 8 7 0 0
BITMAP
5659
0104
2A04
5208
4198
4004
2004
ENDCHAR
STARTCHAR uni0924094D092B
ENCODING -1
SWIDTH 992 0
DWIDTH 10 0
BBX 10 7 0 0
BITMAP
565950
010940
2A0850
520850
409450
400540
200400
ENDCHAR
STARTCHAR uni0924094D092E
ENCODING -1
SWIDTH 764 0
DWIDTH 8 0
BBX 8 7 0 0
BITMAP
5659
0104
2A04
5198
4104
5004
2004
ENDCHAR
STARTCHAR uni0924094D092F
ENCODING -1
SWIDTH 830 0
DWIDTH 8 0
BBX 9 7 0 0
BITMAP
55AA40
005100
2A8100
510100
410500
405500
200100
ENDCHAR
STARTCHAR uni0924094D0932
ENCODING -1
SWIDTH 957 0
DWIDTH 10 0
BBX 10 7 0 0
BITMAP
555590
000040
159680
521480
410440
410040
209040
ENDCHAR
STARTCHAR uni0924094D0935
ENCODING -1
SWIDTH 751 0
DWIDTH 8 0
BBX 8 7 0 0
BITMAP
5559
0044
2A04
5104
4208
4198
2004
ENDCHAR
STARTCHAR uni0924094D0938
ENCODING -1
SWIDTH 876 0
DWIDTH 9 0
BBX 9 7 0 0
BITMAP
55A640
001100
295100
52AA00
414100
408100
205100
ENDCHAR
STARTCHAR uni0925094D092F
ENCODING -1
SWIDTH 931 0
DWIDTH 9 0
BBX 10 7 0 0
BITMAP
286A90
151440
056040
684040
408140
156540
000040
ENDCHAR
STARTCHAR uni0925094D0935
ENCODING -1
SWIDTH 862 0
DWIDTH 9 0
BBX 9 7 0 0
BITMAP
285640
152500
054100
684100
408200
156600
000100
ENDCHAR
STARTCHAR uni0926094D0917
ENCODING -1
SWIDTH 489 0
DWIDTH 5 0
BBX 5 8 0 -1
BITMAP
5640
1A00
5000
4000
5100
2A00
1500
6000
ENDCHAR
STARTCHAR uni0926094D0918
ENCODING -1
SWIDTH 686 0
DWIDTH 7 0
BBX 7 8 0 -1
BITMAP
5564
0010
1900
4400
6510
42A0
4110
1500
ENDCHAR
STARTCHAR uni0926094D0926
ENCODING -1
SWIDTH 506 0
DWIDTH 5 0
BBX 5 8 0 -1
BITMAP
5680
0100
1600
5000
2400
5040
2640
0040
ENDCHAR
STARTCHAR uni0926094D0927
ENCODING -1
SWIDTH 686 0
DWIDTH 7 0
BBX 7 8 0 -1
BITMAP
5564
0010
2100
4400
6510
42A0
4110
1500
ENDCHAR
STARTCHAR uni0926094D092C
ENCODING -1
SWIDTH 481 0
DWIDTH 5 0
BBX 5 9 0 -2
BITMAP
5640
0100
2A00
5000
5100
2A00
1500
1600
1500
ENDCHAR
STARTCHAR uni0926094D092D
ENCODING -1
SWIDTH 499 0
DWIDTH 5 0
BBX 5 9 0 -2
BITMAP
5640
1A00
5000
5100
1A00
5100
1100
2600
1100
ENDCHAR
STARTCHAR uni0926094D092E
ENCODING -1
SWIDTH 706 0
DWIDTH 7 0
BBX 7 7 0 0
BITMAP
5668
2910
4010
4010
1610
0260
0110
ENDCHAR
STARTCHAR uni0926094D092F
ENCODING -1
SWIDTH 583 0
DWIDTH 6 0
BBX 6 7 0 0
BITMAP
5990
2840
5040
2440
5040
5040
2580
ENDCHAR
STARTCHAR uni0926094D0935
ENCODING -1
SWIDTH 483 0
DWIDTH 5 0
BBX 5 9 0 -2
BITMAP
5640
0100
2A00
5000
5100
2A00
1100
1100
1500
ENDCHAR
STARTCHAR uni0927094D092E
ENCODING -1
SWIDTH 817 0
DWIDTH 8 0
BBX 8 7 0 0
BITMAP
A59A
5045
2445
5099
5085
1645
0005
ENDCHAR
STARTCHAR uni0927094D092F
ENCODING -1
SWIDTH 886 0
DWIDTH 9 0
BBX 9 7 0 0
BITMAP
A56640
501200
249200
504200
504200
155600
000100
ENDCHAR
STARTCHAR uni0927094D0935
ENCODING -1
SWIDTH 810 0
DWIDTH 8 0
BBX 8 7 0 0
BITMAP
A55A
5055
2445
5045
5045
1559
0005
ENDCHAR
STARTCHAR uni0928094D0915
ENCODING -1
SWIDTH 973 0
DWIDTH 10 0
BBX 10 7 0 0
BITMAP
556950
015940
010440
560440
421440
016540
000400
ENDCHAR
STARTCHAR uni0928094D091A
ENCODING -1
SWIDTH 820 0
DWIDTH 8 0
BBX 8 7 0 0
BITMAP
555A
0005
0295
6945
4145
0099
0005
ENDCHAR
STARTCHAR uni0928094D091B
ENCODING -1
SWIDTH 781 0
DWIDTH 8 0
BBX 8 7 0 0
BITMAP
5A59
0504
0518
6A44
4104
0504
0258
ENDCHAR
STARTCHAR uni0928094D091F
ENCODING -1
SWIDTH 715 0
DWIDTH 7 0
BBX 7 7 0 0
BITMAP
5568
0010
0160
6500
4100
0104
0264
ENDCHAR
STARTCHAR uni0928094D0921
ENCODING -1
SWIDTH 705 0
DWIDTH 7 0
BBX 7 7 0 0
BITMAP
5568
0010
0160
6600
4160
0104
0264
ENDCHAR
STARTCHAR uni0928094D0924
ENCODING -1
SWIDTH 717 0
DWIDTH 7 0
BBX 7 7 0 0
BITMAP
5568
0014
0164
6914
4114
0114
0254
ENDCHAR
STARTCHAR uni0928094D0925
ENCODING -1
SWIDTH 804 0
DWIDTH 8 0
BBX 8 7 0 0
BITMAP
5286
0114
0014
5A84
4504
0158
0004
ENDCHAR
STARTCHAR uni0928094D0926
ENCODING -1
SWIDTH 724 0
DWIDTH 7 0
BBX 7 7 0 0
BITMAP
5568
0004
01A4
5600
4204
0194
0004
ENDCHAR
STARTCHAR uni0928094D0927
ENCODING -1
SWIDTH 753 0
DWIDTH 8 0
BBX 8 7 0 0
BITMAP
5A19
0408
0508
6A48
4508
0298
0004
ENDCHAR
STARTCHAR uni0928094D092A
ENCODING -1
SWIDTH 742 0
DWIDTH 7 0
BBX 8 7 0 0
BITMAP
5659
0104
0104
5608
4194
0004
0004
ENDCHAR
STARTCHAR uni0928094D092B
ENCODING -1
SWIDTH 970 0
DWIDTH 10 0
BBX 10 7 0 0
BITMAP
566950
011940
011440
561440
416440
001540
000400
ENDCHAR
STARTCHAR uni0928094D092D
ENCODING -1
SWIDTH 739 0
DWIDTH 7 0
BBX 8 7 0 0
BITMAP
5519
0104
0104
6664
4104
0004
0004
ENDCHAR
STARTCHAR uni0928094D092E
ENCODING -1
SWIDTH 735 0
DWIDTH 7 0
BBX 8 7 0 0
BITMAP
5659
0104
0104
6664
4104
0004
0004
ENDCHAR
STARTCHAR uni0928094D092F
ENCODING -1
SWIDTH 801 0
DWIDTH 8 0
BBX 8 7 0 0
BITMAP
559A
0044
5644
4104
4108
0158
0004
ENDCHAR
STARTCHAR uni0928094D0935
ENCODING -1
SWIDTH 732 0
DWIDTH 7 0
BBX 8 7 0 0
BITMAP
5569
0044
0104
5604
4204
0154
0004
ENDCHAR
STARTCHAR uni0928094D0938
ENCODING -1
SWIDTH 867 0
DWIDTH 9 0
BBX 9 7 0 0
BITMAP
55A640
005100
695100
42AA00
414100
008100
005100
ENDCHAR
STARTCHAR uni0928094D0939
ENCODING -1
SWIDTH 714 0
DWIDTH 7 0
BBX 7 8 0 -1
BITMAP
5568
0160
0100
6600
42A0
0204
0100
0150
ENDCHAR
STARTCHAR uni092A094D091F
ENCODING -1
SWIDTH 489 0
DWIDTH 5 0
BBX 5 7 0 0
BITMAP
A680
5100
1100
2A00
5000
5040
2600
ENDCHAR
STARTCHAR uni092A094D0920
ENCODING -1
SWIDTH 506 0
DWIDTH 5 0
BBX 5 7 0 0
BITMAP
A680
5140
1140
2A00
5140
5040
2600
ENDCHAR
STARTCHAR uni092A094D0924
ENCODING -1
SWIDTH 495 0
DWIDTH 5 0
BBX 5 7 0 0
BITMAP
A640
5100
5100
2A00
5100
4100
2100
ENDCHAR
STARTCHAR uni092A094D092A
ENCODING -1
SWIDTH 770 0
DWIDTH 8 0
BBX 8 7 0 0
BITMAP
A659
5104
5104
1108
19A8
0004
0004
ENDCHAR
STARTCHAR uni092A094D092B
ENCODING -1
SWIDTH 1003 0
DWIDTH 10 0
BBX 10 7 0 0
BITMAP
A65950
510980
510810
110810
155810
000540
000400
ENDCHAR
STARTCHAR uni092A094D092E
ENCODING -1
SWIDTH 774 0
DWIDTH 8 0
BBX 8 7 0 0
BITMAP
A699
5104
5104
1198
1604
0004
0004
ENDCHAR
STARTCHAR uni092A094D092F
ENCODING -1
SWIDTH 855 0
DWIDTH 9 0
BBX 9 7 0 0
BITMAP
A5A640
501100
519100
110100
1A4200
005500
000100
ENDCHAR
STARTCHAR uni092A094D0932
ENCODING -1
SWIDTH 960 0
DWIDTH 10 0
BBX 10 7 0 0
BITMAP
A55590
500040
509680
111480
1A0040
010040
009040
ENDCHAR
STARTCHAR uni092A094D0935
ENCODING -1
SWIDTH 780 0
DWIDTH 8 0
BBX 8 7 0 0
BITMAP
A559
5054
5104
1104
1A08
0058
0004
ENDCHAR
STARTCHAR uni092A094D0938
ENCODING -1
SWIDTH 880 0
DWIDTH 9 0
BBX 9 7 0 0
BITMAP
A5A640
501100
501100
11AA00
194100
004100
005100
ENDCHAR
STARTCHAR uni092B094D091C
ENCODING -1
SWIDTH 1100 0
DWIDTH 11 0
BBX 11 7 0 0
BITMAP
A65568
510010
5156A0
120150
160150
010610
010010
ENDCHAR
STARTCHAR uni092B094D091F
ENCODING -1
SWIDTH 1006 0
DWIDTH 10 0
BBX 10 7 0 0
BITMAP
A65590
516040
510A80
120400
1A0410
010410
010980
ENDCHAR
STARTCHAR uni092B094D0924
ENCODING -1
SWIDTH 1034 0
DWIDTH 10 0
BBX 11 7 0 0
BITMAP
A655A4
516010
510990
120410
160410
010410
010510
ENDCHAR
STARTCHAR uni092B094D092A
ENCODING -1
SWIDTH 1021 0
DWIDTH 10 0
BBX 10 7 0 0
BITMAP
A659A0
510450
516450
120850
2A0690
010050
010050
ENDCHAR
STARTCHAR uni092B094D092B
ENCODING -1
SWIDTH 1256 0
DWIDTH 13 0
BBX 13 7 0 0
BITMAP
A659A540
51046500
51645200
12085100
16059200
01005500
01004000
ENDCHAR
STARTCHAR uni092B094D092F
ENCODING -1
SWIDTH 1120 0
DWIDTH 11 0
BBX 11 7 0 0
BITMAP
A65664
510110
515910
120410
160820
010660
010010
ENDCHAR
STARTCHAR uni092B094D0932
ENCODING -1
SWIDTH 1202 0
DWIDTH 12 0
BBX 12 7 0 0
BITMAP
A6555A
516004
510A68
120484
160444
010404
010904
ENDCHAR
STARTCHAR uni092B094D0936
ENCODING -1
SWIDTH 1211 0
DWIDTH 12 0
BBX 12 7 0 0
BITMAP
A65686
516455
510455
120985
160405
010105
010105
ENDCHAR
STARTCHAR uni092C094D091C
ENCODING -1
SWIDTH 883 0
DWIDTH 9 0
BBX 9 7 0 0
BITMAP
555640
000100
106A00
541100
551100
265100
000100
ENDCHAR
STARTCHAR uni092C094D091D
ENCODING -1
SWIDTH 962 0
DWIDTH 10 0
BBX 10 8 0 -1
BITMAP
555990
249440
610040
456980
520440
150440
01A440
014000
ENDCHAR
STARTCHAR uni092C094D0924
ENCODING -1
SWIDTH 786 0
DWIDTH 8 0
BBX 8 7 0 0
BITMAP
5559
2404
60A8
5504
5204
1604
0084
ENDCHAR
STARTCHAR uni092C094D0926
ENCODING -1
SWIDTH 775 0
DWIDTH 8 0
BBX 8 7 0 0
BITMAP
5559
2404
60A8
5500
5604
25A8
0004
ENDCHAR
STARTCHAR uni092C094D0927
ENCODING -1
SWIDTH 844 0
DWIDTH 8 0
BBX 9 7 0 0
BITMAP
568640
250100
610100
549100
560200
15A500
000100
ENDCHAR
STARTCHAR uni092C094D092C
ENCODING -1
SWIDTH 783 0
DWIDTH 8 0
BBX 8 7 0 0
BITMAP
5559
2494
6184
4514
5208
1558
0004
ENDCHAR
STARTCHAR uni092C094D092D
ENCODING -1
SWIDTH 764 0
DWIDTH 8 0
BBX 8 7 0 0
BITMAP
5619
2504
6104
5598
5204
1504
0004
ENDCHAR
STARTCHAR uni092C094D092F
ENCODING -1
SWIDTH 852 0
DWIDTH 9 0
BBX 9 7 0 0
BITMAP
55A640
241100
618100
450100
524200
155500
000100
ENDCHAR
STARTCHAR uni092C094D0932
ENCODING -1
SWIDTH 961 0
DWIDTH 10 0
BBX 10 7 0 0
BITMAP
555590
240040
609580
550480
520440
160040
009040
ENDCHAR
STARTCHAR uni092C094D0935
ENCODING -1
SWIDTH 776 0
DWIDTH 8 0
BBX 8 7 0 0
BITMAP
5559
1494
6104
4504
5208
1558
0004
ENDCHAR
STARTCHAR uni092C094D0936
ENCODING -1
SWIDTH 926 0
DWIDTH 9 0
BBX 10 7 0 0
BITMAP
54A490
144440
600440
45A040
524040
155040
002040
ENDCHAR
STARTCHAR uni092C094D0938
ENCODING -1
SWIDTH 897 0
DWIDTH 9 0
BBX 9 7 0 0
BITMAP
556680
141100
601100
45AA00
524100
154100
001100
ENDCHAR
STARTCHAR uni092D094D092F
ENCODING -1
SWIDTH 827 0
DWIDTH 8 0
BBX 9 7 0 0
BITMAP
85AA40
505100
518100
660100
520500
009500
000100
ENDCHAR
STARTCHAR uni092D094D0932
ENCODING -1
SWIDTH 941 0
DWIDTH 9 0
BBX 10 7 0 0
BITMAP
855590
500040
519540
661440
511040
010040
019040
ENDCHAR
STARTCHAR uni092D094D0935
ENCODING -1
SWIDTH 755 0
DWIDTH 8 0
BBX 8 7 0 0
BITMAP
8559
5054
5104
6604
5208
0098
0004
ENDCHAR
STARTCHAR uni092E094D0924
ENCODING -1
SWIDTH 765 0
DWIDTH 8 0
BBX 8 7 0 0
BITMAP
A559
5004
50A8
6A04
5104
0104
0184
ENDCHAR
STARTCHAR uni092E094D0926
ENCODING -1
SWIDTH 766 0
DWIDTH 8 0
BBX 8 7 0 0
BITMAP
A559
5004
51A4
6600
1104
00A8
0004
ENDCHAR
STARTCHAR uni092E094D092A
ENCODING -1
SWIDTH 762 0
DWIDTH 8 0
BBX 8 7 0 0
BITMAP
A659
5104
5104
6608
11A8
0004
0004
ENDCHAR
STARTCHAR uni092E094D092C
ENCODING -1
SWIDTH 768 0
DWIDTH 8 0
BBX 8 7 0 0
BITMAP
A559
5094
5144
6654
1218
0098
0004
ENDCHAR
STARTCHAR uni092E094D092D
ENCODING -1
SWIDTH 768 0
DWIDTH 8 0
BBX 8 7 0 0
BITMAP
A619
5104
5104
6698
5104
0004
0004
ENDCHAR
STARTCHAR uni092E094D092E
ENCODING -1
SWIDTH 759 0
DWIDTH 8 0
BBX 8 7 0 0
BITMAP
A659
5104
5104
6658
5104
0004
0004
ENDCHAR
STARTCHAR uni092E094D092F
ENCODING -1
SWIDTH 834 0
DWIDTH 8 0
BBX 9 7 0 0
BITMAP
A5AA40
505100
518100
660100
510500
009500
000100
ENDCHAR
STARTCHAR uni092E094D0932
ENCODING -1
SWIDTH 945 0
DWIDTH 9 0
BBX 10 7 0 0
BITMAP
A55590
500080
519680
661480
511480
010080
019040
ENDCHAR
STARTCHAR uni092E094D0935
ENCODING -1
SWIDTH 761 0
DWIDTH 8 0
BBX 8 7 0 0
BITMAP
A559
5054
5104
6604
5208
0098
0004
ENDCHAR
STARTCHAR uni092E094D0936
ENCODING -1
SWIDTH 884 0
DWIDTH 9 0
BBX 9 7 0 0
BITMAP
A5A240
511100
502100
665100
510100
008100
005100
ENDCHAR
STARTCHAR uni092E094D0938
ENCODING -1
SWIDTH 816 0
DWIDTH 8 0
BBX 8 7 0 0
BITMAP
A59A
5085
5085
6AA9
5205
0145
0085
ENDCHAR
STARTCHAR uni092E094D0939
ENCODING -1
SWIDTH 758 0
DWIDTH 8 0
BBX 8 8 0 -1
BITMAP
A559
5094
5100
6600
5094
0104
0100
0054
ENDCHAR
STARTCHAR uni092F094D092F
ENCODING -1
SWIDTH 897 0
DWIDTH 9 0
BBX 9 7 0 0
BITMAP
696640
041100
649100
404100
508200
155600
000100
ENDCHAR
STARTCHAR uni0930094D092F
ENCODING -1
SWIDTH 713 0
DWIDTH 7 0
BBX 7 7 0 0
BITMAP
5668
0114
6914
0414
0414
0164
0014
ENDCHAR
STARTCHAR uni0930094D0939
ENCODING -1
SWIDTH 619 0
DWIDTH 6 0
BBX 6 8 0 -1
BITMAP
55A0
4590
5800
0400
0680
0810
0400
0540
ENDCHAR
STARTCHAR uni0932094D0915
ENCODING -1
SWIDTH 1182 0
DWIDTH 12 0
BBX 12 7 0 0
BITMAP
555595
001494
19A084
521045
512044
501954
240040
ENDCHAR
STARTCHAR uni0932094D0916
ENCODING -1
SWIDTH 1195 0
DWIDTH 12 0
BBX 12 7 0 0
BITMAP
555659
000104
199154
522844
511448
500858
240104
ENDCHAR
STARTCHAR uni0932094D0917
ENCODING -1
SWIDTH 950 0
DWIDTH 10 0
BBX 10 7 0 0
BITMAP
556990
000480
194480
520480
512080
500080
240040
ENDCHAR
STARTCHAR uni0932094D091C
ENCODING -1
SWIDTH 1035 0
DWIDTH 10 0
BBX 11 7 0 0
BITMAP
555564
000010
195A90
520210
510210
501910
240010
ENDCHAR
STARTCHAR uni0932094D091F
ENCODING -1
SWIDTH 929 0
DWIDTH 9 0
BBX 10 7 0 0
BITMAP
555690
000140
299A00
522000
511000
501080
241540
ENDCHAR
STARTCHAR uni0932094D0920
ENCODING -1
SWIDTH 953 0
DWIDTH 10 0
BBX 10 7 0 0
BITMAP
555690
000140
159A40
522040
511040
502080
241540
ENDCHAR
STARTCHAR uni0932094D0921
ENCODING -1
SWIDTH 916 0
DWIDTH 9 0
BBX 9 7 0 0
BITMAP
555680
000140
155A00
522000
511640
500040
242640
ENDCHAR
STARTCHAR uni0932094D0922
ENCODING -1
SWIDTH 924 0
DWIDTH 9 0
BBX 9 7 0 0
BITMAP
555680
000140
155600
522000
511240
501040
241540
ENDCHAR
STARTCHAR uni0932094D0924
ENCODING -1
SWIDTH 929 0
DWIDTH 9 0
BBX 10 7 0 0
BITMAP
555690
000040
199640
521040
511040
501040
242440
ENDCHAR
STARTCHAR uni0932094D0925
ENCODING -1
SWIDTH 1061 0
DWIDTH 11 0
BBX 11 7 0 0
BITMAP
555A24
001120
199120
522920
512020
501A60
240010
ENDCHAR
STARTCHAR uni0932094D0926
ENCODING -1
SWIDTH 939 0
DWIDTH 9 0
BBX 10 7 0 0
BITMAP
555590
000040
199A40
522000
512040
501A80
240040
ENDCHAR
STARTCHAR uni0932094D092A
ENCODING -1
SWIDTH 939 0
DWIDTH 9 0
BBX 10 7 0 0
BITMAP
556590
001040
19A040
522040
511940
500040
240040
ENDCHAR
STARTCHAR uni0932094D092B
ENCODING -1
SWIDTH 1176 0
DWIDTH 12 0
BBX 12 7 0 0
BITMAP
556695
001094
19A044
522044
511544
500054
240040
ENDCHAR
STARTCHAR uni0932094D092C
ENCODING -1
SWIDTH 949 0
DWIDTH 9 0
BBX 10 7 0 0
BITMAP
555590
000840
19A440
521440
512180
501980
240040
ENDCHAR
STARTCHAR uni0932094D092D
ENCODING -1
SWIDTH 931 0
DWIDTH 9 0
BBX 10 7 0 0
BITMAP
559290
002040
19A040
522640
511040
500040
240040
ENDCHAR
STARTCHAR uni0932094D092E
ENCODING -1
SWIDTH 931 0
DWIDTH 9 0
BBX 10 7 0 0
BITMAP
556690
001040
19A040
522640
511040
500040
240040
ENDCHAR
STARTCHAR uni0932094D092F
ENCODING -1
SWIDTH 1033 0
DWIDTH 10 0
BBX 11 7 0 0
BITMAP
555AA4
154110
521510
512810
511050
500550
240010
ENDCHAR
STARTCHAR uni0932094D0932
ENCODING -1
SWIDTH 1112 0
DWIDTH 11 0
BBX 11 7 0 0
BITMAP
555568
000014
1595A4
522214
511114
501014
241814
ENDCHAR
STARTCHAR uni0932094D0935
ENCODING -1
SWIDTH 940 0
DWIDTH 9 0
BBX 10 7 0 0
BITMAP
555590
000440
19A040
521040
512040
501940
240040
ENDCHAR
STARTCHAR uni0932094D0938
ENCODING -1
SWIDTH 1068 0
DWIDTH 11 0
BBX 11 7 0 0
BITMAP
555A64
000510
199510
522AA0
511410
500810
240510
ENDCHAR
STARTCHAR uni0932094D0939
ENCODING -1
SWIDTH 922 0
DWIDTH 9 0
BBX 9 8 0 -1
BITMAP
555680
000040
155640
522000
511A00
502040
241000
001500
ENDCHAR
STARTCHAR uni0933094D092F
ENCODING -1
SWIDTH 1050 0
DWIDTH 11 0
BBX 11 7 0 0
BITMAP
555A64
155110
521810
411010
522020
195550
000010
ENDCHAR
STARTCHAR uni0935094D092F
ENCODING -1
SWIDTH 852 0
DWIDTH 9 0
BBX 9 7 0 0
BITMAP
55A640
141100
518100
410100
524200
155600
000100
ENDCHAR
STARTCHAR uni0935094D0932
ENCODING -1
SWIDTH 961 0
DWIDTH 10 0
BBX 10 7 0 0
BITMAP
555590
140080
509680
410480
520080
160080
005040
ENDCHAR
STARTCHAR uni0935094D0935
ENCODING -1
SWIDTH 776 0
DWIDTH 8 0
BBX 8 7 0 0
BITMAP
5559
1494
5104
4104
5208
1558
0004
ENDCHAR
STARTCHAR uni0935094D0939
ENCODING -1
SWIDTH 754 0
DWIDTH 8 0
BBX 8 8 0 -1
BITMAP
5559
1494
5100
4100
5194
1604
0100
0054
ENDCHAR
STARTCHAR uni0936094D0915
ENCODING -1
SWIDTH 1093 0
DWIDTH 11 0
BBX 11 7 0 0
BITMAP
285654
4162A0
058214
684114
108214
106550
040100
ENDCHAR
STARTCHAR uni0936094D091A
ENCODING -1
SWIDTH 950 0
DWIDTH 10 0
BBX 10 7 0 0
BITMAP
285590
510080
056880
681080
101080
101580
040040
ENDCHAR
STARTCHAR uni0936094D091B
ENCODING -1
SWIDTH 968 0
DWIDTH 10 0
BBX 10 7 0 0
BITMAP
28A590
554040
055180
682440
105040
104040
042540
ENDCHAR
STARTCHAR uni0936094D091F
ENCODING -1
SWIDTH 854 0
DWIDTH 9 0
BBX 9 7 0 0
BITMAP
285640
510100
052900
684000
104100
104100
046500
ENDCHAR
STARTCHAR uni0936094D0924
ENCODING -1
SWIDTH 864 0
DWIDTH 9 0
BBX 9 7 0 0
BITMAP
285640
510100
056A00
684100
104100
104100
046100
ENDCHAR
STARTCHAR uni0936094D092E
ENCODING -1
SWIDTH 885 0
DWIDTH 9 0
BBX 9 7 0 0
BITMAP
28A640
515100
055100
686600
105100
100100
040100
ENDCHAR
STARTCHAR uni0936094D092F
ENCODING -1
SWIDTH 940 0
DWIDTH 9 0
BBX 10 7 0 0
BITMAP
286990
510440
056040
684040
104040
101540
040040
ENDCHAR
STARTCHAR uni0936094D0932
ENCODING -1
SWIDTH 1039 0
DWIDTH 10 0
BBX 11 7 0 0
BITMAP
285564
510010
052690
684510
104410
104010
046410
ENDCHAR
STARTCHAR uni0936094D0935
ENCODING -1
SWIDTH 850 0
DWIDTH 9 0
BBX 9 7 0 0
BITMAP
285640
416500
058100
688100
108200
102600
040100
ENDCHAR
STARTCHAR uni0936094D0936
ENCODING -1
SWIDTH 1009 0
DWIDTH 10 0
BBX 10 7 0 0
BITMAP
282860
515550
050550
685850
105050
101050
040440
ENDCHAR
STARTCHAR uni0937094D0915
ENCODING -1
SWIDTH 1039 0
DWIDTH 10 0
BBX 11 7 0 0
BITMAP
A55954
545590
554410
124410
1A4810
005890
000400
ENDCHAR
STARTCHAR uni0937094D091F
ENCODING -1
SWIDTH 493 0
DWIDTH 5 0
BBX 5 7 0 0
BITMAP
A680
5540
1640
2600
5000
5040
2600
ENDCHAR
STARTCHAR uni0937094D0920
ENCODING -1
SWIDTH 511 0
DWIDTH 5 0
BBX 5 7 0 0
BITMAP
BF80
7F40
3F40
2A00
5040
5040
2600
ENDCHAR
STARTCHAR uni0937094D0923
ENCODING -1
SWIDTH 980 0
DWIDTH 10 0
BBX 10 7 0 0
BITMAP
A69990
654440
554440
124840
155440
000040
000040
ENDCHAR
STARTCHAR uni0937094D092A
ENCODING -1
SWIDTH 980 0
DWIDTH 10 0
BBX 10 7 0 0
BITMAP
A69990
654440
554440
124840
155440
000040
000040
ENDCHAR
STARTCHAR uni0937094D092B
ENCODING -1
SWIDTH 1036 0
DWIDTH 10 0
BBX 11 7 0 0
BITMAP
A69954
554590
554810
124810
195810
000490
000400
ENDCHAR
STARTCHAR uni0937094D092E
ENCODING -1
SWIDTH 791 0
DWIDTH 8 0
BBX 8 7 0 0
BITMAP
A699
6144
5544
1298
2944
0004
0004
ENDCHAR
STARTCHAR uni0937094D092F
ENCODING -1
SWIDTH 877 0
DWIDTH 9 0
BBX 9 7 0 0
BITMAP
A56640
641100
559100
124100
194200
005600
000100
ENDCHAR
STARTCHAR uni0937094D0935
ENCODING -1
SWIDTH 802 0
DWIDTH 8 0
BBX 8 7 0 0
BITMAP
A55A
5454
5544
1244
1944
0058
0004
ENDCHAR
STARTCHAR uni0937094D0937
ENCODING -1
SWIDTH 804 0
DWIDTH 8 0
BBX 8 7 0 0
BITMAP
A69A
6594
5554
1248
1968
0004
0004
ENDCHAR
STARTCHAR uni0938094D0915
ENCODING -1
SWIDTH 1089 0
DWIDTH 11 0
BBX 11 7 0 0
BITMAP
695654
042250
144214
6A8114
508114
206550
140100
ENDCHAR
STARTCHAR uni0938094D0916
ENCODING -1
SWIDTH 990 0
DWIDTH 10 0
BBX 10 7 0 0
BITMAP
696590
041040
141540
6A8440
514880
208580
141040
ENDCHAR
STARTCHAR uni0938094D091C
ENCODING -1
SWIDTH 970 0
DWIDTH 10 0
BBX 10 7 0 0
BITMAP
695590
040080
142A80
6A4480
500880
205480
140040
ENDCHAR
STARTCHAR uni0938094D091F
ENCODING -1
SWIDTH 844 0
DWIDTH 8 0
BBX 9 7 0 0
BITMAP
695A40
040100
146900
6A8000
504100
204100
146500
ENDCHAR
STARTCHAR uni0938094D0924
ENCODING -1
SWIDTH 852 0
DWIDTH 9 0
BBX 9 7 0 0
BITMAP
695640
040100
145A00
6A8100
504100
204100
145100
ENDCHAR
STARTCHAR uni0938094D0925
ENCODING -1
SWIDTH 960 0
DWIDTH 10 0
BBX 10 7 0 0
BITMAP
696890
044440
140440
6AA440
508080
202580
140040
ENDCHAR
STARTCHAR uni0938094D0926
ENCODING -1
SWIDTH 851 0
DWIDTH 9 0
BBX 9 7 0 0
BITMAP
695640
040100
146900
6A8000
508100
206A00
140100
ENDCHAR
STARTCHAR uni0938094D092A
ENCODING -1
SWIDTH 857 0
DWIDTH 9 0
BBX 9 7 0 0
BITMAP
699640
044100
144100
6A8200
502600
200100
140100
ENDCHAR
STARTCHAR uni0938094D092B
ENCODING -1
SWIDTH 1092 0
DWIDTH 11 0
BBX 11 7 0 0
BITMAP
699654
044250
144214
6A8214
501514
200150
140100
ENDCHAR
STARTCHAR uni0938094D092C
ENCODING -1
SWIDTH 857 0
DWIDTH 9 0
BBX 9 7 0 0
BITMAP
695640
042500
149100
6A9500
508600
206600
140100
ENDCHAR
STARTCHAR uni0938094D092E
ENCODING -1
SWIDTH 850 0
DWIDTH 9 0
BBX 9 7 0 0
BITMAP
699640
048100
148100
659600
508100
200100
140100
ENDCHAR
STARTCHAR uni0938094D092F
ENCODING -1
SWIDTH 920 0
DWIDTH 9 0
BBX 9 7 0 0
BITMAP
696680
041540
146140
6A8140
508140
201640
140140
ENDCHAR
STARTCHAR uni0938094D0932
ENCODING -1
SWIDTH 1027 0
DWIDTH 10 0
BBX 11 7 0 0
BITMAP
6955A4
040010
146690
6A8850
504410
204010
146010
ENDCHAR
STARTCHAR uni0938094D0935
ENCODING -1
SWIDTH 842 0
DWIDTH 8 0
BBX 9 7 0 0
BITMAP
695640
046100
144100
6A8100
508100
206500
140100
ENDCHAR
STARTCHAR uni0938094D0938
ENCODING -1
SWIDTH 871 0
DWIDTH 9 0
BBX 9 7 0 0
BITMAP
69A640
045100
145100
6AAA00
514100
208100
145100
ENDCHAR
STARTCHAR uni0939094D0923
ENCODING -1
SWIDTH 1136 0
DWIDTH 11 0
BBX 12 10 0 -3
BITMAP
566699
011144
261144
101144
251144
510504
500004
150000
040000
020000
ENDCHAR
STARTCHAR uni0939094D092E
ENCODING -1
SWIDTH 746 0
DWIDTH 7 0
BBX 8 8 0 -1
BITMAP
5659
0104
2604
5004
2604
5158
5104
2504
ENDCHAR
STARTCHAR uni0939094D092F
ENCODING -1
SWIDTH 785 0
DWIDTH 8 0
BBX 8 9 0 -2
BITMAP
5659
2604
5004
2544
5044
4244
5108
1558
0004
ENDCHAR
STARTCHAR uni0939094D0932
ENCODING -1
SWIDTH 1110 0
DWIDTH 11 0
BBX 11 10 0 -3
BITMAP
565568
010014
2615A4
101214
251114
511014
501814
150000
040000
010000
ENDCHAR
STARTCHAR uni0939094D0935
ENCODING -1
SWIDTH 920 0
DWIDTH 9 0
BBX 9 10 0 -3
BITMAP
565680
010140
261940
102140
262140
511A40
500040
150000
040000
010000
ENDCHAR
STARTCHAR uni0915093C094D0915093C
ENCODING -1
SWIDTH 1275 0
DWIDTH 13 0
BBX 13 8 0 -1
BITMAP
5655A540
16656500
52081100
41041100
52085100
16055500
01001000
10010000
ENDCHAR
STARTCHAR uni0915093C094D0924
ENCODING -1
SWIDTH 1016 0
DWIDTH 10 0
BBX 10 8 0 -1
BITMAP
5655A0
166050
520A90
410450
520450
160450
010950
100000
ENDCHAR
STARTCHAR uni0915093C094D092B
ENCODING -1
SWIDTH 1246 0
DWIDTH 12 0
BBX 13 8 0 -1
BITMAP
5669A540
15045900
52644200
42044100
52058200
16004500
01004000
10000000
ENDCHAR
STARTCHAR uni0915093C094D092B093C
ENCODING -1
SWIDTH 1247 0
DWIDTH 12 0
BBX 13 8 0 -1
BITMAP
5669A540
15045500
52644200
42044100
52058100
16004500
01004000
10040000
ENDCHAR
STARTCHAR uni0915093C094D092C
ENCODING -1
SWIDTH 1043 0
DWIDTH 10 0
BBX 11 8 0 -1
BITMAP
565564
166610
520910
410550
520860
2A0690
010010
100000
ENDCHAR
STARTCHAR uni0915093C094D092E
ENCODING -1
SWIDTH 998 0
DWIDTH 10 0
BBX 10 8 0 -1
BITMAP
5669A0
150440
526440
420980
520440
160040
010040
100000
ENDCHAR
STARTCHAR uni0916093C094D0924
ENCODING -1
SWIDTH 984 0
DWIDTH 10 0
BBX 10 8 0 -1
BITMAP
595590
040080
054A80
611080
521080
216080
041840
004000
ENDCHAR
STARTCHAR uni0916093C094D092E
ENCODING -1
SWIDTH 965 0
DWIDTH 10 0
BBX 10 8 0 -1
BITMAP
596590
041040
055040
611980
521040
219040
040040
004000
ENDCHAR
STARTCHAR uni0916093C094D092F
ENCODING -1
SWIDTH 1045 0
DWIDTH 10 0
BBX 11 8 0 -1
BITMAP
595A64
040120
051820
611020
522020
219960
040010
004000
ENDCHAR
STARTCHAR uni0916093C094D0935
ENCODING -1
SWIDTH 972 0
DWIDTH 10 0
BBX 10 8 0 -1
BITMAP
595590
040540
055040
621040
512080
201980
040040
004000
ENDCHAR
STARTCHAR uni0916093C094D0936
ENCODING -1
SWIDTH 1123 0
DWIDTH 11 0
BBX 11 8 0 -1
BITMAP
594A48
040454
054054
612614
522014
219814
040504
004000
ENDCHAR
STARTCHAR uni0916093C094D0938
ENCODING -1
SWIDTH 1066 0
DWIDTH 11 0
BBX 11 8 0 -1
BITMAP
595A64
040510
054510
612AA0
522410
115810
040510
004000
ENDCHAR
STARTCHAR uni091C093C094D091C093C
ENCODING -1
SWIDTH 934 0
DWIDTH 9 0
BBX 9 8 0 -1
BITMAP
555680
000100
296A00
081500
081500
646100
000100
100000
ENDCHAR
STARTCHAR uni091C093C094D092F
ENCODING -1
SWIDTH 893 0
DWIDTH 9 0
BBX 9 8 0 -1
BITMAP
556640
001100
2A9100
084100
088200
645600
000100
100000
ENDCHAR
STARTCHAR uni092B093C094D091C093C
ENCODING -1
SWIDTH 1100 0
DWIDTH 11 0
BBX 11 8 0 -1
BITMAP
A65568
510010
5156A0
120150
160150
010610
010010
100400
ENDCHAR
STARTCHAR uni092B093C094D0924
ENCODING -1
SWIDTH 1036 0
DWIDTH 10 0
BBX 11 8 0 -1
BITMAP
A65564
510010
514990
120410
160410
010410
010510
100000
ENDCHAR
STARTCHAR uni092B093C094D092B093C
ENCODING -1
SWIDTH 1256 0
DWIDTH 13 0
BBX 13 8 0 -1
BITMAP
A659A540
51046500
51645100
12085100
16059100
01005500
01004000
10040000
ENDCHAR
STARTCHAR uni092B093C094D0938
ENCODING -1
SWIDTH 1141 0
DWIDTH 11 0
BBX 12 8 0 -1
BITMAP
A65659
515104
510504
120AA4
160404
010104
010104
100000
ENDCHAR
STARTCHAR uni092C094D091C093C
ENCODING -1
SWIDTH 883 0
DWIDTH 9 0
BBX 9 8 0 -1
BITMAP
555640
000100
106A00
541100
551100
265100
000100
004000
ENDCHAR
STARTCHAR uni0932094D091C093C
ENCODING -1
SWIDTH 1062 0
DWIDTH 11 0
BBX 11 8 0 -1
BITMAP
555564
000010
195A90
520210
510210
501910
240010
001000
ENDCHAR
STARTCHAR uni0936094D0915093C
ENCODING -1
SWIDTH 1093 0
DWIDTH 11 0
BBX 11 8 0 -1
BITMAP
285654
416250
054214
684114
108214
106550
040100
001000
ENDCHAR
STARTCHAR uni0924094D0924094D
ENCODING -1
SWIDTH 309 0
DWIDTH 3 0
BBX 4 7 0 0
BITMAP
55
00
6A
10
10
10
14
ENDCHAR
STARTCHAR uni0928094D092D094D
ENCODING -1
SWIDTH 505 0
DWIDTH 5 0
BBX 6 5 0 2
BITMAP
5510
0100
0100
5650
4100
ENDCHAR
STARTCHAR uni0928094D0938094D
ENCODING -1
SWIDTH 635 0
DWIDTH 6 0
BBX 8 7 0 0
BITMAP
55A5
0010
6950
42A9
4140
0080
0050
ENDCHAR
STARTCHAR uni092E094D092D094D
ENCODING -1
SWIDTH 533 0
DWIDTH 5 0
BBX 7 5 0 2
BITMAP
A614
5100
5100
6654
5100
ENDCHAR
STARTCHAR uni0932094D092D094D
ENCODING -1
SWIDTH 694 0
DWIDTH 7 0
BBX 8 7 0 0
BITMAP
5591
0020
19A0
5225
5110
5000
2400
ENDCHAR
STARTCHAR uni0938094D0924094D0930094D
ENCODING -1
SWIDTH 575 0
DWIDTH 6 0
BBX 7 7 0 0
BITMAP
6950
0400
1494
6A44
5008
2020
1480
ENDCHAR
STARTCHAR uni0915094D0924094D092F
ENCODING -1
SWIDTH 1356 0
DWIDTH 14 0
BBX 14 7 0 0
BITMAP
56556990
16600440
520AA440
41044040
52045080
16041580
01090040
ENDCHAR
STARTCHAR uni0915094D0924094D0930
ENCODING -1
SWIDTH 997 0
DWIDTH 10 0
BBX 10 7 0 0
BITMAP
565590
156040
520980
411480
520080
160280
010840
ENDCHAR
STARTCHAR uni0915094D0924094D0935
ENCODING -1
SWIDTH 1242 0
DWIDTH 12 0
BBX 13 7 0 0
BITMAP
56555640
15601100
520A8100
41104100
52108200
26106500
01080100
ENDCHAR
STARTCHAR uni0915094D092A094D0930
ENCODING -1
SWIDTH 1007 0
DWIDTH 10 0
BBX 10 7 0 0
BITMAP
5669A0
166440
520440
410440
520680
160140
010440
ENDCHAR
STARTCHAR uni0915094D0935094D092F
ENCODING -1
SWIDTH 1384 0
DWIDTH 14 0
BBX 14 7 0 0
BITMAP
56555990
16650440
52082440
41041040
52045080
2A069580
01000040
ENDCHAR
STARTCHAR uni0915094D0938094D091F
ENCODING -1
SWIDTH 1376 0
DWIDTH 14 0
BBX 14 7 0 0
BITMAP
56569590
16610040
52050A40
410AA000
52041010
16011050
01010980
ENDCHAR
STARTCHAR uni0915094D0938094D0921
ENCODING -1
SWIDTH 1388 0
DWIDTH 14 0
BBX 14 7 0 0
BITMAP
56569590
15610040
52050A80
410AA400
52040580
2A010450
01010980
ENDCHAR
STARTCHAR uni0915094D0938094D0924
ENCODING -1
SWIDTH 1423 0
DWIDTH 14 0
BBX 14 7 0 0
BITMAP
565695A0
16610050
52050590
410AA450
52040450
16010450
01010910
ENDCHAR
STARTCHAR uni0915094D0938094D092A094D0930
ENCODING -1
SWIDTH 1437 0
DWIDTH 14 0
BBX 15 7 0 0
BITMAP
56569964
16610410
52050410
410AA810
52040590
16010110
01010510
ENDCHAR
STARTCHAR uni0915094D0938094D092A094D0932
ENCODING -1
SWIDTH 1866 0
DWIDTH 19 0
BBX 19 7 0 0
BITMAP
5656995564
1661040010
52050429A0
410AA84120
5204068110
1601004010
0101002410
ENDCHAR
STARTCHAR uni0917094D0927094D092F
ENCODING -1
SWIDTH 1156 0
DWIDTH 12 0
BBX 12 7 0 0
BITMAP
668699
120048
119648
210408
510508
009558
000004
ENDCHAR
STARTCHAR uni0917094D0927094D0935
ENCODING -1
SWIDTH 1084 0
DWIDTH 11 0
BBX 11 7 0 0
BITMAP
668564
120150
119510
210410
510520
009560
000010
ENDCHAR
STARTCHAR uni0917094D0928094D092F
ENCODING -1
SWIDTH 1069 0
DWIDTH 11 0
BBX 11 7 0 0
BITMAP
655A64
100110
116910
211410
510420
000560
000010
ENDCHAR
STARTCHAR uni0917094D092D094D092F
ENCODING -1
SWIDTH 1102 0
DWIDTH 11 0
BBX 11 7 0 0
BITMAP
661668
110110
110910
219810
510810
000560
000010
ENDCHAR
STARTCHAR uni0917094D0930094D092F
ENCODING -1
SWIDTH 817 0
DWIDTH 8 0
BBX 8 8 0 -1
BITMAP
659A
1045
1185
2105
5205
00A9
0055
0040
ENDCHAR
STARTCHAR uni091A094D091B094D0935
ENCODING -1
SWIDTH 913 0
DWIDTH 9 0
BBX 9 8 0 -1
BITMAP
559680
008200
105040
104040
208040
16A600
008100
006500
ENDCHAR
STARTCHAR uni091C094D091C094D091E
ENCODING -1
SWIDTH 945 0
DWIDTH 9 0
BBX 10 8 0 -1
BITMAP
555590
000080
2A4080
084080
085880
644580
009840
004000
ENDCHAR
STARTCHAR uni091C094D091C094D092F
ENCODING -1
SWIDTH 1252 0
DWIDTH 13 0
BBX 13 7 0 0
BITMAP
5555A640
00001100
296A8100
08150100
08154200
64605600
00000100
ENDCHAR
STARTCHAR uni091C094D091C094D0935
ENCODING -1
SWIDTH 1243 0
DWIDTH 12 0
BBX 12 7 0 0
BITMAP
555559
000054
296A04
081504
081508
646098
000004
ENDCHAR
STARTCHAR uni0924094D0915094D092F
ENCODING -1
SWIDTH 1346 0
DWIDTH 13 0
BBX 14 7 0 0
BITMAP
55596990
00440440
2A09A040
51084040
42084080
41941540
20040040
ENDCHAR
STARTCHAR uni0924094D0915094D0930
ENCODING -1
SWIDTH 995 0
DWIDTH 10 0
BBX 10 8 0 -1
BITMAP
555950
004940
2A0850
510410
420850
41A540
204400
004000
ENDCHAR
STARTCHAR uni0924094D0915094D0935
ENCODING -1
SWIDTH 1282 0
DWIDTH 13 0
BBX 13 7 0 0
BITMAP
55595640
00499500
2A085100
51044100
42085200
41942600
20040100
ENDCHAR
STARTCHAR uni0924094D0915094D0937
ENCODING -1
SWIDTH 943 0
DWIDTH 9 0
BBX 10 7 0 0
BITMAP
559490
008440
29A980
510040
410440
40A840
200440
ENDCHAR
STARTCHAR uni0924094D0916094D0930
ENCODING -1
SWIDTH 1008 0
DWIDTH 10 0
BBX 10 8 0 -1
BITMAP
5565A0
001040
292540
529840
404440
404680
201140
000400
ENDCHAR
STARTCHAR uni0924094D0924094D092F
ENCODING -1
SWIDTH 888 0
DWIDTH 9 0
BBX 9 7 0 0
BITMAP
556640
001100
691100
109100
104200
105600
140100
ENDCHAR
STARTCHAR uni0924094D0924094D0935
ENCODING -1
SWIDTH 788 0
DWIDTH 8 0
BBX 8 7 0 0
BITMAP
5559
0054
6A44
1104
1148
1058
1404
ENDCHAR
STARTCHAR uni0924094D0928094D092F
ENCODING -1
SWIDTH 1098 0
DWIDTH 11 0
BBX 11 7 0 0
BITMAP
555668
000110
255910
510410
410420
400560
200010
ENDCHAR
STARTCHAR uni0924094D092A094D0930
ENCODING -1
SWIDTH 763 0
DWIDTH 8 0
BBX 8 7 0 0
BITMAP
5659
0104
2A04
5108
4068
4054
2044
ENDCHAR
STARTCHAR uni0924094D092A094D0932
ENCODING -1
SWIDTH 1219 0
DWIDTH 12 0
BBX 12 7 0 0
BITMAP
56555A
010005
2A0669
510885
40A845
400405
200505
ENDCHAR
STARTCHAR uni0924094D092E094D092F
ENCODING -1
SWIDTH 1096 0
DWIDTH 11 0
BBX 11 7 0 0
BITMAP
565664
010110
2A0910
525410
410820
400560
200010
ENDCHAR
STARTCHAR uni0924094D0930094D092F
ENCODING -1
SWIDTH 848 0
DWIDTH 8 0
BBX 9 7 0 0
BITMAP
55A640
001100
291100
528100
020200
045600
200100
ENDCHAR
STARTCHAR uni0924094D0938094D092F
ENCODING -1
SWIDTH 1234 0
DWIDTH 12 0
BBX 13 7 0 0
BITMAP
5565AA40
00105100
25118100
51AA0100
40410500
40405500
20100100
ENDCHAR
STARTCHAR uni0924094D0938094D0935
ENCODING -1
SWIDTH 1155 0
DWIDTH 12 0
BBX 12 7 0 0
BITMAP
556559
001094
291104
51AA04
404208
404098
201004
ENDCHAR
STARTCHAR uni0926094D0917094D0930
ENCODING -1
SWIDTH 493 0
DWIDTH 5 0
BBX 5 9 0 -2
BITMAP
5640
0100
2A00
5000
5100
2A40
1540
6640
0400
ENDCHAR
STARTCHAR uni0926094D092C094D0930
ENCODING -1
SWIDTH 483 0
DWIDTH 5 0
BBX 5 10 0 -3
BITMAP
5640
0100
1A00
5000
4000
5100
2A00
1500
1A00
0800
ENDCHAR
STARTCHAR uni0926094D092F094D092D
ENCODING -1
SWIDTH 607 0
DWIDTH 6 0
BBX 6 9 0 -2
BITMAP
5AA0
1840
1040
2440
1040
1680
5140
1840
0440
ENDCHAR
STARTCHAR uni0926094D092F094D0930
ENCODING -1
SWIDTH 595 0
DWIDTH 6 0
BBX 6 7 0 0
BITMAP
5A90
2840
5040
2440
5040
5040
2580
ENDCHAR
STARTCHAR uni0927094D0928094D092F
ENCODING -1
SWIDTH 1138 0
DWIDTH 11 0
BBX 12 7 0 0
BITMAP
A55699
500044
240044
109A04
514404
154254
000004
ENDCHAR
STARTCHAR uni0928094D0915094D0938
ENCODING -1
SWIDTH 1384 0
DWIDTH 14 0
BBX 14 7 0 0
BITMAP
55695990
01594480
01044480
4104AA80
42141080
01542080
00040440
ENDCHAR
STARTCHAR uni0928094D0924094D092F
ENCODING -1
SWIDTH 1073 0
DWIDTH 11 0
BBX 11 7 0 0
BITMAP
555A64
000110
006910
551410
410420
010560
024010
ENDCHAR
STARTCHAR uni0928094D0924094D0930
ENCODING -1
SWIDTH 732 0
DWIDTH 7 0
BBX 8 7 0 0
BITMAP
5569
0004
0154
6604
4104
0054
0144
ENDCHAR
STARTCHAR uni0928094D0924094D0938
ENCODING -1
SWIDTH 1134 0
DWIDTH 11 0
BBX 12 7 0 0
BITMAP
555669
000204
01A204
410AA4
410804
010104
014204
ENDCHAR
STARTCHAR uni0928094D0925094D092F
ENCODING -1
SWIDTH 1168 0
DWIDTH 12 0
BBX 12 7 0 0
BITMAP
559699
011044
001644
6A9504
420508
015558
000004
ENDCHAR
STARTCHAR uni0928094D0925094D0935
ENCODING -1
SWIDTH 1089 0
DWIDTH 11 0
BBX 11 7 0 0
BITMAP
559564
011150
001510
6A9510
420520
015660
000010
ENDCHAR
STARTCHAR uni0928094D0926094D0930
ENCODING -1
SWIDTH 734 0
DWIDTH 7 0
BBX 8 8 0 -1
BITMAP
5559
0004
01A4
5600
4204
01A8
0054
0040
ENDCHAR
STARTCHAR uni0928094D0926094D0935
ENCODING -1
SWIDTH 732 0
DWIDTH 7 0
BBX 8 9 0 -2
BITMAP
5569
0004
01A4
5600
4204
0198
0104
0104
0160
ENDCHAR
STARTCHAR uni0928094D0927094D092F
ENCODING -1
SWIDTH 1097 0
DWIDTH 11 0
BBX 11 7 0 0
BITMAP
565664
010110
674910
410410
410420
015560
000010
ENDCHAR
STARTCHAR uni0928094D0927094D0930
ENCODING -1
SWIDTH 783 0
DWIDTH 8 0
BBX 8 8 0 -1
BITMAP
5659
0104
0104
5644
4208
01A8
0054
0040
ENDCHAR
STARTCHAR uni0928094D0927094D0935
ENCODING -1
SWIDTH 1036 0
DWIDTH 10 0
BBX 11 7 0 0
BITMAP
565564
010510
674810
410810
410810
015550
000010
ENDCHAR
STARTCHAR uni0928094D0928094D092F
ENCODING -1
SWIDTH 1071 0
DWIDTH 11 0
BBX 11 7 0 0
BITMAP
555A64
000110
666910
411410
410420
000560
000010
ENDCHAR
STARTCHAR uni0928094D092A094D0930
ENCODING -1
SWIDTH 737 0
DWIDTH 7 0
BBX 8 7 0 0
BITMAP
5659
0104
6604
4104
4164
0044
0144
ENDCHAR
STARTCHAR uni0928094D092B094D0930
ENCODING -1
SWIDTH 975 0
DWIDTH 10 0
BBX 10 7 0 0
BITMAP
566950
010940
660440
411440
416440
009540
010400
ENDCHAR
STARTCHAR uni0928094D092D094D092F
ENCODING -1
SWIDTH 1071 0
DWIDTH 11 0
BBX 11 7 0 0
BITMAP
551A64
010110
011910
566410
411420
000560
000010
ENDCHAR
STARTCHAR uni0928094D092D094D0935
ENCODING -1
SWIDTH 995 0
DWIDTH 10 0
BBX 10 7 0 0
BITMAP
551590
010540
010440
566440
411480
000580
000040
ENDCHAR
STARTCHAR uni0928094D092E094D092F
ENCODING -1
SWIDTH 1071 0
DWIDTH 11 0
BBX 11 7 0 0
BITMAP
565A64
010110
011910
566410
411420
000560
000010
ENDCHAR
STARTCHAR uni0928094D0938094D091F
ENCODING -1
SWIDTH 1113 0
DWIDTH 11 0
BBX 11 7 0 0
BITMAP
55A568
004010
684100
42A900
410104
004104
004164
ENDCHAR
STARTCHAR uni0928094D0938094D092E094D092F
ENCODING -1
SWIDTH 1453 0
DWIDTH 15 0
BBX 15 7 0 0
BITMAP
55965A64
00420110
68421810
42966010
41011420
00400560
00400010
ENDCHAR
STARTCHAR uni0928094D0938094D092F
ENCODING -1
SWIDTH 1194 0
DWIDTH 12 0
BBX 12 7 0 0
BITMAP
559599
004044
684244
42A904
410108
004158
004004
ENDCHAR
STARTCHAR uni092A094D0924094D092F
ENCODING -1
SWIDTH 1119 0
DWIDTH 11 0
BBX 11 7 0 0
BITMAP
A556A8
500154
50AA14
110414
1A0414
010164
008014
ENDCHAR
STARTCHAR uni092C094D091C094D092F
ENCODING -1
SWIDTH 1235 0
DWIDTH 12 0
BBX 13 7 0 0
BITMAP
5555A640
00001100
106A8100
54110100
55110100
26509500
00000100
ENDCHAR
STARTCHAR uni092C094D0927094D0935
ENCODING -1
SWIDTH 1097 0
DWIDTH 11 0
BBX 11 7 0 0
BITMAP
568564
150150
609510
450510
520510
159560
000010
ENDCHAR
STARTCHAR uni092C094D092D094D0930
ENCODING -1
SWIDTH 764 0
DWIDTH 8 0
BBX 8 7 0 0
BITMAP
5619
2504
6104
5A98
5318
1554
0044
ENDCHAR
STARTCHAR uni092C094D0932094D092F
ENCODING -1
SWIDTH 480 0
DWIDTH 5 0
BBX 13 7 0 0
BITMAP
55556680
14951140
61145140
55049140
56044140
26001640
00500140
ENDCHAR
STARTCHAR uni092D094D0930094D092F
ENCODING -1
SWIDTH 830 0
DWIDTH 8 0
BBX 9 7 0 0
BITMAP
85AA40
505100
518100
660100
520500
049500
100100
ENDCHAR
STARTCHAR uni092E094D092A094D0930
ENCODING -1
SWIDTH 765 0
DWIDTH 8 0
BBX 8 7 0 0
BITMAP
A659
5104
5104
6608
1068
0054
0044
ENDCHAR
STARTCHAR uni092E094D092C094D092F
ENCODING -1
SWIDTH 1124 0
DWIDTH 11 0
BBX 11 7 0 0
BITMAP
A556A8
509144
514504
665404
521814
019564
000004
ENDCHAR
STARTCHAR uni092E094D092C094D0930
ENCODING -1
SWIDTH 768 0
DWIDTH 8 0
BBX 8 8 0 -1
BITMAP
A559
5094
5144
6654
1218
0068
0054
0040
ENDCHAR
STARTCHAR uni092E094D092D094D092F
ENCODING -1
SWIDTH 1101 0
DWIDTH 11 0
BBX 11 7 0 0
BITMAP
A61668
510110
510910
669810
510820
000560
000010
ENDCHAR
STARTCHAR uni092E094D092D094D0930
ENCODING -1
SWIDTH 759 0
DWIDTH 8 0
BBX 8 7 0 0
BITMAP
A619
5104
5104
6658
5118
0054
0044
ENDCHAR
STARTCHAR uni092E094D092D094D0935
ENCODING -1
SWIDTH 1028 0
DWIDTH 10 0
BBX 11 7 0 0
BITMAP
A615A4
510510
510410
669810
510850
000550
000010
ENDCHAR
STARTCHAR uni0932094D0915094D092F
ENCODING -1
SWIDTH 1534 0
DWIDTH 15 0
BBX 16 7 0 0
BITMAP
555596A9
00044144
19A09A04
52108404
51204414
50194254
24004004
ENDCHAR
STARTCHAR uni0932094D0925094D092F
ENCODING -1
SWIDTH 1397 0
DWIDTH 14 0
BBX 14 7 0 0
BITMAP
555A19A0
00110440
11112440
51291040
51102080
50055580
24000040
ENDCHAR
STARTCHAR uni0932094D0926094D0930
ENCODING -1
SWIDTH 933 0
DWIDTH 9 0
BBX 10 8 0 -1
BITMAP
555590
000040
199A40
522000
512040
501A80
240540
000400
ENDCHAR
STARTCHAR uni0932094D0932094D092F
ENCODING -1
SWIDTH 1476 0
DWIDTH 15 0
BBX 15 7 0 0
BITMAP
55555A64
15995110
52221110
51111910
51110420
50100560
24180010
ENDCHAR
STARTCHAR uni0932094D0935094D0921
ENCODING -1
SWIDTH 1247 0
DWIDTH 12 0
BBX 13 7 0 0
BITMAP
55555640
00040100
19906900
52104000
51205500
50154100
24005900
ENDCHAR
STARTCHAR uni0937094D0915094D0930
ENCODING -1
SWIDTH 1042 0
DWIDTH 10 0
BBX 11 8 0 -1
BITMAP
A55954
545590
554410
124410
1A4810
006890
001400
004000
ENDCHAR
STARTCHAR uni0937094D091F094D092F
ENCODING -1
SWIDTH 997 0
DWIDTH 10 0
BBX 10 7 0 0
BITMAP
A695A0
559840
160540
101840
501080
504980
260040
ENDCHAR
STARTCHAR uni0937094D091F094D0930
ENCODING -1
SWIDTH 493 0
DWIDTH 5 0
BBX 5 9 0 -2
BITMAP
A680
5540
1640
2600
5000
5040
2600
1500
1100
ENDCHAR
STARTCHAR uni0937094D091F094D0935
ENCODING -1
SWIDTH 493 0
DWIDTH 5 0
BBX 5 10 0 -3
BITMAP
A680
5540
1640
2A00
5000
5040
2A00
1100
5100
1500
ENDCHAR
STARTCHAR uni0937094D0920094D092F
ENCODING -1
SWIDTH 1006 0
DWIDTH 10 0
BBX 10 7 0 0
BITMAP
BF95A0
7F9840
3F0140
255840
505040
504980
260040
ENDCHAR
STARTCHAR uni0937094D0920094D0930
ENCODING -1
SWIDTH 512 0
DWIDTH 5 0
BBX 5 9 0 -2
BITMAP
BF80
7F40
3F40
2A00
5040
5040
2600
1500
1100
ENDCHAR
STARTCHAR uni0937094D0923094D092F
ENCODING -1
SWIDTH 1273 0
DWIDTH 13 0
BBX 13 7 0 0
BITMAP
A699A640
65441100
55449100
12454100
15504200
00005600
00000100
ENDCHAR
STARTCHAR uni0937094D092A094D0930
ENCODING -1
SWIDTH 798 0
DWIDTH 8 0
BBX 8 7 0 0
BITMAP
A69A
6544
5544
1248
1968
0014
0084
ENDCHAR
STARTCHAR uni0937094D092E094D092F
ENCODING -1
SWIDTH 1121 0
DWIDTH 11 0
BBX 11 7 0 0
BITMAP
A696A8
614154
554514
129814
194814
000254
000014
ENDCHAR
STARTCHAR uni0938094D0915094D0930
ENCODING -1
SWIDTH 1084 0
DWIDTH 11 0
BBX 11 8 0 -1
BITMAP
695654
045250
144214
6A8114
508114
206950
142100
001000
ENDCHAR
STARTCHAR uni0938094D0915094D0935
ENCODING -1
SWIDTH 1369 0
DWIDTH 14 0
BBX 14 7 0 0
BITMAP
69565590
04525940
14421040
6A812040
50811080
20650980
14010040
ENDCHAR
STARTCHAR uni0938094D0924094D092F
ENCODING -1
SWIDTH 1185 0
DWIDTH 12 0
BBX 12 7 0 0
BITMAP
695599
040044
146A44
6A8104
504108
208158
145004
ENDCHAR
STARTCHAR uni0938094D0924094D0930
ENCODING -1
SWIDTH 818 0
DWIDTH 8 0
BBX 8 7 0 0
BITMAP
695A
0405
1459
6A45
5005
2015
1485
ENDCHAR
STARTCHAR uni0938094D0924094D0935
ENCODING -1
SWIDTH 1126 0
DWIDTH 11 0
BBX 12 7 0 0
BITMAP
695569
040154
145A04
6A8104
504214
204164
145004
ENDCHAR
STARTCHAR uni0938094D0925094D092F
ENCODING -1
SWIDTH 1303 0
DWIDTH 13 0
BBX 13 7 0 0
BITMAP
69686680
04441100
14049100
6AA44100
50408100
20155600
14000100
ENDCHAR
STARTCHAR uni0938094D092A094D0930
ENCODING -1
SWIDTH 850 0
DWIDTH 9 0
BBX 9 7 0 0
BITMAP
699640
044100
144100
6A8200
505A00
201100
145100
ENDCHAR
STARTCHAR uni0938094D092E094D092F
ENCODING -1
SWIDTH 1189 0
DWIDTH 12 0
BBX 12 7 0 0
BITMAP
699599
044044
144244
6AA904
504108
200158
140004
ENDCHAR
STARTCHAR uni093F.a01
ENCODING -1
SWIDTH 231 0
DWIDTH 2 0
BBX 5 10 0 0
BITMAP
2A40
1040
1000
A400
1000
1000
1000
1000
1000
1000
ENDCHAR
STARTCHAR uni093F.a04
ENCODING -1
SWIDTH 231 0
DWIDTH 2 0
BBX 7 10 0 0
BITMAP
2A60
1014
1000
A400
1000
1000
1000
1000
1000
1000
ENDCHAR
STARTCHAR uni093F.a05
ENCODING -1
SWIDTH 231 0
DWIDTH 2 0
BBX 7 10 0 0
BITMAP
2AA4
1004
1000
A400
1000
1000
1000
1000
1000
1000
ENDCHAR
STARTCHAR uni093F.a06
ENCODING -1
SWIDTH 231 0
DWIDTH 2 0
BBX 8 10 0 0
BITMAP
2A98
1005
1000
A400
1000
1000
1000
1000
1000
1000
ENDCHAR
STARTCHAR uni093F.a07
ENCODING -1
SWIDTH 231 0
DWIDTH 2 0
BBX 8 10 0 0
BITMAP
2AA9
1001
1000
A400
1000
1000
1000
1000
1000
1000
ENDCHAR
STARTCHAR uni093F.a08
ENCODING -1
SWIDTH 231 0
DWIDTH 2 0
BBX 8 10 0 0
BITMAP
2AA6
1001
1000
A400
1000
1000
1000
1000
1000
1000
ENDCHAR
STARTCHAR uni093F.a09
ENCODING -1
SWIDTH 231 0
DWIDTH 2 0
BBX 9 10 0 0
BITMAP
2AAA40
100040
100000
A40000
100000
100000
100000
100000
100000
100000
ENDCHAR
STARTCHAR uni093F.a10
ENCODING -1
SWIDTH 231 0
DWIDTH 2 0
BBX 9 10 0 0
BITMAP
2AA980
100040
100000
A40000
100000
100000
100000
100000
100000
100000
ENDCHAR
STARTCHAR uni093F.a11
ENCODING -1
SWIDTH 231 0
DWIDTH 2 0
BBX 10 10 0 0
BITMAP
2AAA90
100010
100000
A40000
100000
100000
100000
100000
100000
100000
ENDCHAR
STARTCHAR uni093F.a12
ENCODING -1
SWIDTH 231 0
DWIDTH 2 0
BBX 10 10 0 0
BITMAP
2AAA60
100010
100000
A40000
100000
100000
100000
100000
100000
100000
ENDCHAR
STARTCHAR uni093F.a13
ENCODING -1
SWIDTH 231 0
DWIDTH 2 0
BBX 11 10 0 0
BITMAP
2AAAA4
100004
100000
A40000
100000
100000
100000
100000
100000
100000
ENDCHAR
STARTCHAR uni093F.a14
ENCODING -1
SWIDTH 231 0
DWIDTH 2 0
BBX 11 10 0 0
BITMAP
2AAAA8
100004
100000
A40000
100000
100000
100000
100000
100000
100000
ENDCHAR
STARTCHAR uni093F.a15
ENCODING -1
SWIDTH 231 0
DWIDTH 2 0
BBX 12 10 0 0
BITMAP
2AAAA9
100001
100000
A40000
100000
100000
100000
100000
100000
100000
ENDCHAR
STARTCHAR uni093F.a16
ENCODING -1
SWIDTH 231 0
DWIDTH 2 0
BBX 12 10 0 0
BITMAP
2AAAA5
100001
100000
A40000
100000
100000
100000
100000
100000
100000
ENDCHAR
STARTCHAR uni093F.a17
ENCODING -1
SWIDTH 231 0
DWIDTH 2 0
BBX 13 10 0 0
BITMAP
2AAAAA00
10000040
10000000
A4000000
10000000
10000000
10000000
10000000
10000000
10000000
ENDCHAR
STARTCHAR uni093F.a18
ENCODING -1
SWIDTH 231 0
DWIDTH 2 0
BBX 13 10 0 0
BITMAP
2AAAAA40
10000040
10000000
A4000000
10000000
10000000
10000000
10000000
10000000
10000000
ENDCHAR
STARTCHAR uni093F.a19
ENCODING -1
SWIDTH 231 0
DWIDTH 2 0
BBX 14 10 0 0
BITMAP
2AAAAA80
10000010
10000000
A4000000
10000000
10000000
10000000
10000000
10000000
10000000
ENDCHAR
STARTCHAR uni093F.a20
ENCODING -1
SWIDTH 231 0
DWIDTH 2 0
BBX 14 10 0 0
BITMAP
2AAAAA90
10000010
10000000
A4000000
10000000
10000000
10000000
10000000
10000000
10000000
ENDCHAR
STARTCHAR uni093F.a21
ENCODING -1
SWIDTH 231 0
DWIDTH 2 0
BBX 15 10 0 0
BITMAP
2AAAAA60
10000014
10000000
A4000000
10000000
10000000
10000000
10000000
10000000
10000000
ENDCHAR
STARTCHAR uni093F.a22
ENCODING -1
SWIDTH 231 0
DWIDTH 2 0
BBX 15 10 0 0
BITMAP
2AAAAAA4
10000004
10000000
A4000000
10000000
10000000
10000000
10000000
10000000
10000000
ENDCHAR
STARTCHAR uni093F.a23
ENCODING -1
SWIDTH 231 0
DWIDTH 2 0
BBX 16 10 0 0
BITMAP
2AAAAAA8
10000005
10000000
A4000000
10000000
10000000
10000000
10000000
10000000
10000000
ENDCHAR
STARTCHAR uni093F.a24
ENCODING -1
SWIDTH 231 0
DWIDTH 2 0
BBX 16 10 0 0
BITMAP
2AAAAAA9
10000001
10000000
A4000000
10000000
10000000
10000000
10000000
10000000
10000000
ENDCHAR
STARTCHAR uni093F.a25
ENCODING -1
SWIDTH 231 0
DWIDTH 2 0
BBX 16 10 0 0
BITMAP
2AAAAAA6
10000001
10000000
A4000000
10000000
10000000
10000000
10000000
10000000
10000000
ENDCHAR
STARTCHAR uni093F.a26
ENCODING -1
SWIDTH 231 0
DWIDTH 2 0
BBX 17 10 0 0
BITMAP
2AAAAAAA40
1000000040
1000000000
A400000000
1000000000
1000000000
1000000000
1000000000
1000000000
1000000000
ENDCHAR
STARTCHAR uni093F.a32
ENCODING -1
SWIDTH 231 0
DWIDTH 2 0
BBX 21 10 0 0
BITMAP
2AAAAAAAAA00
100000000140
100000000000
A40000000000
100000000000
100000000000
100000000000
100000000000
100000000000
100000000000
ENDCHAR
STARTCHAR uni093E0901
ENCODING -1
SWIDTH 231 0
DWIDTH 2 0
BBX 4 10 -1 0
BITMAP
04
41
25
29
04
04
04
04
04
04
ENDCHAR
STARTCHAR dvNG_GA
ENCODING -1
SWIDTH 562 0
DWIDTH 6 0
BBX 6 11 0 -4
BITMAP
5690
0040
2640
5000
2540
0040
2640
1100
1100
5100
0100
ENDCHAR
STARTCHAR dvNG_MA
ENCODING -1
SWIDTH 728 0
DWIDTH 7 0
BBX 8 10 0 -3
BITMAP
5669
2604
5004
2504
0104
5104
2604
0264
0104
0004
ENDCHAR
STARTCHAR dvNY_CA
ENCODING -1
SWIDTH 963 0
DWIDTH 10 0
BBX 10 7 0 0
BITMAP
555590
540040
046840
0A2040
042080
541580
000040
ENDCHAR
STARTCHAR dvTT_GA
ENCODING -1
SWIDTH 510 0
DWIDTH 5 0
BBX 5 10 0 -3
BITMAP
5680
0100
1600
5000
4040
5040
2A00
1100
5100
0100
ENDCHAR
STARTCHAR dvTTH_TTHA
ENCODING -1
SWIDTH 511 0
DWIDTH 5 0
BBX 5 11 0 -4
BITMAP
5640
0100
2A00
5140
5140
2A00
1A00
5140
4040
5140
1500
ENDCHAR
STARTCHAR dvDD_GA
ENCODING -1
SWIDTH 541 0
DWIDTH 5 0
BBX 6 11 0 -4
BITMAP
5690
0040
2640
5000
2540
0040
2640
1100
1100
5100
0100
ENDCHAR
STARTCHAR dvDDH_DDHA
ENCODING -1
SWIDTH 487 0
DWIDTH 5 0
BBX 5 10 0 -3
BITMAP
5640
1600
5000
4600
5440
2600
5100
5540
5040
1600
ENDCHAR
STARTCHAR dvSHA_MatraVocalicR
ENCODING -1
SWIDTH 558 0
DWIDTH 6 0
BBX 6 10 0 -3
BITMAP
2890
5540
2840
2840
4180
0040
0180
0100
0100
0250
ENDCHAR
STARTCHAR dvT_KH_NA
ENCODING -1
SWIDTH 1341 0
DWIDTH 13 0
BBX 14 7 0 0
BITMAP
55655590
00100040
29264040
52945040
40446040
40464040
20100040
ENDCHAR
STARTCHAR dvT_S_NA
ENCODING -1
SWIDTH 1169 0
DWIDTH 12 0
BBX 12 7 0 0
BITMAP
556559
001004
291004
51AA04
404104
404004
201004
ENDCHAR
ENDFONT
